<?xml version="1.0" encoding="utf-8"?>
<!-- Generator: Adobe Illustrator 16.0.0, SVG Export Plug-In . SVG Version: 6.00 Build 0)  -->
<!DOCTYPE svg PUBLIC "-//W3C//DTD SVG 1.1//EN" "http://www.w3.org/Graphics/SVG/1.1/DTD/svg11.dtd">
<svg version="1.1" id="Calque_1" xmlns="http://www.w3.org/2000/svg" xmlns:xlink="http://www.w3.org/1999/xlink" x="0px" y="0px"
	 width="14.3px" height="13.7px" viewBox="0 0 14.3 13.7" enable-background="new 0 0 14.3 13.7" xml:space="preserve">
<path fill="#BEBEBE" d="M1,13.7c-0.6,0-1-0.5-1-1V3.5c0-0.6,0.5-1,1-1h3.1c0.1,0,0.2-0.1,0.2-0.2V1.6C4.3,0.7,5,0,5.9,0h2.5
	C9.3,0,10,0.7,10,1.6v0.6c0,0.1,0.1,0.2,0.2,0.2h3.1c0.6,0,1,0.5,1,1v9.2c0,0.6-0.5,1-1,1H1z M1,7.6c-0.1,0-0.2,0.1-0.2,0.2v4.9
	c0,0.1,0.1,0.2,0.2,0.2h12.3c0.1,0,0.2-0.1,0.2-0.2l0-4.9c0-0.1,0-0.1-0.1-0.1c0,0-0.1-0.1-0.1-0.1H9c-0.1,0-0.2,0.1-0.2,0.2
	c0,0.9-0.7,1.6-1.6,1.6C6.7,9.4,6.3,9.2,6,8.9C5.7,8.6,5.5,8.2,5.5,7.8c0-0.1-0.1-0.2-0.2-0.2H1z M7.2,5.7c-0.4,0-0.8,0.4-0.8,0.8
	l0,1.2c0,0.2,0.1,0.4,0.2,0.6c0.2,0.2,0.4,0.2,0.6,0.2C7.6,8.6,8,8.2,8,7.8V6.5C8,6.3,7.9,6.1,7.7,6C7.6,5.8,7.4,5.7,7.2,5.7z
	 M7.2,4.9c0.4,0,0.8,0.2,1.2,0.5c0.3,0.3,0.5,0.7,0.5,1.2c0,0.1,0.1,0.2,0.2,0.2l4.3,0c0.1,0,0.1,0,0.1-0.1c0,0,0.1-0.1,0.1-0.1V3.5
	c0-0.1-0.1-0.2-0.2-0.2L1,3.3c-0.1,0-0.1,0-0.1,0.1c0,0-0.1,0.1-0.1,0.1v3.1c0,0.1,0.1,0.2,0.2,0.2h4.3c0.1,0,0.2-0.1,0.2-0.2
	C5.5,5.6,6.2,4.9,7.2,4.9z M5.1,2.3c0,0.1,0.1,0.2,0.2,0.2H9c0.1,0,0.2-0.1,0.2-0.2V1.6c0-0.4-0.4-0.8-0.8-0.8H5.9
	c-0.4,0-0.8,0.4-0.8,0.8l0,0V2.3z"/>
<g>
</g>
<g>
</g>
<g>
</g>
<g>
</g>
<g>
</g>
<g>
</g>
<g>
</g>
<g>
</g>
<g>
</g>
<g>
</g>
<g>
</g>
<g>
</g>
<g>
</g>
<g>
</g>
<g>
</g>
</svg>
