<?xml version="1.0" encoding="utf-8"?>
<!-- Generator: Adobe Illustrator 16.0.0, SVG Export Plug-In . SVG Version: 6.00 Build 0)  -->
<!DOCTYPE svg PUBLIC "-//W3C//DTD SVG 1.1//EN" "http://www.w3.org/Graphics/SVG/1.1/DTD/svg11.dtd">
<svg version="1.1" id="Calque_1" xmlns="http://www.w3.org/2000/svg" xmlns:xlink="http://www.w3.org/1999/xlink" x="0px" y="0px"
	 width="78.3px" height="15px" viewBox="0 0 78.3 15" enable-background="new 0 0 78.3 15" xml:space="preserve">
<polygon fill="#19C158" stroke="#19C158" stroke-miterlimit="10" points="8.2,1.6 9.7,6.4 14.7,6.4 10.7,9 12.2,13.6 8.2,10.6 
	4.2,13.5 5.7,9 1.7,6.4 6.6,6.4 "/>
<polygon fill="#19C158" stroke="#19C158" stroke-miterlimit="10" points="23.7,1.6 25.2,6.4 30.2,6.4 26.2,9 27.7,13.6 23.7,10.6 
	19.6,13.5 21.2,9 17.1,6.4 22.1,6.4 "/>
<polygon fill="#19C158" stroke="#19C158" stroke-miterlimit="10" points="39.2,1.6 40.7,6.4 45.7,6.4 41.7,9 43.2,13.6 39.2,10.6 
	35.1,13.5 36.7,9 32.6,6.4 37.6,6.4 "/>
<polygon fill="#19C158" stroke="#19C158" stroke-miterlimit="10" points="54.6,1.6 56.2,6.4 61.2,6.4 57.1,9 58.7,13.6 54.6,10.6 
	50.6,13.5 52.2,9 48.1,6.4 53.1,6.4 "/>
<polygon fill="#19C158" stroke="#19C158" stroke-miterlimit="10" points="70.1,1.6 71.7,6.4 76.7,6.4 72.6,9 74.2,13.6 70.1,10.6 
	66.1,13.5 67.6,9 63.6,6.4 68.6,6.4 "/>
<g>
</g>
<g>
</g>
<g>
</g>
<g>
</g>
<g>
</g>
<g>
</g>
<g>
</g>
<g>
</g>
<g>
</g>
<g>
</g>
<g>
</g>
<g>
</g>
<g>
</g>
<g>
</g>
<g>
</g>
</svg>
