<?xml version="1.0" encoding="utf-8"?>
<!-- Generator: Adobe Illustrator 16.0.0, SVG Export Plug-In . SVG Version: 6.00 Build 0)  -->
<!DOCTYPE svg PUBLIC "-//W3C//DTD SVG 1.1//EN" "http://www.w3.org/Graphics/SVG/1.1/DTD/svg11.dtd">
<svg version="1.1" id="Calque_2" xmlns="http://www.w3.org/2000/svg" xmlns:xlink="http://www.w3.org/1999/xlink" x="0px" y="0px"
	 width="78.4px" height="14.9px" viewBox="0 0 78.4 14.9" enable-background="new 0 0 78.4 14.9" xml:space="preserve">
<polygon fill="none" stroke="#19C158" stroke-miterlimit="10" points="8.2,1.6 9.7,6.4 14.7,6.4 10.7,9 12.2,13.5 8.2,10.5 
	4.2,13.4 5.7,9 1.7,6.4 6.7,6.4 "/>
<polygon fill="none" stroke="#19C158" stroke-miterlimit="10" points="23.7,1.6 25.2,6.4 30.2,6.4 26.2,9 27.7,13.5 23.7,10.5 
	19.7,13.4 21.2,9 17.2,6.4 22.2,6.4 "/>
<polygon fill="none" stroke="#19C158" stroke-miterlimit="10" points="39.2,1.6 40.7,6.4 45.7,6.4 41.7,9 43.2,13.5 39.2,10.5 
	35.2,13.4 36.7,9 32.7,6.4 37.6,6.4 "/>
<polygon fill="none" stroke="#19C158" stroke-miterlimit="10" points="54.7,1.6 56.2,6.4 61.2,6.4 57.2,9 58.7,13.5 54.7,10.5 
	50.6,13.4 52.2,9 48.1,6.4 53.1,6.4 "/>
<polygon fill="none" stroke="#19C158" stroke-miterlimit="10" points="70.2,1.6 71.7,6.4 76.7,6.4 72.7,9 74.2,13.5 70.2,10.5 
	66.1,13.4 67.7,9 63.6,6.4 68.6,6.4 "/>
<g>
</g>
<g>
</g>
<g>
</g>
<g>
</g>
<g>
</g>
<g>
</g>
<g>
</g>
<g>
</g>
<g>
</g>
<g>
</g>
<g>
</g>
<g>
</g>
<g>
</g>
<g>
</g>
<g>
</g>
</svg>
