<svg width="87" height="67" xmlns="http://www.w3.org/2000/svg" xmlns:xlink="http://www.w3.org/1999/xlink"><defs><path id="a" d="M0 68h86.224V.975H0z"/></defs><g fill="none" fill-rule="evenodd"><path fill="#044DA1" d="M.055 57.1316H85.8V-.0004H.055z"/><path fill="#FFF100" d="M41.106 12.4572l1.828-1.32 1.807 1.32-.711-2.153 1.841-1.306h-2.235l-.702-2.15-.715 2.15h-2.261l1.856 1.306M31.7506 14.9777l1.791-1.325 1.838 1.325-.708-2.15 1.823-1.307h-2.223l-.73-2.183-.691 2.183h-2.275l1.853 1.307M26.7193 16.2375l-.696 2.131h-2.295l1.853 1.34-.678 2.111 1.816-1.3 1.811 1.3-.706-2.111 1.816-1.34h-2.217M24.193 29.8625l1.831 1.341-.716-2.166 1.811-1.316h-2.216l-.71-2.18-.706 2.18h-2.234l1.805 1.316-.686 2.166M27.4234 37.1096l-.704-2.146-.696 2.146h-2.295l1.853 1.29-.678 2.166 1.816-1.325 1.81 1.325-.705-2.166 1.816-1.29M34.2711 43.9621l-.73-2.141-.69 2.141h-2.231l1.808 1.346-.678 2.125 1.791-1.34 1.838 1.34-.708-2.125 1.871-1.346M43.6358 46.4924l-.702-2.21-.715 2.21h-2.261l1.856 1.281-.708 2.156 1.828-1.326 1.807 1.326-.71-2.156 1.84-1.281M52.9444 43.9621l-.65-2.141-.711 2.141h-2.266l1.815 1.346-.654 2.125 1.816-1.34 1.78 1.34-.661-2.125 1.826-1.346M59.8507 37.1096l-.715-2.146-.69 2.146h-2.276l1.871 1.29-.711 2.166 1.806-1.325 1.831 1.325-.696-2.166 1.816-1.29M64.6124 27.6867h-2.301l-.7-2.146-.686 2.146h-2.24l1.806 1.351-.685 2.101 1.805-1.306 1.821 1.306-.691-2.101M57.3297 21.8195l1.806-1.346 1.831 1.346-.696-2.146 1.816-1.305h-2.236l-.715-2.196-.69 2.196h-2.276l1.871 1.305M52.294 9.3381l-.711 2.183h-2.23l1.83 1.306-.705 2.151 1.816-1.326 1.821 1.326-.701-2.151 1.856-1.306h-2.271"/><g transform="translate(0 -.9754)"><path d="M.8204 60.958v3.966c0 1.105.353 2.151 1.635 2.151 1.316 0 1.651-1.046 1.651-2.151v-3.966h.835v4.286c0 1.451-.92 2.606-2.486 2.606-1.528 0-2.455-1.155-2.455-2.606v-4.286M6.0069 60.6377l5.037 5.312v-4.992h.845v7.042l-5.039-5.316v4.986h-.843" fill="#000"/><mask id="b" fill="#fff"><use xlink:href="#a"/></mask><path fill="#000" mask="url(#b)" d="M13.044 67.67h.831v-6.712h-.831zM20.8844 64.3086c0-1.444-1.115-2.686-2.648-2.686-1.596 0-2.721 1.242-2.721 2.686 0 1.541 1.225 2.767 2.721 2.767 1.45 0 2.648-1.226 2.648-2.767m.825 0c0 2.001-1.571 3.541-3.473 3.541-1.963 0-3.557-1.54-3.557-3.541 0-1.905 1.594-3.485 3.557-3.485 1.902 0 3.473 1.58 3.473 3.485M22.4674 60.6377l5.027 5.312v-4.992h.845v7.042l-5.027-5.316v4.986h-.845M32.1207 60.958h3.594v.775h-2.769v1.866h2.701v.81h-2.701v2.511h2.769v.75h-3.594M37.4674 60.958v3.966c0 1.105.343 2.151 1.625 2.151 1.312 0 1.651-1.046 1.651-2.151v-3.966h.84v4.286c0 1.451-.925 2.606-2.491 2.606-1.525 0-2.455-1.155-2.455-2.606v-4.286M43.5811 64.1641h.24c.885 0 1.815-.19 1.815-1.256 0-1.02-1.03-1.204-1.875-1.204h-.18v2.46zm3.311 3.506h-1.021l-1.96-2.796h-.33v2.796h-.897v-6.712h1.042c.59 0 1.255 0 1.755.325.57.34.881.976.881 1.581 0 .989-.581 1.785-1.561 1.92l2.091 2.886zM53.2789 64.3086c0-1.444-1.081-2.686-2.656-2.686-1.591 0-2.711 1.242-2.711 2.686 0 1.541 1.251 2.767 2.711 2.767 1.431 0 2.656-1.226 2.656-2.767m.836 0c0 2.001-1.586 3.541-3.492 3.541-1.955 0-3.546-1.54-3.546-3.541 0-1.905 1.591-3.485 3.546-3.485 1.906 0 3.492 1.58 3.492 3.485M55.7999 64.1289h.22c.885 0 1.831-.155 1.831-1.221 0-1.05-1.036-1.204-1.871-1.204h-.18v2.425zm0 3.541h-.836v-6.712h.921c2.101 0 2.706.746 2.706 1.95 0 1.401-1.081 1.966-2.326 1.966h-.465v2.796zM62.087 59.0078l-1.496 1.295-.37-.22 1.1-1.501.766.426zm-2.751 1.95h3.631v.776h-2.781v1.865h2.701v.81h-2.701v2.511h2.781v.75h-3.631v-6.712zM63.9928 60.958h3.596v.775h-2.761v1.866h2.701v.81h-2.701v2.511h2.761v.75h-3.596M68.5587 60.6377l5.047 5.312v-4.992h.83v7.042l-5.031-5.316v4.986h-.846M75.5567 60.6377l5.016 5.312v-4.992h.856v7.042l-5.027-5.316v4.986h-.845M82.6441 60.958h3.581v.775h-2.751v1.866h2.695v.81h-2.695v2.511h2.751v.75h-3.581"/></g></g></svg>