<svg xmlns="http://www.w3.org/2000/svg" viewBox="0 0 260 50"><defs><style>.cls-1{fill:#1b2e57;}.cls-2{fill:#fff;}</style></defs><title>pe-connect-250x42-b</title><g id="Calque_1_-_copie" data-name="Calque 1 - copie"><rect class="cls-1" x="5" y="3.51" width="250" height="42" rx="21" ry="21"/><path class="cls-2" d="M71.42,21.5a.44.44,0,0,1-.15.19.38.38,0,0,1-.21.05.52.52,0,0,1-.27-.09l-.35-.21a3,3,0,0,0-.48-.21,2,2,0,0,0-.65-.09,1.88,1.88,0,0,0-.58.08,1.22,1.22,0,0,0-.42.23.89.89,0,0,0-.26.34,1.14,1.14,0,0,0-.08.44.76.76,0,0,0,.17.51,1.4,1.4,0,0,0,.45.35,4.24,4.24,0,0,0,.64.26l.74.24a7.13,7.13,0,0,1,.73.3,2.55,2.55,0,0,1,.64.43,2,2,0,0,1,.45.64,2.23,2.23,0,0,1,.17.92,3,3,0,0,1-.2,1.1,2.53,2.53,0,0,1-.59.89,2.76,2.76,0,0,1-.94.6,3.47,3.47,0,0,1-1.28.22,4.08,4.08,0,0,1-.82-.08,4.31,4.31,0,0,1-.77-.23,4.06,4.06,0,0,1-.69-.36,3.42,3.42,0,0,1-.57-.47l.47-.77a.6.6,0,0,1,.16-.14.39.39,0,0,1,.21-.06.58.58,0,0,1,.32.12l.41.27a3.1,3.1,0,0,0,.56.27,2.15,2.15,0,0,0,.77.12A1.58,1.58,0,0,0,70.08,27a1.17,1.17,0,0,0,.38-.94.87.87,0,0,0-.17-.56,1.38,1.38,0,0,0-.45-.36,3.43,3.43,0,0,0-.64-.25l-.73-.22a6.38,6.38,0,0,1-.73-.29,2.38,2.38,0,0,1-.64-.44,2,2,0,0,1-.45-.68,2.57,2.57,0,0,1-.17-1,2.39,2.39,0,0,1,.74-1.72,2.71,2.71,0,0,1,.89-.56,3.24,3.24,0,0,1,1.21-.21,4.05,4.05,0,0,1,1.42.24,3.19,3.19,0,0,1,1.1.67Z"/><path class="cls-2" d="M75.67,22.35a3,3,0,0,1,1.07.19,2.34,2.34,0,0,1,.84.54,2.48,2.48,0,0,1,.55.88,3.29,3.29,0,0,1,.2,1.19,2.19,2.19,0,0,1,0,.28.44.44,0,0,1-.05.17.21.21,0,0,1-.1.09.45.45,0,0,1-.17,0h-3.8a2.11,2.11,0,0,0,.51,1.39,1.59,1.59,0,0,0,1.18.44,2,2,0,0,0,.62-.08,2.94,2.94,0,0,0,.46-.19l.34-.19a.57.57,0,0,1,.29-.08.31.31,0,0,1,.16,0,.34.34,0,0,1,.12.1l.43.54a2.44,2.44,0,0,1-.55.48,3.07,3.07,0,0,1-.64.31,3.48,3.48,0,0,1-.68.17,4.82,4.82,0,0,1-.67,0,3.3,3.3,0,0,1-1.19-.21,2.67,2.67,0,0,1-1-.63,3,3,0,0,1-.64-1,4,4,0,0,1-.23-1.43,3.41,3.41,0,0,1,.2-1.19,2.84,2.84,0,0,1,.58-1,2.76,2.76,0,0,1,.93-.65A3.07,3.07,0,0,1,75.67,22.35Zm0,1.06a1.37,1.37,0,0,0-1,.37,1.81,1.81,0,0,0-.47,1H77a1.85,1.85,0,0,0-.08-.54,1.26,1.26,0,0,0-.24-.45,1.14,1.14,0,0,0-.41-.3A1.4,1.4,0,0,0,75.7,23.41Z"/><path class="cls-2" d="M86.18,23.74a.76.76,0,0,1-.13.13.29.29,0,0,1-.18,0,.41.41,0,0,1-.22-.07l-.26-.16a1.94,1.94,0,0,0-.36-.16,1.64,1.64,0,0,0-.51-.07,1.56,1.56,0,0,0-.68.14,1.3,1.3,0,0,0-.49.4,1.84,1.84,0,0,0-.29.64,3.41,3.41,0,0,0-.1.85,3.32,3.32,0,0,0,.11.88,1.84,1.84,0,0,0,.3.64,1.28,1.28,0,0,0,.48.4,1.45,1.45,0,0,0,.63.13,1.59,1.59,0,0,0,.57-.09,1.77,1.77,0,0,0,.37-.19l.26-.19a.39.39,0,0,1,.25-.09.3.3,0,0,1,.27.14l.43.54a2.68,2.68,0,0,1-.53.48,2.93,2.93,0,0,1-.6.31,3,3,0,0,1-.64.17,4.52,4.52,0,0,1-.65,0,2.74,2.74,0,0,1-1.07-.21,2.5,2.5,0,0,1-.88-.62,3,3,0,0,1-.59-1,3.85,3.85,0,0,1-.22-1.35,3.89,3.89,0,0,1,.2-1.26,2.83,2.83,0,0,1,.57-1,2.64,2.64,0,0,1,.94-.66,3.24,3.24,0,0,1,1.29-.24,3.06,3.06,0,0,1,1.21.22,3,3,0,0,1,.93.64Z"/><path class="cls-2" d="M90.21,22.35a3.37,3.37,0,0,1,1.25.22,2.7,2.7,0,0,1,1,.63,2.79,2.79,0,0,1,.61,1,4.13,4.13,0,0,1,0,2.63,2.86,2.86,0,0,1-.61,1,2.68,2.68,0,0,1-1,.64,3.65,3.65,0,0,1-2.5,0,2.69,2.69,0,0,1-1-.64,2.87,2.87,0,0,1-.62-1,4.08,4.08,0,0,1,0-2.63,2.8,2.8,0,0,1,.62-1,2.72,2.72,0,0,1,1-.63A3.4,3.4,0,0,1,90.21,22.35Zm0,5.2A1.3,1.3,0,0,0,91.34,27a2.59,2.59,0,0,0,.37-1.51A2.62,2.62,0,0,0,91.34,24a1.3,1.3,0,0,0-1.14-.52,1.32,1.32,0,0,0-1.15.53,2.6,2.6,0,0,0-.37,1.51A2.57,2.57,0,0,0,89.05,27,1.32,1.32,0,0,0,90.21,27.55Z"/><path class="cls-2" d="M94.4,28.6V22.44h.91a.37.37,0,0,1,.38.27l.1.49a3.33,3.33,0,0,1,.39-.35,2.81,2.81,0,0,1,.44-.27,2.27,2.27,0,0,1,.5-.17,2.59,2.59,0,0,1,.58-.06,2.21,2.21,0,0,1,.89.17,1.77,1.77,0,0,1,.65.48,2.11,2.11,0,0,1,.4.74,3.14,3.14,0,0,1,.13.94V28.6H98.28V24.68a1.32,1.32,0,0,0-.26-.87,1,1,0,0,0-.78-.31,1.53,1.53,0,0,0-.72.17,2.57,2.57,0,0,0-.64.47V28.6Z"/><path class="cls-2" d="M101.22,28.6V22.44h.91a.36.36,0,0,1,.38.27l.1.49a3.25,3.25,0,0,1,.39-.35,2.73,2.73,0,0,1,.44-.27,2.26,2.26,0,0,1,.5-.17,2.6,2.6,0,0,1,.58-.06,2.21,2.21,0,0,1,.89.17,1.77,1.77,0,0,1,.65.48,2.11,2.11,0,0,1,.4.74,3.14,3.14,0,0,1,.13.94V28.6H105.1V24.68a1.32,1.32,0,0,0-.26-.87,1,1,0,0,0-.78-.31,1.54,1.54,0,0,0-.72.17,2.57,2.57,0,0,0-.64.47V28.6Z"/><path class="cls-2" d="M110.59,22.35a3,3,0,0,1,1.07.19,2.34,2.34,0,0,1,.84.54,2.49,2.49,0,0,1,.55.88,3.31,3.31,0,0,1,.2,1.19,2,2,0,0,1,0,.28.45.45,0,0,1-.05.17.22.22,0,0,1-.11.09.44.44,0,0,1-.17,0h-3.8a2.12,2.12,0,0,0,.51,1.39,1.59,1.59,0,0,0,1.18.44,2.06,2.06,0,0,0,.62-.08,2.93,2.93,0,0,0,.46-.19l.34-.19a.57.57,0,0,1,.29-.08.32.32,0,0,1,.16,0,.34.34,0,0,1,.11.1l.43.54a2.46,2.46,0,0,1-.55.48,3.11,3.11,0,0,1-.64.31,3.52,3.52,0,0,1-.68.17,4.83,4.83,0,0,1-.67,0,3.29,3.29,0,0,1-1.19-.21,2.66,2.66,0,0,1-1-.63,3,3,0,0,1-.64-1,4,4,0,0,1-.23-1.43,3.41,3.41,0,0,1,.2-1.19,2.86,2.86,0,0,1,.59-1,2.75,2.75,0,0,1,.93-.65A3.07,3.07,0,0,1,110.59,22.35Zm0,1.06a1.37,1.37,0,0,0-1,.37,1.81,1.81,0,0,0-.47,1h2.78a1.82,1.82,0,0,0-.08-.54,1.23,1.23,0,0,0-.24-.45,1.14,1.14,0,0,0-.41-.3A1.39,1.39,0,0,0,110.62,23.41Z"/><path class="cls-2" d="M118.78,23.74a.69.69,0,0,1-.13.13.29.29,0,0,1-.18,0,.41.41,0,0,1-.22-.07L118,23.7a1.92,1.92,0,0,0-.36-.16,1.64,1.64,0,0,0-.51-.07,1.56,1.56,0,0,0-.68.14,1.3,1.3,0,0,0-.49.4,1.82,1.82,0,0,0-.29.64,3.41,3.41,0,0,0-.1.85,3.36,3.36,0,0,0,.1.88,1.84,1.84,0,0,0,.3.64,1.28,1.28,0,0,0,.48.4,1.46,1.46,0,0,0,.64.13,1.58,1.58,0,0,0,.57-.09,1.77,1.77,0,0,0,.37-.19l.26-.19a.39.39,0,0,1,.25-.09.3.3,0,0,1,.27.14l.43.54a2.66,2.66,0,0,1-.53.48,2.93,2.93,0,0,1-.6.31,3.06,3.06,0,0,1-.64.17,4.51,4.51,0,0,1-.65,0,2.74,2.74,0,0,1-1.07-.21,2.5,2.5,0,0,1-.88-.62,3,3,0,0,1-.59-1,3.85,3.85,0,0,1-.22-1.35,3.92,3.92,0,0,1,.2-1.26,2.85,2.85,0,0,1,.57-1,2.63,2.63,0,0,1,.94-.66,3.23,3.23,0,0,1,1.28-.24,3.06,3.06,0,0,1,1.21.22,3,3,0,0,1,.93.64Z"/><path class="cls-2" d="M122.2,28.69a1.62,1.62,0,0,1-1.23-.45,1.74,1.74,0,0,1-.43-1.25V23.55h-.62a.29.29,0,0,1-.29-.31v-.59l1-.16.31-1.68a.29.29,0,0,1,.11-.19.35.35,0,0,1,.22-.07H122V22.5h1.62v1.06H122v3.34a.66.66,0,0,0,.14.45.49.49,0,0,0,.38.16.72.72,0,0,0,.23,0l.16-.07.12-.07a.2.2,0,0,1,.11,0,.16.16,0,0,1,.11,0l.09.1.45.72a2.24,2.24,0,0,1-.74.41A2.78,2.78,0,0,1,122.2,28.69Z"/><path class="cls-2" d="M127.37,22.35a3,3,0,0,1,1.07.19,2.34,2.34,0,0,1,.84.54,2.49,2.49,0,0,1,.55.88,3.31,3.31,0,0,1,.2,1.19,2,2,0,0,1,0,.28.45.45,0,0,1-.05.17.22.22,0,0,1-.11.09.44.44,0,0,1-.17,0h-3.8a2.12,2.12,0,0,0,.51,1.39,1.59,1.59,0,0,0,1.18.44,2.06,2.06,0,0,0,.62-.08,2.93,2.93,0,0,0,.46-.19l.34-.19a.57.57,0,0,1,.29-.08.32.32,0,0,1,.16,0,.34.34,0,0,1,.11.1l.43.54a2.46,2.46,0,0,1-.55.48,3.11,3.11,0,0,1-.64.31,3.52,3.52,0,0,1-.68.17,4.83,4.83,0,0,1-.67,0,3.29,3.29,0,0,1-1.19-.21,2.66,2.66,0,0,1-1-.63,3,3,0,0,1-.64-1,4,4,0,0,1-.23-1.43,3.41,3.41,0,0,1,.2-1.19,2.86,2.86,0,0,1,.59-1,2.75,2.75,0,0,1,.93-.65A3.07,3.07,0,0,1,127.37,22.35Zm0,1.06a1.37,1.37,0,0,0-1,.37,1.81,1.81,0,0,0-.47,1h2.78a1.82,1.82,0,0,0-.08-.54,1.23,1.23,0,0,0-.24-.45,1.14,1.14,0,0,0-.41-.3A1.39,1.39,0,0,0,127.4,23.41Z"/><path class="cls-2" d="M131.24,28.6V22.44h.87a.47.47,0,0,1,.32.08.48.48,0,0,1,.12.29l.09.74a2.94,2.94,0,0,1,.77-.9,1.63,1.63,0,0,1,1-.33,1.29,1.29,0,0,1,.76.21L135,23.65a.22.22,0,0,1-.08.15.26.26,0,0,1-.16,0,1,1,0,0,1-.25,0,1.66,1.66,0,0,0-.41,0,1.26,1.26,0,0,0-.79.25,2,2,0,0,0-.56.75V28.6Z"/><path class="cls-2" d="M143.28,28.6h-.67a.72.72,0,0,1-.33-.06.4.4,0,0,1-.18-.25l-.13-.44a5.21,5.21,0,0,1-.46.37,2.81,2.81,0,0,1-.46.27,2.37,2.37,0,0,1-.51.16,3.05,3.05,0,0,1-.6.05,2.36,2.36,0,0,1-.72-.11,1.54,1.54,0,0,1-.57-.32,1.44,1.44,0,0,1-.37-.52,1.87,1.87,0,0,1-.13-.73,1.44,1.44,0,0,1,.18-.69,1.72,1.72,0,0,1,.61-.61,3.89,3.89,0,0,1,1.13-.45,7.25,7.25,0,0,1,1.76-.18v-.36a1.38,1.38,0,0,0-.26-.92,1,1,0,0,0-.76-.3,1.85,1.85,0,0,0-.6.08,2.34,2.34,0,0,0-.42.19l-.33.19a.66.66,0,0,1-.33.08.43.43,0,0,1-.26-.08.61.61,0,0,1-.17-.19l-.27-.47a3.66,3.66,0,0,1,2.56-1,2.47,2.47,0,0,1,1,.18,2.06,2.06,0,0,1,.72.49,2.12,2.12,0,0,1,.45.75,2.88,2.88,0,0,1,.15,1Zm-2.88-.92a1.94,1.94,0,0,0,.42,0,1.55,1.55,0,0,0,.36-.12,1.86,1.86,0,0,0,.33-.2,3,3,0,0,0,.32-.29V26a6,6,0,0,0-1.08.08,2.81,2.81,0,0,0-.7.21.9.9,0,0,0-.37.29.74.74,0,0,0,.12.93A1,1,0,0,0,140.4,27.67Z"/><path class="cls-2" d="M147.61,28.6h-1.34l-2.45-6.16H145a.47.47,0,0,1,.27.08.4.4,0,0,1,.15.2L146.66,26c.07.19.12.38.17.56s.09.37.12.55c0-.18.08-.37.12-.55a5.32,5.32,0,0,1,.18-.56l1.22-3.29a.41.41,0,0,1,.15-.2.43.43,0,0,1,.26-.08H150Z"/><path class="cls-2" d="M153.27,22.35a3,3,0,0,1,1.07.19,2.36,2.36,0,0,1,.84.54,2.47,2.47,0,0,1,.55.88,3.31,3.31,0,0,1,.2,1.19,2,2,0,0,1,0,.28.45.45,0,0,1-.05.17.23.23,0,0,1-.11.09.45.45,0,0,1-.17,0h-3.8a2.13,2.13,0,0,0,.51,1.39,1.59,1.59,0,0,0,1.18.44,2.06,2.06,0,0,0,.62-.08,3,3,0,0,0,.46-.19l.34-.19a.57.57,0,0,1,.29-.08.32.32,0,0,1,.16,0,.34.34,0,0,1,.11.1l.43.54a2.47,2.47,0,0,1-.55.48,3.15,3.15,0,0,1-.64.31,3.5,3.5,0,0,1-.68.17,4.81,4.81,0,0,1-.67,0,3.3,3.3,0,0,1-1.19-.21,2.66,2.66,0,0,1-1-.63,3,3,0,0,1-.64-1,4,4,0,0,1-.23-1.43,3.39,3.39,0,0,1,.2-1.19,2.84,2.84,0,0,1,.58-1,2.75,2.75,0,0,1,.93-.65A3.06,3.06,0,0,1,153.27,22.35Zm0,1.06a1.37,1.37,0,0,0-1,.37,1.81,1.81,0,0,0-.47,1h2.78a1.82,1.82,0,0,0-.08-.54,1.24,1.24,0,0,0-.24-.45,1.13,1.13,0,0,0-.41-.3A1.39,1.39,0,0,0,153.3,23.41Z"/><path class="cls-2" d="M161.47,23.74a.79.79,0,0,1-.13.13.3.3,0,0,1-.18,0,.4.4,0,0,1-.22-.07l-.26-.16a2,2,0,0,0-.36-.16,1.65,1.65,0,0,0-.51-.07,1.56,1.56,0,0,0-.68.14,1.29,1.29,0,0,0-.49.4,1.82,1.82,0,0,0-.29.64,3.41,3.41,0,0,0-.1.85,3.32,3.32,0,0,0,.11.88,1.88,1.88,0,0,0,.3.64,1.3,1.3,0,0,0,.48.4,1.46,1.46,0,0,0,.64.13,1.59,1.59,0,0,0,.57-.09,1.75,1.75,0,0,0,.37-.19l.26-.19a.39.39,0,0,1,.25-.09.3.3,0,0,1,.27.14l.43.54a2.68,2.68,0,0,1-.53.48,2.88,2.88,0,0,1-.6.31,3,3,0,0,1-.64.17,4.5,4.5,0,0,1-.65,0,2.74,2.74,0,0,1-1.07-.21,2.5,2.5,0,0,1-.88-.62,3,3,0,0,1-.59-1,4.2,4.2,0,0,1,0-2.6,2.85,2.85,0,0,1,.57-1,2.63,2.63,0,0,1,.94-.66,3.23,3.23,0,0,1,1.28-.24,3.05,3.05,0,0,1,1.21.22,3,3,0,0,1,.93.64Z"/><path class="cls-2" d="M165.18,30.61V22.44h.91a.44.44,0,0,1,.25.07.31.31,0,0,1,.13.2l.12.57a3.1,3.1,0,0,1,.86-.69,2.32,2.32,0,0,1,1.13-.26,2,2,0,0,1,.92.21,2.08,2.08,0,0,1,.72.61,2.91,2.91,0,0,1,.47,1,5,5,0,0,1,.17,1.34,4.19,4.19,0,0,1-.19,1.28,3.1,3.1,0,0,1-.53,1,2.45,2.45,0,0,1-.83.67,2.42,2.42,0,0,1-1.09.24,2,2,0,0,1-1.54-.6v2.52Zm2.88-7.11a1.51,1.51,0,0,0-.79.2,2.29,2.29,0,0,0-.61.55V27a1.41,1.41,0,0,0,.55.43,1.65,1.65,0,0,0,.64.12,1.43,1.43,0,0,0,.61-.13,1.18,1.18,0,0,0,.46-.38,1.9,1.9,0,0,0,.29-.65,3.71,3.71,0,0,0,.1-.93,4.14,4.14,0,0,0-.09-.92,1.75,1.75,0,0,0-.25-.61,1,1,0,0,0-.39-.34A1.23,1.23,0,0,0,168.06,23.5Z"/><path class="cls-2" d="M174.59,22.35a3.37,3.37,0,0,1,1.25.22,2.7,2.7,0,0,1,1,.63,2.79,2.79,0,0,1,.61,1,4.13,4.13,0,0,1,0,2.63,2.86,2.86,0,0,1-.61,1,2.68,2.68,0,0,1-1,.64,3.65,3.65,0,0,1-2.5,0,2.69,2.69,0,0,1-1-.64,2.87,2.87,0,0,1-.62-1,4.08,4.08,0,0,1,0-2.63,2.8,2.8,0,0,1,.62-1,2.72,2.72,0,0,1,1-.63A3.4,3.4,0,0,1,174.59,22.35Zm2.08-.76h-1a.42.42,0,0,1-.3-.11l-.63-.57-.06-.06-.06-.07-.06.07-.06.06-.64.57a.43.43,0,0,1-.13.08.45.45,0,0,1-.17,0h-1l1.38-1.67h1.39Zm-2.08,6a1.3,1.3,0,0,0,1.14-.52,2.59,2.59,0,0,0,.37-1.51,2.62,2.62,0,0,0-.37-1.52,1.3,1.3,0,0,0-1.14-.52,1.32,1.32,0,0,0-1.15.53,2.6,2.6,0,0,0-.37,1.51,2.57,2.57,0,0,0,.37,1.51A1.32,1.32,0,0,0,174.59,27.55Z"/><path class="cls-2" d="M180.37,19.68V28.6h-1.48V19.68Z"/><path class="cls-2" d="M184.58,22.35a3,3,0,0,1,1.07.19,2.35,2.35,0,0,1,.84.54A2.47,2.47,0,0,1,187,24a3.31,3.31,0,0,1,.2,1.19,2.19,2.19,0,0,1,0,.28.45.45,0,0,1-.05.17.21.21,0,0,1-.1.09.45.45,0,0,1-.17,0h-3.8a2.13,2.13,0,0,0,.51,1.39,1.59,1.59,0,0,0,1.18.44,2,2,0,0,0,.62-.08,2.94,2.94,0,0,0,.46-.19l.34-.19a.57.57,0,0,1,.29-.08.32.32,0,0,1,.16,0,.33.33,0,0,1,.11.1l.43.54a2.46,2.46,0,0,1-.55.48,3.09,3.09,0,0,1-.64.31,3.5,3.5,0,0,1-.68.17,4.82,4.82,0,0,1-.67,0,3.3,3.3,0,0,1-1.19-.21,2.67,2.67,0,0,1-1-.63,3,3,0,0,1-.64-1,4,4,0,0,1-.23-1.43,3.41,3.41,0,0,1,.2-1.19,2.84,2.84,0,0,1,.58-1,2.76,2.76,0,0,1,.93-.65A3.07,3.07,0,0,1,184.58,22.35Zm0,1.06a1.37,1.37,0,0,0-1,.37,1.81,1.81,0,0,0-.47,1h2.78a1.85,1.85,0,0,0-.08-.54,1.24,1.24,0,0,0-.24-.45,1.13,1.13,0,0,0-.41-.3A1.4,1.4,0,0,0,184.61,23.41Z"/><path class="cls-2" d="M193.31,22.35a3,3,0,0,1,1.07.19,2.35,2.35,0,0,1,.84.54,2.47,2.47,0,0,1,.55.88,3.31,3.31,0,0,1,.2,1.19,2.19,2.19,0,0,1,0,.28.45.45,0,0,1-.05.17.21.21,0,0,1-.1.09.45.45,0,0,1-.17,0h-3.8a2.13,2.13,0,0,0,.51,1.39,1.59,1.59,0,0,0,1.18.44,2,2,0,0,0,.62-.08,2.94,2.94,0,0,0,.46-.19l.34-.19a.57.57,0,0,1,.29-.08.32.32,0,0,1,.16,0,.33.33,0,0,1,.11.1l.43.54a2.46,2.46,0,0,1-.55.48,3.09,3.09,0,0,1-.64.31,3.5,3.5,0,0,1-.68.17,4.82,4.82,0,0,1-.67,0,3.3,3.3,0,0,1-1.19-.21,2.67,2.67,0,0,1-1-.63,3,3,0,0,1-.64-1,4,4,0,0,1-.23-1.43,3.41,3.41,0,0,1,.2-1.19,2.84,2.84,0,0,1,.58-1,2.76,2.76,0,0,1,.93-.65A3.07,3.07,0,0,1,193.31,22.35Zm0,1.06a1.37,1.37,0,0,0-1,.37,1.81,1.81,0,0,0-.47,1h2.78a1.85,1.85,0,0,0-.08-.54,1.24,1.24,0,0,0-.24-.45,1.13,1.13,0,0,0-.41-.3A1.4,1.4,0,0,0,193.34,23.41Z"/><path class="cls-2" d="M197.18,28.6V22.44h.91a.36.36,0,0,1,.38.27l.1.46a3.52,3.52,0,0,1,.34-.33,2.2,2.2,0,0,1,.38-.26,2.07,2.07,0,0,1,.43-.17,1.92,1.92,0,0,1,.51-.06,1.44,1.44,0,0,1,1,.31,1.89,1.89,0,0,1,.56.84,1.88,1.88,0,0,1,.36-.52,2,2,0,0,1,.47-.36,2.19,2.19,0,0,1,.55-.2,2.65,2.65,0,0,1,.59-.07,2.45,2.45,0,0,1,.91.16,1.74,1.74,0,0,1,.67.46,2,2,0,0,1,.41.73,3.2,3.2,0,0,1,.14,1V28.6h-1.48V24.68a1.32,1.32,0,0,0-.26-.89,1,1,0,0,0-.76-.3,1.14,1.14,0,0,0-.42.08,1,1,0,0,0-.34.23,1,1,0,0,0-.23.37,1.42,1.42,0,0,0-.08.51V28.6h-1.49V24.68a1.34,1.34,0,0,0-.25-.9.93.93,0,0,0-.74-.28,1.18,1.18,0,0,0-.6.16,2,2,0,0,0-.52.44V28.6Z"/><path class="cls-2" d="M207.29,30.61V22.44h.91a.45.45,0,0,1,.25.07.31.31,0,0,1,.13.2l.12.57a3.09,3.09,0,0,1,.85-.69,2.32,2.32,0,0,1,1.13-.26,2,2,0,0,1,.92.21,2.07,2.07,0,0,1,.72.61,2.93,2.93,0,0,1,.47,1,4.93,4.93,0,0,1,.17,1.34,4.22,4.22,0,0,1-.19,1.28,3.14,3.14,0,0,1-.53,1,2.46,2.46,0,0,1-.83.67,2.43,2.43,0,0,1-1.1.24,2.19,2.19,0,0,1-.88-.16,2.15,2.15,0,0,1-.65-.44v2.52Zm2.88-7.11a1.51,1.51,0,0,0-.79.2,2.28,2.28,0,0,0-.61.55V27a1.41,1.41,0,0,0,.55.43,1.65,1.65,0,0,0,.64.12,1.44,1.44,0,0,0,.61-.13A1.18,1.18,0,0,0,211,27a1.9,1.9,0,0,0,.29-.65,3.75,3.75,0,0,0,.1-.93,4.14,4.14,0,0,0-.09-.92,1.75,1.75,0,0,0-.25-.61,1,1,0,0,0-.39-.34A1.23,1.23,0,0,0,210.17,23.5Z"/><path class="cls-2" d="M215.65,19.68V28.6h-1.48V19.68Z"/><path class="cls-2" d="M220,22.35a3.37,3.37,0,0,1,1.25.22,2.69,2.69,0,0,1,1,.63,2.8,2.8,0,0,1,.61,1,4.13,4.13,0,0,1,0,2.63,2.87,2.87,0,0,1-.61,1,2.67,2.67,0,0,1-1,.64,3.65,3.65,0,0,1-2.5,0,2.69,2.69,0,0,1-1-.64,2.87,2.87,0,0,1-.62-1,4.08,4.08,0,0,1,0-2.63,2.8,2.8,0,0,1,.62-1,2.72,2.72,0,0,1,1-.63A3.4,3.4,0,0,1,220,22.35Zm0,5.2a1.3,1.3,0,0,0,1.14-.52,2.59,2.59,0,0,0,.37-1.51,2.62,2.62,0,0,0-.37-1.52,1.3,1.3,0,0,0-1.14-.52,1.32,1.32,0,0,0-1.15.53,2.6,2.6,0,0,0-.37,1.51A2.57,2.57,0,0,0,218.8,27,1.32,1.32,0,0,0,220,27.55Z"/><path class="cls-2" d="M225.95,20.65a.83.83,0,0,1-.08.36,1,1,0,0,1-.51.49.93.93,0,0,1-.37.08.89.89,0,0,1-.36-.08.95.95,0,0,1-.5-.49.86.86,0,0,1-.08-.36.91.91,0,0,1,.08-.37,1,1,0,0,1,.2-.3,1,1,0,0,1,.3-.2.9.9,0,0,1,.36-.07.93.93,0,0,1,.37.07,1,1,0,0,1,.3.2,1,1,0,0,1,.21.3A.89.89,0,0,1,225.95,20.65Zm-.22,1.79V28.6h-1.48V22.44Z"/><path class="cls-2" d="M38.12,31.65a9.81,9.81,0,0,1-2.56-7.16,12,12,0,0,1,.64-4A8.65,8.65,0,0,1,38,17.42a8,8,0,0,1,3-2,10.76,10.76,0,0,1,3.95-.69,10.06,10.06,0,0,1,3.7.64,14.75,14.75,0,1,0-.19,18.49,11.55,11.55,0,0,1-3.15.4A9.56,9.56,0,0,1,38.12,31.65Z"/><path class="cls-2" d="M40.62,23.23H49a.54.54,0,0,0,.56-.51A6.14,6.14,0,0,0,48.11,19a4.37,4.37,0,0,0-3.33-1.35A4.24,4.24,0,0,0,41.55,19a6.45,6.45,0,0,0-1.48,3.71C40,23,40.32,23.22,40.62,23.23Z"/><path class="cls-2" d="M50,25.45H40.6A.53.53,0,0,0,40,26a6.7,6.7,0,0,0,.7,2.83,4.83,4.83,0,0,0,4.42,2.74,6.23,6.23,0,0,0,1.7-.22,5.58,5.58,0,0,0,1.5-.69,11,11,0,0,0,1.3-1c.39-.34,1.15-1.05,1.41-1.29a1.17,1.17,0,0,1,.27-.18,14.73,14.73,0,0,0,.45-3A8.79,8.79,0,0,1,50,25.45Z"/><path class="cls-2" d="M48.82,33.77c1.86-.65,3.94-2.5,4.3-4.25.23-1.14-.47-1.39-.84-1.44h-.23a1.59,1.59,0,0,0-.72.16,14.7,14.7,0,0,1-2.88,5.64Z"/><path class="cls-2" d="M51.79,25.28a4.2,4.2,0,0,0,1.05-.35c.58-.3.91-1,.91-2.16a8,8,0,0,0-1-3.81,8.1,8.1,0,0,0-4.11-3.58,14.68,14.68,0,0,1,3.17,9.12Q51.81,24.9,51.79,25.28Z"/><path class="cls-1" d="M49.66,29.7a11,11,0,0,1-1.3,1,5.58,5.58,0,0,1-1.5.69,6.23,6.23,0,0,1-1.7.22,4.83,4.83,0,0,1-4.42-2.74A6.7,6.7,0,0,1,40,26a.53.53,0,0,1,.56-.56H50a8.79,8.79,0,0,0,1.82-.17q0-.38,0-.77a14.68,14.68,0,0,0-3.17-9.12,10.06,10.06,0,0,0-3.7-.64,10.76,10.76,0,0,0-3.95.69,8,8,0,0,0-3,2,8.65,8.65,0,0,0-1.84,3.11,12,12,0,0,0-.64,4,9.81,9.81,0,0,0,2.56,7.16,9.56,9.56,0,0,0,7.19,2.63,11.55,11.55,0,0,0,3.15-.4,14.7,14.7,0,0,0,2.88-5.64,1.17,1.17,0,0,0-.27.18C50.8,28.65,50,29.36,49.66,29.7Zm-9.59-7A6.45,6.45,0,0,1,41.55,19a4.24,4.24,0,0,1,3.24-1.37A4.37,4.37,0,0,1,48.11,19a6.14,6.14,0,0,1,1.42,3.76.54.54,0,0,1-.56.51H40.62C40.32,23.22,40,23,40.06,22.68Z"/></g></svg>