<svg width="121" height="64" xmlns="http://www.w3.org/2000/svg" xmlns:xlink="http://www.w3.org/1999/xlink"><defs><path id="a" d="M1 .7h1.7v3.2H.9z"/></defs><g fill="none" fill-rule="evenodd"><path d="M50.1 37.6c-3 7-10.4 12.1-19 12.1-8 0-14.8-4.2-18.2-10.4v24h107.8V37.6H50zM14.8 16.8c.5 1.8-.9 3.6-3.1 4.8-.3 0-.4-.2-.3-.4 1-.6 1.7-2 1.5-3-.1-.4-.1-.3-.6-.4-.5-.1-.8-.6-.9-1-.2-.8.3-1.6 1-1.8.9-.2 2 .3 2.4 1.8M4.7 38.3c-2.3 0-3.7-.6-4.7-1.2l1-2c.7.5 2 1.2 3.8 1.2 2 0 3.3-.8 3.3-2.3C8.1 30 1 31.5 1 26c0-2.4 1.6-4.3 5.2-4.3 1.7 0 3 .4 4 .9v2.1c-1.2-.5-2.3-.9-3.9-.9s-3 .6-3 2c0 3.5 7.4 2.6 7.4 7.8 0 3.3-2.8 4.7-6 4.7" fill="#044DA1"/><path d="M69 45.9c-4.7 0-7.4-2.1-7.4-4.7 0-1.8 1.2-3 3-4-.8-.4-1-1.2-1-1.9 0-.8.5-2 1.7-3a5.5 5.5 0 0 1-2.5-4.8c0-3.3 2.6-5.8 5.8-5.8 1.2 0 2 .2 2.8.6.2.1.3 0 .4 0 .8-.8 2.4-1.5 4.4-1.2l-.7 2.3c-.8-.3-1.6-.3-2.3 0 1.2 1 1.8 2.5 1.8 4.1 0 3.4-2.5 5.8-6.2 5.8-.7 0-1.4 0-2-.3-.5.6-.8 1-.8 1.9 0 2.2 11-.1 11 5.9 0 2.6-2.4 5-8 5M66.6 38c-1 .5-2.3 1.4-2.3 2.9 0 1.7 2 3 5 3 3.2 0 5-1.2 5-2.9 0-2.9-5.7-2.5-7.7-3m2.4-14.1c-2.2 0-3.6 1.4-3.6 3.6s1.4 3.8 3.6 3.8c2 0 3.6-1.4 3.6-3.8 0-2.2-1.5-3.6-3.6-3.6m18.3 14l-.7-1.5c-1 1-2.5 2-4.8 2a4.7 4.7 0 0 1-4.8-5c0-3 2.1-5 6.3-5l3.2-.2v-.7c0-2.7-1.4-3.6-3.4-3.6s-3.3.8-4.1 1.4l-1-1.7c1.9-1.4 3.5-1.9 5.5-1.9 3 0 5.5 1.4 5.5 5.4v4.8c0 4.5 0 5.6.3 6h-2zm-.8-7.5h-3.1c-2.9.2-4 1.2-4 2.9 0 1.6 1 2.9 3 2.9 2.1 0 3.4-1 4.1-1.8v-4zM98 45.9c-4.8 0-7.4-2.1-7.4-4.7 0-1.8 1.1-3 3-4-.9-.4-1.1-1.2-1.1-1.9 0-.8.5-2 1.8-3a5.5 5.5 0 0 1-2.6-4.8c0-3.3 2.6-5.8 5.8-5.8 1.2 0 2 .2 2.8.6.2.1.3 0 .4 0 .8-.8 2.4-1.5 4.4-1.2l-.7 2.3c-.8-.3-1.6-.3-2.3 0 1.2 1 1.8 2.5 1.8 4.1 0 3.4-2.5 5.8-6.2 5.8-.7 0-1.4 0-2-.3-.4.6-.8 1-.8 1.9 0 2.2 11-.1 11 5.9 0 2.6-2.4 5-7.9 5M95.3 38c-.9.5-2.3 1.4-2.3 2.9 0 1.7 2 3 5 3 3.2 0 5-1.2 5-2.9 0-2.9-5.7-2.5-7.7-3m2.4-14.1c-2.1 0-3.6 1.4-3.6 3.6s1.5 3.8 3.6 3.8c2 0 3.6-1.4 3.6-3.8 0-2.2-1.5-3.6-3.6-3.6m11.5 6.5c0 3 1.7 5.7 5.2 5.7 1.4 0 2.9-.5 3.8-1l.7 1.6a8.4 8.4 0 0 1-5 1.6c-4.9 0-7.3-4-7.3-8.6s2.6-8 6.4-8c4 0 6.3 3.3 6.3 8.2v.5h-10zm3.8-6.6c-2.3 0-3.8 2-3.8 4.6h7.5c0-2.2-1.3-4.6-3.7-4.6zm-55.2 14v-9.7c0-2-.4-4.2-2.8-4.2-2 0-3.6 1.4-4.9 2.5v11.2h-2.4V22h2L50 24c1.9-1.4 3.5-2.3 5.7-2.3s4.5 1.6 4.5 5.6v10.6h-2.4z" fill="#044DA1"/><g transform="translate(70 .3)"><mask id="b" fill="#fff"><use xlink:href="#a"/></mask><path d="M2.6 1.6c.2.9-.4 1.8-1.5 2.3C1 4 .9 4 1 3.8c.5-.4.8-1 .7-1.5 0-.2 0-.1-.3-.3-.2 0-.4-.2-.4-.5-.1-.3 0-.7.5-.8.4-.1 1 .1 1.1.9" fill="#044DA1" mask="url(#b)"/></g><path d="M69.2 14.8c-1 0-1.4-.7-1.4-1.5V2.5H69v10.3c0 .7.1.9.6.9h.4l.2.8-1 .3m5.3-.2V3.4h5.6l-.5 1.1h-3.8v3.8h3.8v1.2h-3.8v4h4.3v1.1zm13.1 0l-.4-.8c-.6.5-1.5 1-2.5 1-1.2 0-2.5-.5-2.5-2.8V6.6h1.2v5.3c0 1.3.6 1.8 1.6 1.8s1.8-.6 2.2-1V6.5h1.2v4.6c0 2.6 0 3.1.2 3.4h-1zm7-6.8l-.8-.1c-.5 0-1.2.4-1.7 1v6h-1.3V6.5h1l.2.8c1.1-1 1.7-1 2.3-1l.8.2-.5 1.2zm7.2 6c-.7.6-1.6 1-2.6 1s-1.9-.3-2.5-1a4.6 4.6 0 0 1-1.1-3.2c0-1.4.4-2.5 1-3.2.7-.7 1.6-1 2.6-1s2 .3 2.6 1c.7.7 1.1 1.8 1.1 3.2 0 1.3-.4 2.4-1.1 3.2m-2.6-6.4c-1.5 0-2.4 1.2-2.4 3.1 0 2 1 3.2 2.4 3.2 1.6 0 2.5-1.2 2.5-3.2 0-1.9-1-3.1-2.5-3.1m8.1 7.4c-.6 0-1-.1-1.3-.3v4.2h-1.3V6.9c.6-.2 1.5-.6 2.7-.6 2.4 0 4 1.6 4 4.2 0 2.8-2 4.3-4 4.3m0-7.4c-.6 0-1 .2-1.4.3v5.7c.4.2.7.3 1.3.3 1.7 0 2.8-1.2 2.8-3.2 0-2.1-1.3-3-2.7-3m6.7 3.3c0 1.6.9 2.9 2.7 2.9.6 0 1.4-.3 1.9-.6l.4.9c-.6.5-1.7.8-2.6.8-2.5 0-3.8-2-3.8-4.4 0-2.3 1.4-4 3.3-4 2.1 0 3.3 1.6 3.3 4.1v.3h-5.2zm2-3.4c-1.2 0-2 1-2 2.3h3.8c0-1-.6-2.3-1.8-2.3z" fill="#044DA1"/><path d="M63.5 56.8c0 1.6.9 3 2.7 3 .7 0 1.4-.3 1.9-.6l.4.8a4 4 0 0 1-2.6.9c-2.5 0-3.7-2.1-3.7-4.4 0-2.3 1.3-4.1 3.2-4.1 2.1 0 3.3 1.7 3.3 4.2v.2h-5.2zm2-3.4c-1.2 0-2 1.1-2 2.4h3.8c0-1.1-.6-2.4-1.8-2.4zm9 7.3v-5c0-1-.1-2-1.4-2-1 0-1.9.6-2.5 1.1v5.9h-1.2v-8h1l.2.9c1-.7 1.7-1.2 2.8-1.2 1.2 0 2.4.8 2.4 2.9v5.4h-1.3zM86 50.6h-3.8v3.8h3.7v1.2h-3.7v5.1h-1.3V49.4h5.6zm4.8 3.2H90c-.5 0-1.3.3-1.8.9v6H87v-8h1l.2.9c1.1-1.1 1.7-1.2 2.3-1.2.3 0 .7.2.8.3l-.5 1.1zm5.7 6.9l-.3-.8c-.5.5-1.3 1-2.5 1-1.3 0-2.5-1-2.5-2.5 0-1.6 1.1-2.6 3.2-2.7h1.7v-.4c0-1.4-.7-1.8-1.7-1.8s-1.8.4-2.2.7l-.5-.9c1-.7 1.9-1 2.9-1 1.5 0 2.7.8 2.7 2.8v2.5c0 2.3.1 2.8.2 3.1h-1zm-.4-4l-1.6.1c-1.5.1-2 .6-2 1.5 0 .8.5 1.5 1.5 1.5s1.7-.5 2.1-1v-2zm7.8 4v-5c0-1-.1-2-1.4-2-1 0-1.8.6-2.5 1.1v5.9h-1.3v-8h1l.2.9c1-.7 1.8-1.2 3-1.2 1.1 0 2.3.8 2.3 2.9v5.4h-1.3zm5.7.2c-2.5 0-3.8-2-3.8-4.2s1.3-4.3 4-4.3c.8 0 1.6.2 2.1.5v1.2c-.5-.3-1.2-.6-2-.6-1.8 0-2.8 1.3-2.8 3.2 0 1.8 1 3.1 2.7 3.1.9 0 1.5-.3 2-.6l.4.9c-.6.4-1.5.8-2.6.8m4.4-4c0 1.5 1 2.9 2.7 2.9.7 0 1.4-.3 2-.6l.3.8a4 4 0 0 1-2.6.9c-2.5 0-3.7-2.1-3.7-4.4 0-2.3 1.3-4.1 3.3-4.1 2 0 3.2 1.7 3.2 4.2v.2H114zm2-3.5c-1.2 0-2 1.1-2 2.4h3.9c0-1.1-.7-2.4-2-2.4zM61.6 41.2c0 2.6 2.7 4.7 7.5 4.7 5.5 0 7.8-2.5 7.8-5.1 0-1.6-.7-2.6-1.8-3.2h-11c-1.5.9-2.5 2-2.5 3.6m4.9-3.2c2 .5 7.7.1 7.7 3 0 1.7-1.8 2.8-5 2.8-3 0-5-1.2-5-3 0-1.4 1.4-2.3 2.3-2.8m24 3.2c0 2.6 2.6 4.7 7.4 4.7 5.5 0 7.9-2.5 7.9-5.1 0-1.6-.8-2.6-1.9-3.2H93c-1.5.9-2.4 2-2.4 3.6m4.8-3.2c2 .5 7.7.1 7.7 3 0 1.7-1.8 2.8-5 2.8-3 0-5-1.2-5-3 0-1.4 1.4-2.3 2.3-2.8" fill="#FEFEFE"/><path d="M39.3 13.1A18.6 18.6 0 0 0 13 29.3V31l.1 1.3v.3a20.9 20.9 0 0 0 1.6 5.5c.5 1 1 2 1.6 2.8v.1l1.3 1.6c4.6 5.3 12 7.8 19.2 5.8 4.2-1.2 9.7-4.2 13.3-10.7h-2.4A16.6 16.6 0 0 1 36.4 46c-5.8 1.3-12.2-2.7-15.6-8s8.4-2.6 12.4-4.8c5.4-3 12.4-10.7 11.5-16.3-1.4-1.4-2.3-2.3-5.4-3.8" fill="#044DA1"/><path fill="#FFF100" d="M37.4 22.4l2.7-2.1 2.8 2-1-3.2 2.8-2h-3.5l-1-3.4L39 17h-3.5l2.8 2zM15 38l2.8-2 2.8 2-1.1-3.2 2.8-2.1H19l-1.1-3.3-1 3.3h-3.6l2.9 2z"/><path fill="#FFF100" d="M20.6 32l6.3-4.5 6.2 4.6-2.4-7.3 6.3-4.6h-7.8L27 12.8l-2.4 7.4h-7.8l6.3 4.6z"/></g></svg>