<?xml version="1.0" encoding="utf-8"?>
<!-- Generator: Adobe Illustrator 16.0.0, SVG Export Plug-In . SVG Version: 6.00 Build 0)  -->
<!DOCTYPE svg PUBLIC "-//W3C//DTD SVG 1.1//EN" "http://www.w3.org/Graphics/SVG/1.1/DTD/svg11.dtd">
<svg version="1.1" id="Calque_2" xmlns="http://www.w3.org/2000/svg" xmlns:xlink="http://www.w3.org/1999/xlink" x="0px" y="0px"
	 width="130px" height="104px" viewBox="0 0 130 104" enable-background="new 0 0 130 104" xml:space="preserve">
<g>
	<path fill="#7C408B" d="M2.2,0.5H0.7C0.3,0.5,0,0.8,0,1.2v23.7c0,0.4,0.3,0.7,0.7,0.7h1.5c0.4,0,0.7-0.3,0.7-0.7V1.2
		C3,0.8,2.7,0.5,2.2,0.5"/>
	<path fill="#7C408B" d="M23,21.5v-7.6c0-4.3-2.4-6.6-6.8-6.6c-2.1,0-4.3,0.5-5.8,0.9C10.2,8.3,10,8.3,10,8.6C9.9,8.7,9.9,9,9.9,9.2
		l0.4,1.4c0.1,0.2,0.1,0.4,0.4,0.4c0.1,0.1,0.4,0.1,0.6,0.1c1.3-0.4,3.3-0.9,5-0.9c2.7,0,4,1.3,4,4.1v0.6h-2.6C14,15,9,15.7,9,20.6
		c0,3.4,2.2,5.5,5.9,5.5c2.2,0,3.8-0.7,5.4-2.2l0.2,1.2c0.1,0.4,0.4,0.6,0.7,0.6h1.7l0,0c0.4,0,0.7-0.3,0.7-0.7c0-0.1,0-0.2-0.1-0.3
		C23.3,24,23,22.3,23,21.5 M20,18.2c0,3.2-1.8,5.1-5.1,5.1c-1.4,0-3-0.4-3-2.6c0-2,0.9-2.9,5.9-3l2.2-0.1V18.2z"/>
	<path fill="#7C408B" d="M7.7,84.7c-1.4,0-2.5,0.3-3.5,0.8C3.8,85.7,3.3,86,3,86.4C3,85.8,3,85.2,3,84.6v-6
		C3,78.2,2.7,77.9,2.3,77.9H0.7C0.3,77.9,0,78.2,0,78.6v23.7c0,0.4,0.3,0.7,0.7,0.7h1c0.4,0,0.7-0.3,0.7-0.6l0.1-1.101
		c0.4,0.4,1,0.9,1.6,1.2c1.1,0.5,2.2,0.8,3.5,0.8c2.5,0,4.4-0.899,5.8-2.5c1.4-1.6,2-3.899,2-6.899s-0.7-5.301-2-6.9
		C12.3,85.5,10.3,84.7,7.7,84.7 M11.2,99c-0.8,1.1-2,1.6-3.5,1.6c-1.7,0-2.8-0.399-3.5-1.399C3.4,98.3,3,96.6,3,94.3V94
		c0-2.4,0.4-4.1,1.2-5.1c0.7-0.9,1.9-1.4,3.6-1.4c2,0,4.7,0.7,4.7,6.4C12.4,96.2,12,97.8,11.2,99"/>
	<path fill="#7C408B" d="M29,84.7c-2.5,0-4.5,0.899-6,2.5c-1.4,1.7-2.2,3.899-2.2,6.8c0,1.8,0.3,3.5,0.9,4.8
		c0.7,1.4,1.6,2.5,2.8,3.3c1.2,0.801,2.7,1.2,4.3,1.2c2.5,0,4.6-0.899,6-2.5C36.2,99.2,37,96.9,37,94c0-2.8-0.7-5.1-2.1-6.7
		C33.5,85.5,31.5,84.7,29,84.7 M32.6,98.9c-0.9,1.1-2.1,1.699-3.7,1.699c-1.6,0-2.8-0.5-3.7-1.699c-0.9-1.2-1.4-2.7-1.4-4.9
		c0-2.1,0.4-3.8,1.3-4.9c0.9-1.1,2.1-1.6,3.7-1.6s2.8,0.5,3.7,1.6c0.9,1.101,1.4,2.7,1.4,4.801C34,96.1,33.6,97.8,32.6,98.9"/>
	<path fill="#7C408B" d="M62.5,100.4c-0.7,0.1-1.399,0.199-2.3,0.199c-0.7,0-1.2-0.199-1.5-0.699c-0.4-0.5-0.5-1.301-0.5-2.4v-9.8h4
		c0.4,0,0.7-0.3,0.7-0.7v-1.3c0-0.4-0.3-0.7-0.7-0.7H58v-3.3c0-0.4-0.3-0.7-0.7-0.7h-0.8c-0.399,0-0.6,0.2-0.7,0.6L55.101,85l-2,0.6
		c-0.301,0.101-0.5,0.4-0.5,0.7v0.9c0,0.399,0.3,0.7,0.699,0.7H55v10c0,1.899,0.4,3.3,1.2,4.199c0.9,0.9,2.1,1.4,3.8,1.4
		c1,0,2-0.1,2.7-0.4c0.3-0.1,0.5-0.399,0.5-0.699V101c0-0.2-0.1-0.4-0.3-0.6C62.8,100.3,62.7,100.3,62.5,100.4"/>
	<path fill="#7C408B" d="M45.6,85h-1.5c-0.4,0-0.7,0.3-0.7,0.7v16.6c0,0.4,0.3,0.7,0.7,0.7h1.5c0.4,0,0.7-0.3,0.7-0.7V85.8
		C46.3,85.3,46,85,45.6,85"/>
	<path fill="#7C408B" d="M44.8,78.4c-1.1,0-2,0.899-2,2c0,1.1,0.9,2,2,2c1.2,0,2-0.9,2-2C46.8,79.3,45.9,78.4,44.8,78.4"/>
	<path fill="#7C408B" d="M82.7,94.9v-1.2c0-5.7-2.6-9-7.2-9c-5,0-8,3.8-8,10.1c0,5.101,3.5,8.601,8.5,8.601
		c1.9,0,3.9-0.101,6.101-1.4c0.3-0.1,0.399-0.6,0.3-0.9L81.9,99.9c-0.101-0.2-0.2-0.4-0.4-0.4c-0.2-0.1-0.399-0.1-0.6,0.1
		c-1.4,0.801-3.101,1.2-4.601,1.2s-5.1-0.5-5.6-5.1H82C82.5,95.7,82.7,95.3,82.7,94.9 M70.8,92.8C71,89.5,72.9,87.4,75.601,87.4
		c0.899,0,3.8,0,4.1,5.399H70.8z"/>
	<path fill="#7C408B" d="M7.7,45.8c-1.4,0-2.5,0.3-3.5,0.8c-0.4,0.2-0.9,0.5-1.2,0.9c0-0.6,0-1.2,0-1.8v-5.9c0-0.4-0.3-0.7-0.7-0.7
		H0.7c-0.4,0-0.7,0.3-0.7,0.7v23.7c0,0.4,0.3,0.7,0.7,0.7h1c0.4,0,0.7-0.3,0.7-0.601l0.1-1.1c0.4,0.4,1,0.9,1.6,1.2
		c1,0.5,2.2,0.8,3.5,0.8c2.5,0,4.4-0.9,5.8-2.5c1.4-1.6,2-3.9,2-6.9c0-3-0.7-5.3-2-6.899C12.3,46.6,10.3,45.8,7.7,45.8 M11.2,60.1
		C10.4,61.2,9.2,61.7,7.7,61.7c-1.7,0-2.8-0.4-3.5-1.4C3.4,59.4,3,57.7,3,55.4V55.1C3,52.7,3.4,51,4.2,50c0.7-0.9,1.9-1.4,3.6-1.4
		c2,0,4.7,0.7,4.7,6.4C12.4,57.3,12,58.9,11.2,60.1"/>
	<path fill="#7C408B" d="M52.2,45.8c-2.3,0-4.1,0.6-5.4,1.7l-0.1-0.7c0-0.5-0.3-0.8-0.6-0.8h-1.3c-0.4,0-0.7,0.3-0.7,0.7v16.6
		c0,0.4,0.3,0.7,0.7,0.7h1.5c0.4,0,0.7-0.3,0.7-0.7v-9.1c0-2,0.4-3.5,1.2-4.4c0.8-0.9,2.1-1.3,3.8-1.3c1.2,0,2.2,0.3,2.7,0.9
		c0.6,0.7,0.9,1.7,0.9,3.2v10.7c0,0.4,0.3,0.7,0.699,0.7h1.4c0.4,0,0.7-0.3,0.7-0.7V52.6C58.601,48.1,56.4,45.8,52.2,45.8"/>
	<path fill="#7C408B" d="M73.8,45.8c-2.3,0-4,0.6-5.399,1.7L68.3,46.8c0-0.5-0.199-0.8-0.6-0.8h-1.3c-0.4,0-0.7,0.3-0.7,0.7v16.6
		c0,0.4,0.3,0.7,0.7,0.7h1.5c0.399,0,0.7-0.3,0.7-0.7v-9.1c0-2,0.399-3.5,1.199-4.4c0.801-0.9,2.101-1.3,3.801-1.3
		c1.199,0,2.199,0.3,2.699,0.9c0.601,0.7,0.9,1.7,0.9,3.2v10.7c0,0.4,0.3,0.7,0.7,0.7h1.5c0.399,0,0.7-0.3,0.7-0.7V52.6
		C80.3,48.1,78,45.8,73.8,45.8"/>
	<path fill="#7C408B" d="M94.3,45.8c-5,0-8,3.8-8,10.101c0,5.1,3.5,8.6,8.5,8.6c1.9,0,3.9-0.1,6.101-1.4
		c0.3-0.1,0.399-0.6,0.3-0.899l-0.5-1.2c-0.1-0.2-0.2-0.4-0.4-0.4c-0.199-0.1-0.399-0.1-0.6,0.101c-1.4,0.8-3.1,1.2-4.6,1.2
		S90,61.4,89.5,56.8h11.2c0.4,0,0.7-0.3,0.7-0.7v-1.3C101.5,49.1,98.9,45.8,94.3,45.8 M89.5,53.9c0.2-3.3,2.101-5.4,4.8-5.4
		c0.9,0,3.801,0,4,5.4H89.5z"/>
	<path fill="#1D1D1B" d="M37.7,62.8c-0.4-0.5-0.9-0.8-1.5-0.899l-0.6-0.7c0.5-0.7,0.9-1.4,1.3-2.2c0.4-1.1,0.7-2.2,0.7-3.5
		c0-1.2-0.2-2.4-0.7-3.5c-0.5-1.1-1.1-2-1.9-2.9c-0.8-0.8-1.7-1.4-2.8-2c-1.1-0.5-2.2-0.7-3.4-0.7c-1.2,0-2.4,0.2-3.4,0.7
		c-1.1,0.5-2,1.2-2.8,2c-0.8,0.9-1.5,1.9-1.9,3S20,54.3,20,55.6c0,1.2,0.2,2.4,0.7,3.5c0.4,1.101,1.1,2,1.9,2.9
		c0.8,0.8,1.7,1.4,2.8,1.9c1.1,0.5,2.2,0.699,3.4,0.699c1.2,0,2.4-0.199,3.4-0.699c0.1-0.2,0.3-0.4,0.5-0.7
		c0.4-0.3,0.8-0.5,1.3-0.601c-0.4,0.4-0.7,0.9-0.7,1.4l0,0c-0.1,0.7,0.1,1.4,0.6,2l3.3,3.9c0.9,1.1,2.5,1.199,3.5,0.3
		c1.1-0.9,1.2-2.5,0.3-3.5L37.7,62.8z M33.9,57.8c-0.3,0.7-0.7,1.3-1.2,1.8s-1.1,0.9-1.8,1.2c-0.7,0.3-1.4,0.4-2.2,0.4
		s-1.5-0.101-2.2-0.4c-0.7-0.3-1.3-0.7-1.8-1.2s-0.9-1.199-1.2-1.8c-0.3-0.7-0.4-1.399-0.4-2.2c0-0.8,0.1-1.6,0.4-2.3
		c0.3-0.7,0.7-1.3,1.2-1.8s1.1-0.9,1.8-1.2c0.7-0.3,1.4-0.4,2.2-0.4s1.5,0.1,2.2,0.4c0.7,0.3,1.3,0.7,1.8,1.2s0.9,1.2,1.2,1.8
		c0.3,0.7,0.4,1.4,0.4,2.3C34.4,56.3,34.2,57,33.9,57.8"/>
</g>
</svg>
