<svg width="121" height="64" xmlns="http://www.w3.org/2000/svg" xmlns:xlink="http://www.w3.org/1999/xlink"><defs><path id="a" d="M.948929.675h1.72726366v3.2651H.948929z"/></defs><g fill="none" fill-rule="evenodd"><path d="M50.1273 37.5908c-3.068 7.089-10.44 12.114-19.048 12.114-7.889 0-14.742-4.243-18.17-10.439v24.059h107.785v-25.734h-70.567zM14.8226 16.8247c.438 1.786-.916 3.573-3.147 4.745-.24 0-.36-.168-.28-.335 1.036-.614 1.753-2.065 1.514-2.959-.118-.446-.158-.335-.637-.502-.437-.112-.797-.614-.877-1.005-.159-.725.28-1.563 1.076-1.73.797-.224 1.993.223 2.351 1.786M4.6624 38.3164c-2.271 0-3.626-.614-4.662-1.228l.956-1.898c.718.446 2.071 1.116 3.825 1.116 1.952 0 3.348-.837 3.348-2.344 0-3.852-7.173-2.512-7.173-8.039 0-2.288 1.634-4.186 5.22-4.186 1.674 0 2.949.39 3.985.837v2.121c-1.116-.446-2.232-.893-3.865-.893-1.634 0-2.949.558-2.949 2.01 0 3.517 7.332 2.623 7.332 7.815 0 3.293-2.75 4.689-6.017 4.689" fill="#044DA1"/><path d="M69.0941 45.8525c-4.782 0-7.451-2.066-7.451-4.689 0-1.731 1.195-3.015 2.988-3.964-.838-.446-1.076-1.172-1.076-1.897 0-.782.518-1.954 1.793-3.015-1.633-.949-2.59-2.847-2.59-4.801 0-3.293 2.67-5.749 5.857-5.749 1.196 0 2.033.167 2.79.558.199.111.279.056.399-.056.796-.726 2.43-1.451 4.423-1.116l-.718 2.232c-.837-.223-1.634-.279-2.311.056 1.196 1.061 1.833 2.456 1.833 4.131 0 3.405-2.51 5.806-6.216 5.806-.717 0-1.395-.112-1.992-.335-.518.558-.797 1.06-.797 1.842 0 2.289 10.918-.056 10.918 5.917 0 2.624-2.351 5.08-7.85 5.08m-2.63-7.871c-.877.502-2.271 1.395-2.271 2.903 0 1.674 1.992 2.958 5.06 2.958 3.108 0 4.981-1.116 4.981-2.847 0-2.847-5.699-2.456-7.77-3.014m2.391-14.123c-2.153 0-3.586 1.451-3.586 3.628 0 2.233 1.433 3.796 3.586 3.796 2.072 0 3.666-1.339 3.666-3.74 0-2.233-1.554-3.684-3.666-3.684M87.1839 37.9814l-.638-1.563c-.956.949-2.509 1.898-4.861 1.898-2.55 0-4.82-1.842-4.82-4.857 0-3.126 2.15-5.024 6.335-5.135l3.227-.112v-.726c0-2.735-1.434-3.628-3.427-3.628-2.032 0-3.306.837-4.144 1.451l-.995-1.73c1.912-1.396 3.586-1.842 5.577-1.842 2.989 0 5.419 1.339 5.419 5.359v4.8c0 4.466.12 5.583.319 6.085h-1.992zm-.757-7.592l-3.147.056c-2.869.112-3.986 1.117-3.986 2.847 0 1.619.997 2.903 3.07 2.903 2.071 0 3.306-1.061 4.063-1.787v-4.019zM97.9027 45.8525c-4.782 0-7.451-2.066-7.451-4.689 0-1.731 1.195-3.015 3.028-3.964-.877-.446-1.116-1.172-1.116-1.897 0-.782.518-1.954 1.793-3.015-1.633-.949-2.59-2.847-2.59-4.801 0-3.293 2.67-5.749 5.858-5.749 1.195 0 2.032.167 2.79.558.198.111.318.056.398-.056.796-.726 2.431-1.451 4.423-1.116l-.718 2.232c-.837-.223-1.633-.279-2.311.056 1.196 1.061 1.833 2.456 1.833 4.131 0 3.405-2.51 5.806-6.216 5.806-.717 0-1.395-.112-1.992-.335-.478.558-.797 1.06-.797 1.842 0 2.289 10.919-.056 10.919 5.917 0 2.624-2.312 5.08-7.851 5.08m-2.63-7.871c-.876.502-2.27 1.395-2.27 2.903 0 1.674 1.991 2.958 5.059 2.958 3.109 0 4.982-1.116 4.982-2.847 0-2.847-5.699-2.456-7.771-3.014m2.391-14.123c-2.112 0-3.586 1.451-3.586 3.628 0 2.233 1.474 3.796 3.586 3.796 2.072 0 3.666-1.339 3.666-3.74 0-2.233-1.554-3.684-3.666-3.684M109.2191 30.4453c0 3.014 1.713 5.694 5.22 5.694 1.355 0 2.829-.502 3.745-1.117l.758 1.675c-1.156.949-3.148 1.619-4.981 1.619-4.941 0-7.372-4.075-7.372-8.597 0-4.577 2.63-7.982 6.415-7.982 4.065 0 6.336 3.237 6.336 8.15v.558h-10.121zm3.825-6.643c-2.35 0-3.825 2.066-3.825 4.578h7.451c0-2.178-1.235-4.578-3.626-4.578zM57.7777 37.8139v-9.713c0-2.01-.359-4.187-2.749-4.187-1.953 0-3.666 1.34-4.901 2.456v11.221h-2.431v-15.575h1.992l.318 1.842c1.874-1.339 3.467-2.289 5.659-2.289 2.271 0 4.543 1.675 4.543 5.583v10.662h-2.431z" fill="#044DA1"/><g transform="translate(70 .3248)"><mask id="b" fill="#fff"><use xlink:href="#a"/></mask><path d="M2.64 1.5951c.199.893-.437 1.786-1.554 2.345-.12 0-.159-.112-.12-.168.518-.335.837-1.005.718-1.451-.04-.224-.04-.168-.279-.279-.239-.056-.399-.28-.439-.503-.079-.335.12-.726.518-.837.399-.112.957.111 1.156.893" fill="#044DA1" mask="url(#b)"/></g><path d="M69.2132 14.8154c-.996 0-1.434-.67-1.434-1.507V2.5344h1.275v10.216c0 .781.159.948.638.948.119 0 .238 0 .437-.055l.16.893c-.359.167-.677.279-1.076.279M74.6322 14.6474V3.3714h5.539l-.477 1.172h-3.787v3.74h3.746v1.172h-3.746v4.02h4.303v1.172zM87.7025 14.6474l-.359-.837c-.597.502-1.514 1.004-2.59 1.004-1.115 0-2.47-.558-2.47-2.847v-5.414h1.234v5.303c0 1.34.559 1.842 1.594 1.842 1.036 0 1.793-.613 2.153-1.061v-6.084h1.235v4.689c0 2.568.04 3.07.198 3.405h-.995zM94.7152 7.7817c-.199-.056-.438-.112-.797-.112-.478 0-1.235.391-1.753.949v6.029h-1.275v-8.094h1.036l.159.893c1.116-1.005 1.753-1.116 2.311-1.116.359 0 .678.167.837.223l-.518 1.228zM101.8871 13.8105c-.638.614-1.554 1.005-2.59 1.005-.996 0-1.873-.335-2.51-1.005-.717-.726-1.116-1.898-1.116-3.238 0-1.339.399-2.456 1.116-3.182.637-.669 1.514-1.06 2.55-1.06 1.036 0 1.912.391 2.55 1.06.718.726 1.116 1.843 1.116 3.182 0 1.34-.398 2.457-1.116 3.238m-2.55-6.42c-1.554 0-2.39 1.228-2.39 3.126 0 1.954.877 3.182 2.39 3.182 1.515 0 2.432-1.228 2.432-3.182 0-1.898-.877-3.126-2.432-3.126M107.4261 14.8154c-.598 0-1.036-.112-1.354-.279v4.131h-1.236V6.8884c.518-.223 1.474-.558 2.63-.558 2.47 0 4.024 1.563 4.024 4.187 0 2.791-2.032 4.298-4.064 4.298m.04-7.369c-.598 0-1.036.112-1.394.224v5.749c.438.168.756.279 1.314.279 1.674 0 2.829-1.172 2.829-3.181 0-2.122-1.275-3.071-2.749-3.071M114.1605 10.7959c0 1.563.917 2.903 2.71 2.903.677 0 1.434-.279 1.912-.558l.399.837c-.598.502-1.634.837-2.55.837-2.551 0-3.786-2.065-3.786-4.41 0-2.344 1.315-4.075 3.268-4.075 2.11 0 3.267 1.675 3.267 4.187v.279h-5.22zm1.992-3.405c-1.195 0-1.952 1.06-1.952 2.344h3.824c0-1.116-.636-2.344-1.872-2.344z" fill="#044DA1"/><path d="M63.4749 56.8496c0 1.563.918 2.903 2.711 2.903.677 0 1.434-.223 1.911-.558l.359.837c-.557.502-1.593.837-2.549.837-2.511 0-3.746-2.065-3.746-4.354 0-2.345 1.314-4.131 3.267-4.131 2.111 0 3.228 1.675 3.228 4.187v.279h-5.181zm1.992-3.405c-1.194 0-1.952 1.06-1.952 2.344h3.825c0-1.116-.636-2.344-1.873-2.344zM74.513 60.7011v-4.968c0-1.005-.159-2.121-1.396-2.121-.996 0-1.872.669-2.509 1.228v5.861h-1.235v-8.094h.995l.2.949c.957-.669 1.753-1.173 2.869-1.173 1.156 0 2.35.839 2.35 2.903v5.415h-1.274zM85.9886 50.5976h-3.785v3.796h3.745v1.172h-3.745v5.136h-1.276v-11.276h5.54zM90.7699 53.8349c-.158-.056-.397-.112-.757-.112-.477 0-1.274.391-1.793.949v6.029h-1.234v-8.094h1.035l.159.949c1.116-1.061 1.713-1.172 2.312-1.172.358 0 .676.167.837.279l-.559 1.172zM96.4681 60.7011l-.318-.782c-.479.503-1.276.949-2.471.949-1.315 0-2.471-.949-2.471-2.456 0-1.619 1.116-2.568 3.229-2.679h1.673v-.391c0-1.396-.718-1.842-1.753-1.842-1.036 0-1.714.391-2.153.726l-.477-.894c.956-.725 1.832-.949 2.828-.949 1.555 0 2.79.671 2.79 2.736v2.512c0 2.288.079 2.791.159 3.07h-1.036zm-.358-3.908l-1.633.056c-1.436.056-2.033.558-2.033 1.452 0 .838.517 1.507 1.593 1.507 1.036 0 1.674-.558 2.073-.949v-2.066zM103.9193 60.7011v-4.968c0-1.005-.158-2.121-1.395-2.121-.996 0-1.872.669-2.509 1.228v5.861h-1.276v-8.094h1.036l.16.949c.957-.669 1.793-1.173 2.909-1.173 1.155 0 2.31.839 2.31 2.903v5.415h-1.235zM109.6175 60.8691c-2.471 0-3.785-1.954-3.785-4.131 0-2.233 1.314-4.354 4.024-4.354.717 0 1.514.223 2.073.558v1.172c-.519-.335-1.236-.614-2.113-.614-1.713 0-2.709 1.34-2.709 3.182 0 1.787.996 3.126 2.669 3.126.877 0 1.514-.279 2.033-.614l.358.894c-.598.39-1.514.781-2.55.781M114.0013 56.8496c0 1.563.916 2.903 2.71 2.903.677 0 1.434-.223 1.912-.558l.358.837c-.557.502-1.593.837-2.549.837-2.511 0-3.746-2.065-3.746-4.354 0-2.345 1.315-4.131 3.266-4.131 2.112 0 3.269 1.675 3.269 4.187v.279h-5.22zm1.991-3.405c-1.194 0-1.951 1.06-1.951 2.344h3.824c0-1.116-.636-2.344-1.873-2.344zM61.6429 41.1635c0 2.624 2.67 4.689 7.45 4.689 5.499 0 7.851-2.456 7.851-5.08 0-1.563-.717-2.568-1.833-3.182h-11.077c-1.475.893-2.391 2.066-2.391 3.573m4.82-3.182c2.073.558 7.771.168 7.771 3.015 0 1.73-1.872 2.847-4.981 2.847-3.067 0-5.06-1.284-5.06-2.959 0-1.507 1.394-2.401 2.27-2.903M90.4515 41.1635c0 2.624 2.67 4.689 7.451 4.689 5.539 0 7.85-2.456 7.85-5.08 0-1.563-.717-2.568-1.833-3.182h-11.077c-1.435.893-2.391 2.066-2.391 3.573m4.821-3.182c2.072.558 7.771.168 7.771 3.015 0 1.73-1.873 2.847-4.981 2.847-3.068 0-5.061-1.284-5.061-2.959 0-1.507 1.395-2.401 2.271-2.903" fill="#FEFEFE"/><path d="M39.3285 13.1406c-3.347-1.619-8.328-2.121-12.711-.893-7.969 2.233-13.229 9.266-13.588 17.082V30.8926c0 .446.04.837.08 1.284 0 .055.04.055.04.111v.223c.118.894.279 1.787.518 2.68.04.056.04.056.04.112.279.949.597 1.898.996 2.735l.04.056c.438.949.956 1.842 1.514 2.679.04.056.08.112.08.168h.039c.359.558.757 1.06 1.196 1.563 4.582 5.303 12.033 7.815 19.246 5.805 4.223-1.228 9.682-4.242 13.308-10.718h-2.43c-2.152 4.299-6.495 7.369-11.317 8.43-5.739 1.284-12.193-2.68-15.619-7.927-.04-.112.039 0 .039 0s8.368-2.68 12.432-4.913c5.34-2.958 12.353-10.718 11.516-16.244-1.474-1.396-2.351-2.289-5.419-3.796" fill="#044DA1"/><path fill="#FFF100" d="M37.3763 22.351l2.749-2.065 2.79 2.065-1.076-3.294 2.829-2.009h-3.468l-1.075-3.35-1.075 3.35h-3.467l2.829 2.009zM15.1019 38.0932l2.789-2.01 2.79 2.01-1.076-3.238 2.829-2.065h-3.467l-1.076-3.294-1.076 3.35-3.466-.056 2.829 2.065z"/><path fill="#FFF100" d="M20.641 32.0644l6.216-4.522 6.216 4.522-2.391-7.313 6.296-4.521h-7.731l-2.39-7.425-2.392 7.425h-7.769l6.296 4.521z"/></g></svg>