<svg width="87" height="67" xmlns="http://www.w3.org/2000/svg" xmlns:xlink="http://www.w3.org/1999/xlink"><defs><path id="a" d="M0 68h86.2V1H0z"/></defs><g fill="none" fill-rule="evenodd"><path fill="#044DA1" d="M0 57.1h85.8V0H.1z"/><path fill="#FFF100" d="M41.1 12.5L43 11l1.8 1.4-.7-2.2L46 9h-2.3L43 6.8 42.2 9H40l1.8 1.3m-10 4.7l1.7-1.3 1.9 1.3-.7-2.2 1.8-1.3h-2.2l-.8-2.2-.6 2.2h-2.3l1.8 1.3m-5.7 3.4l-.7 2.2h-2.3l1.9 1.3-.7 2.1 1.8-1.3 1.8 1.3-.7-2 1.8-1.4h-2.2m-3.2 11.5l1.8 1.3-.7-2.2 1.8-1.3H25l-.7-2.2-.7 2.2h-2.2L23 29l-.7 2.2m5 6l-.7-2.2L26 37h-2.3l1.9 1.3-.7 2.2 1.8-1.4 1.8 1.4-.7-2.2 1.8-1.3m4.7 6.9l-.8-2.2L33 44h-2.3l1.8 1.3-.6 2.1 1.7-1.3 1.9 1.3-.7-2 1.8-1.4m7.1 2.5l-.7-2.2-.7 2.2H40l1.8 1.3-.7 2.1 1.8-1.3 1.8 1.3-.7-2.1 1.9-1.3m7-2.5l-.6-2.2-.7 2.2h-2.3l1.8 1.3-.6 2.1 1.8-1.3 1.8 1.3-.7-2 1.8-1.4M60 37L59 35l-.7 2.1h-2.2l1.8 1.3-.7 2.2 1.8-1.4 1.9 1.4-.7-2.2 1.8-1.3m2.5-9.4h-2.3l-.7-2.2-.7 2.2h-2.2l1.8 1.3-.7 2.1 1.8-1.3 1.8 1.3-.7-2m-5.4-7.3l1.8-1.3 1.9 1.3-.7-2.1 1.8-1.3h-2.2l-.8-2.2-.7 2.2h-2.2l1.8 1.3M52.3 9.3l-.7 2.2h-2.2l1.8 1.3-.7 2.2 1.8-1.3L54 15l-.7-2.2 1.9-1.3H53"/><g transform="translate(0 -1)"><path d="M.8 61v4c0 1 .4 2 1.7 2C3.8 67 4 66 4 65v-4H5v4.2c0 1.5-.9 2.6-2.4 2.6-1.6 0-2.5-1.1-2.5-2.6V61m6-.4l5 5.3v-5h.9V68l-5-5.3v5H6" fill="#000"/><mask id="b" fill="#fff"><use xlink:href="#a"/></mask><path fill="#000" mask="url(#b)" d="M13 67.7h.9V61H13zm7.9-3.4c0-1.4-1.1-2.7-2.7-2.7a2.7 2.7 0 0 0-2.7 2.7c0 1.5 1.2 2.8 2.7 2.8 1.5 0 2.7-1.3 2.7-2.8m.8 0c0 2-1.6 3.5-3.5 3.5-2 0-3.5-1.5-3.5-3.5 0-1.9 1.6-3.5 3.5-3.5 2 0 3.5 1.6 3.5 3.5m.8-3.7l5 5.3v-5h.8V68l-5-5.3v5h-.8M32 61h3.6v.7H33v1.9h2.7v.8H33V67h2.8v.8h-3.6m5.4-6.7v4c0 1 .3 2 1.6 2s1.6-1 1.6-2v-4h.9v4.2c0 1.5-1 2.6-2.5 2.6s-2.5-1.1-2.5-2.6V61m7 3.2h.2c1 0 1.8-.2 1.8-1.3 0-1-1-1.2-1.8-1.2h-.2v2.5zm3.3 3.5h-1l-2-2.8h-.3v2.8h-1V61h1.1c.6 0 1.3 0 1.8.3.6.3.9 1 .9 1.6 0 1-.6 1.7-1.6 1.9l2 2.9zm6.4-3.4c0-1.4-1.1-2.7-2.7-2.7a2.7 2.7 0 0 0-2.7 2.7c0 1.5 1.3 2.8 2.7 2.8 1.5 0 2.7-1.3 2.7-2.8m.8 0c0 2-1.6 3.5-3.5 3.5a3.5 3.5 0 1 1 3.5-3.5m1.7-.2h.2c.9 0 1.9-.1 1.9-1.2 0-1-1-1.2-2-1.2h-.1v2.4zm0 3.6H55V61h.9c2 0 2.7.7 2.7 2s-1 1.9-2.3 1.9h-.5v2.8zm6.3-8.7l-1.5 1.3-.4-.2 1.1-1.5.8.4zm-2.8 2H63v.7h-2.8v1.9h2.7v.8h-2.7V67H63v.8h-3.7V61zm4.7 0h3.6v.7h-2.8v1.9h2.7v.8h-2.7V67h2.8v.8H64m4.6-7l5 5.2v-5h.8V68l-5-5.3v5h-.8m7-7l5 5.2v-5h.8V68l-5-5.3v5h-.8m7-6.7h3.6v.7h-2.7v1.9h2.7v.8h-2.7V67h2.7v.8h-3.6"/></g></g></svg>