<svg width="250" height="81" viewBox="0 0 250 81" fill="none" xmlns="http://www.w3.org/2000/svg">
<g clip-path="url(#clip0_689_545)">
<path d="M96.9326 12.7176H101.283L107.213 21.174C107.985 22.2722 108.547 23.1568 109.073 24.0767H109.143C109.601 23.1908 110.196 22.2014 110.933 21.0325L116.302 12.7176H120.688V36.036H115.88V23.5106C115.88 22.5906 115.88 21.5292 115.915 20.714H115.88C115.599 21.3155 114.687 22.6614 114.301 23.2616L110.162 29.7012H107.985L103.319 23.0506C102.827 22.3784 102.266 21.6353 101.775 20.7494H101.705C101.741 21.5632 101.741 22.6247 101.741 23.3677V36.036H96.9326V12.7176Z" fill="#21313B"/>
<path d="M136.757 27.614C136.757 24.7834 135.6 22.6959 133.108 22.6959C130.617 22.6959 129.424 24.7834 129.424 27.614C129.424 30.4446 130.617 32.569 133.108 32.569C135.6 32.569 136.757 30.4446 136.757 27.614ZM124.582 27.614C124.582 22.5543 128.02 18.8746 133.108 18.8746C138.16 18.8746 141.6 22.5543 141.6 27.614C141.6 32.6751 138.16 36.3889 133.108 36.3889C128.055 36.3889 124.582 32.6751 124.582 27.614Z" fill="#21313B"/>
<path d="M155.915 27.4014C155.915 24.7123 154.301 22.8016 151.808 22.8016C150.721 22.8016 150.09 23.0139 149.563 23.1909V32.2148C150.159 32.4257 150.791 32.4624 151.318 32.4624C154.159 32.4624 155.915 30.3749 155.915 27.4014ZM144.826 35.1502V10.9839H149.563V19.2988C150.44 19.0511 151.424 18.8742 152.58 18.8742C157.108 18.8742 160.757 21.8123 160.757 27.1197C160.757 32.9578 156.336 36.3885 150.545 36.3885C148.406 36.3885 146.405 35.9993 144.826 35.1502Z" fill="#21313B"/>
<path d="M163.845 19.2981H168.582V36.0354H163.845V19.2981ZM163.354 14.1323C163.354 12.6108 164.582 11.3724 166.231 11.3724C167.845 11.3724 169.073 12.5414 169.073 14.1323C169.073 15.6904 167.845 16.9642 166.231 16.9642C164.582 16.9642 163.354 15.7245 163.354 14.1323Z" fill="#21313B"/>
<path d="M170.563 19.2988H175.335L179.159 30.021H179.231L183.019 19.2988H187.792L180.915 36.1422H177.441L170.563 19.2988Z" fill="#21313B"/>
<path d="M189.86 19.2981H194.597V36.0354H189.86V19.2981ZM189.369 14.1323C189.369 12.6108 190.597 11.3724 192.247 11.3724C193.86 11.3724 195.088 12.5414 195.088 14.1323C195.088 15.6904 193.86 16.9642 192.247 16.9642C190.597 16.9642 189.369 15.7245 189.369 14.1323Z" fill="#21313B"/>
<path d="M198.562 10.9833H203.299V30.7635C203.299 31.8604 203.757 32.1788 204.527 32.1788C204.703 32.1788 205.194 32.1081 205.58 31.9665L206.492 35.6817C205.405 36.1417 204.106 36.3186 203.089 36.3186C200.108 36.3186 198.562 34.8325 198.562 32.0019V10.9833Z" fill="#21313B"/>
<path d="M209.089 10.9833H213.825V30.7635C213.825 31.8604 214.283 32.1788 215.053 32.1788C215.229 32.1788 215.72 32.1081 216.106 31.9665L217.018 35.6817C215.931 36.1417 214.632 36.3186 213.615 36.3186C210.634 36.3186 209.089 34.8325 209.089 32.0019V10.9833Z" fill="#21313B"/>
<path d="M229.3 25.8095C229.265 24.1466 228.423 22.4849 226.351 22.4849C224.456 22.4849 223.439 24.0771 223.439 25.8095H229.3ZM218.737 27.791C218.737 22.7313 221.44 18.8746 226.421 18.8746C231.265 18.8746 234.072 22.3067 234.072 27.9338V29.0293H223.509C223.581 31.3646 225.37 32.6751 227.896 32.6751C229.614 32.6751 230.912 32.2492 232.141 31.5429L233.51 34.7967C231.649 35.9303 229.581 36.3889 227.474 36.3889C221.159 36.3889 218.737 32.1798 218.737 27.791Z" fill="#21313B"/>
<path d="M94.2307 68.9902H184.32V48.1594H94.2307V68.9902Z" fill="#37B4B4"/>
<path d="M104.193 57.6228C104.776 57.6228 105.212 57.5248 105.536 57.3452C106.184 57.0335 106.491 56.398 106.491 55.5338C106.491 54.765 106.198 54.1294 105.601 53.7702C105.261 53.5742 104.807 53.4599 104.175 53.4599H103.545V57.6228H104.193ZM101.846 52.0568H104.224C105.244 52.0568 105.989 52.2038 106.605 52.5304C107.656 53.0843 108.27 54.1131 108.27 55.5338C108.27 56.7899 107.737 58.031 106.312 58.6339C105.746 58.8789 105.034 59.0258 104.08 59.0258H103.545V62.8118H101.846V52.0568Z" fill="white"/>
<path d="M115.218 58.9277C115.218 57.394 114.507 56.2836 113.228 56.2836C111.95 56.2836 111.221 57.394 111.221 58.9277C111.221 60.4791 111.95 61.5882 113.228 61.5882C114.507 61.5882 115.218 60.4791 115.218 58.9277ZM112.499 51.7465H113.924L115.542 54.1457H114.182L113.213 52.7412L112.257 54.1457H110.897L112.499 51.7465ZM109.49 58.9277C109.49 56.6265 110.978 54.8969 113.228 54.8969C115.463 54.8969 116.951 56.6265 116.951 58.9277C116.951 61.229 115.463 62.9763 113.228 62.9763C110.994 62.9763 109.49 61.229 109.49 58.9277Z" fill="white"/>
<path d="M118.591 51.2571H120.274V60.7069C120.274 61.2785 120.468 61.4404 120.841 61.4404C120.954 61.4404 121.181 61.3928 121.325 61.3438L121.665 62.6652C121.262 62.8462 120.758 62.9265 120.355 62.9265C119.174 62.9265 118.591 62.306 118.591 61.1805V51.2571Z" fill="white"/>
<path d="M127.235 58.1611C127.204 57.1813 126.734 56.2178 125.649 56.2178C124.629 56.2178 124.031 57.1159 124.014 58.1611H127.235ZM122.315 58.9273C122.315 56.5947 123.594 54.8977 125.666 54.8977C127.753 54.8977 128.95 56.4641 128.95 58.9613V59.3695H124.031C124.062 60.6896 124.921 61.6204 126.312 61.6204C127.074 61.6204 127.689 61.4095 128.239 61.0978L128.741 62.2573C127.996 62.7472 127.041 62.9758 126.135 62.9758C123.464 62.9758 122.315 61.0665 122.315 58.9273Z" fill="white"/>
<path d="M138.15 58.1611C138.119 57.1813 137.649 56.2178 136.564 56.2178C135.544 56.2178 134.946 57.1159 134.928 58.1611H138.15ZM133.229 58.9273C133.229 56.5947 134.509 54.8977 136.58 54.8977C138.668 54.8977 139.865 56.4641 139.865 58.9613V59.3695H134.946C134.977 60.6896 135.835 61.6204 137.227 61.6204C137.989 61.6204 138.603 61.4095 139.154 61.0978L139.656 62.2573C138.911 62.7472 137.955 62.9758 137.05 62.9758C134.379 62.9758 133.229 61.0665 133.229 58.9273Z" fill="white"/>
<path d="M141.456 55.0926H142.864L143.042 56.0071C143.819 55.3702 144.692 54.8966 145.648 54.8966C146.553 54.8966 147.282 55.3212 147.656 56.1377C148.578 55.3375 149.548 54.8966 150.439 54.8966C151.75 54.8966 152.883 55.6641 152.883 57.6714V62.8127H151.2V58.145C151.2 57.1652 151.005 56.3813 149.985 56.3813C149.305 56.3813 148.61 56.7732 147.995 57.2795C148.011 57.3774 148.011 57.5081 148.011 57.6387V62.8127H146.328V58.1613C146.328 57.1815 146.134 56.3813 145.131 56.3813C144.434 56.3813 143.738 56.7732 143.139 57.2795V62.8127H141.456V55.0926Z" fill="white"/>
<path d="M157.585 61.5554C159.106 61.5554 159.899 60.5102 159.899 58.9126C159.899 57.1326 158.927 56.316 157.488 56.316C157.114 56.316 156.791 56.3664 156.467 56.4644V61.3104C156.824 61.4737 157.147 61.5554 157.585 61.5554ZM154.784 55.3866C155.609 55.0926 156.564 54.8967 157.552 54.8967C160.191 54.8967 161.631 56.4304 161.631 58.9275C161.631 61.3444 160.029 62.9761 157.697 62.9761C157.261 62.9761 156.84 62.8931 156.467 62.7638V66.6818H154.784V55.3866Z" fill="white"/>
<path d="M163.271 51.2571H164.953V60.7069C164.953 61.2785 165.148 61.4404 165.52 61.4404C165.634 61.4404 165.86 61.3928 166.005 61.3438L166.345 62.6652C165.941 62.8462 165.438 62.9265 165.034 62.9265C163.854 62.9265 163.271 62.306 163.271 61.1805V51.2571Z" fill="white"/>
<path d="M172.919 58.9277C172.919 57.394 172.208 56.2836 170.927 56.2836C169.649 56.2836 168.92 57.394 168.92 58.9277C168.92 60.4791 169.649 61.5882 170.927 61.5882C172.208 61.5882 172.919 60.4791 172.919 58.9277ZM167.189 58.9277C167.189 56.6265 168.677 54.8969 170.927 54.8969C173.162 54.8969 174.65 56.6265 174.65 58.9277C174.65 61.229 173.162 62.9763 170.927 62.9763C168.695 62.9763 167.189 61.229 167.189 58.9277Z" fill="white"/>
<path d="M176.306 55.093H177.989V62.8132H176.306V55.093ZM176.096 52.6285C176.096 52.0392 176.532 51.5833 177.147 51.5833C177.764 51.5833 178.2 52.0243 178.2 52.6285C178.2 53.2164 177.748 53.6736 177.147 53.6736C176.532 53.6736 176.096 53.2164 176.096 52.6285Z" fill="white"/>
<path d="M79.7701 40.5476C79.7701 62.7616 61.9135 80.7692 39.8846 80.7692C17.8584 80.7692 0 62.7616 0 40.5476C0 18.3335 17.8584 0.326881 39.8846 0.326881C61.9135 0.326881 79.7701 18.3335 79.7701 40.5476Z" fill="#23333C"/>
<path d="M13.345 19.794L13.3413 19.7997C13.3432 19.7978 13.3441 19.7959 13.345 19.794ZM30.2007 71.4991C30.2016 71.4991 30.2016 71.4991 30.2026 71.4991C30.2016 71.4991 30.2016 71.4991 30.2007 71.4991ZM45.4551 75.0672C45.8228 75.0672 46.1089 75.2961 46.2356 75.3982C46.26 75.4172 46.2853 75.4389 46.3097 75.455C46.8247 75.7284 47.4475 75.7132 47.9513 75.3963C48.44 75.0899 48.7092 74.5734 48.6904 73.9822C48.6191 71.7328 48.9568 69.3112 52.0008 68.3965C52.2484 68.3227 52.5599 68.0191 52.861 67.7259C53.0167 67.5745 53.1724 67.4241 53.33 67.2879C54.6067 66.1878 55.8421 66.132 57.2163 67.111C57.9217 67.6142 58.8325 67.9056 59.7968 68.2139C60.006 68.2811 60.2143 68.3473 60.4197 68.4164C60.8972 68.5753 61.3953 68.6916 61.9234 68.8156C62.5031 68.9508 63.1025 69.0908 63.6935 69.297C64.3379 69.5212 64.9645 69.7927 65.5705 70.0547C66.4963 70.4567 67.3706 70.8342 68.2711 71.0432C69.4033 71.3033 70.0252 70.6525 71.0252 69.4777C71.2203 69.2488 71.4164 69.0189 71.619 68.7985C72.5232 67.8176 73.5663 66.9842 74.5757 66.1783C75.1338 65.7328 75.7098 65.2721 76.2445 64.7992C76.1544 64.7736 76.0634 64.7424 75.9724 64.7036C75.7886 64.6251 75.6038 64.5475 75.418 64.47C74.4715 64.0774 73.4913 63.6707 72.6452 63.018C72.3309 62.7758 72.1405 62.3672 72.0795 61.8044C72.0148 61.2065 72.0908 60.3278 72.5176 59.817C72.8985 59.362 73.0861 58.9855 73.0467 58.7566C73.0232 58.6157 72.8638 58.3092 72.0683 57.8409C71.391 57.4427 70.8976 56.3473 71.0533 55.5868C71.225 54.7478 72.2315 54.2058 72.8253 54.062C73.8065 53.8246 73.9369 53.5777 73.9378 53.5748C73.9378 53.5739 73.9641 53.3639 73.572 52.8276C72.8553 51.8476 72.0439 50.7361 72.2794 49.5405C72.3713 49.0703 72.6067 48.6532 72.9941 48.2786C72.9904 48.2729 72.9876 48.2682 72.9838 48.2625C72.679 47.7839 72.4154 47.3705 72.1949 46.9051C72.0439 46.5863 71.9398 46.191 71.8479 45.8419C71.8338 45.7899 71.8178 45.7293 71.801 45.6688C71.074 45.6764 71.0618 45.822 71.0261 46.2392C70.9595 47.0309 70.6715 47.5777 70.1706 47.8633C69.454 48.271 68.6463 47.974 67.9494 47.6288C67.5282 47.4207 67.3434 46.9146 67.5291 46.4804C67.7017 46.0784 67.8612 45.6612 68.015 45.2564C68.3743 44.3114 68.7467 43.3343 69.3198 42.4678C69.8667 41.6429 70.5505 40.9439 71.2119 40.2685C71.6152 39.8561 71.9951 39.4673 72.3441 39.0549C72.7756 38.5441 73.1968 38.0002 73.344 37.4828C73.602 36.5804 74.0316 35.0754 76.1385 35.3942C76.3692 35.3176 76.8214 34.9212 76.8955 34.7226C77.0296 34.3177 77.0512 33.8164 77.0737 33.2857C77.1018 32.6075 77.1318 31.9056 77.3936 31.2227C77.6093 30.6608 77.7359 30.0412 77.8701 29.3847C78.1965 27.7823 78.567 25.9671 80.3868 24.7194C80.4506 24.675 80.4882 24.6371 80.5069 24.6125C80.4694 24.569 80.3643 24.4877 80.157 24.4451C79.7856 24.3704 79.401 24.3184 78.9929 24.2625C78.0408 24.132 77.0559 23.9977 76.1544 23.555C75.888 23.4235 75.5034 23.3526 75.0954 23.2778C74.056 23.0858 72.3619 22.7727 72.0251 20.738C71.8854 20.6917 71.6987 20.6387 71.4942 20.5943C71.1031 20.5091 70.6387 20.4732 70.1472 20.4344C68.9606 20.3407 67.7327 20.2443 67.0179 19.4071C66.6961 19.0297 66.1887 18.7052 65.6512 18.3619C64.699 17.7518 63.4993 16.9837 63.186 15.6206C62.9552 15.7445 62.7095 15.84 62.4374 15.8854C61.7179 16.0094 60.8709 15.4891 60.5219 15.1987C60.142 14.879 59.946 14.5299 59.9394 14.1601C59.9254 13.3296 59.673 13.0798 58.4357 12.6797C57.7482 12.4574 57.0934 11.8482 56.4921 10.8683C56.101 10.2345 55.8102 9.54681 55.5288 8.88088C55.5128 8.84305 55.4969 8.80521 55.48 8.76737C54.8984 8.91209 54.3872 8.8875 53.9322 8.69548C52.9838 8.29725 52.6283 7.32862 52.3432 6.55013C52.2981 6.42905 52.255 6.31081 52.2118 6.19919C52.0402 6.19635 51.8704 6.19162 51.7025 6.18689C50.9145 6.16325 50.1716 6.14243 49.4831 6.24837C49.3321 6.28053 49 6.55202 48.939 6.6958C48.758 7.54808 48.6707 8.45143 48.5779 9.40776C48.5282 9.91289 48.4775 10.436 48.41 10.9543C48.3668 11.2854 48.2355 11.9078 47.834 12.3723C46.2299 14.2244 44.0387 14.4978 42.1054 14.739C41.9168 14.7626 41.7283 14.7863 41.5416 14.8109C40.6758 14.9263 40.6036 15.0559 40.6167 15.666C40.6364 16.5816 40.2443 17.4046 39.5417 17.923C38.751 18.5066 37.6591 18.6409 36.6207 18.2815C36.3505 18.1888 36.0822 18.0847 35.8149 17.9807C35.3262 17.7915 34.8637 17.6118 34.4041 17.5077L34.239 17.4708C33.0477 17.206 31.272 16.8106 31.1463 14.616C31.0937 14.5801 31.0309 14.5422 30.9755 14.5167C30.5816 14.3417 30.1641 14.1837 29.667 14.0021L30.6331 22.2581C30.6688 22.5627 30.5459 22.8635 30.3086 23.0555C30.0713 23.2466 29.7533 23.3015 29.4662 23.1993C29.2242 23.1123 29.015 23.03 28.8274 22.9553C28.5272 22.837 28.3096 22.75 28.1248 22.7197C27.7412 22.6554 27.3556 22.5665 26.9832 22.4804C26.1015 22.2771 25.2685 22.0841 24.6156 22.2439C23.8361 22.4331 22.8418 22.5826 22.0623 22.0519C21.5323 21.6906 21.2143 21.106 21.0905 20.2651C21.0239 19.812 20.8578 19.5764 20.7349 19.5112C20.6599 19.4724 20.5576 19.4837 20.4319 19.5471C18.7876 20.3729 17.1451 20.2263 15.6967 20.0967C14.9369 20.0276 14.2202 19.9624 13.5242 20.0267C13.4435 20.0333 13.3554 20.0371 13.2644 20.0409C13.2391 20.0418 13.209 20.0428 13.179 20.0447C13.0524 20.2357 12.877 20.5082 12.8076 20.6756C13.0214 21.1183 13.3694 21.5553 13.7362 22.015C13.9257 22.2534 14.1171 22.4937 14.3 22.7443C14.4735 22.9827 14.5185 23.293 14.4182 23.572C14.3187 23.8501 14.088 24.0601 13.8028 24.1311L13.2165 24.2777L13.9595 25.3116C16.3327 25.1848 18.0399 26.5838 19.6946 27.9375C19.7997 28.0235 19.9066 28.1106 20.0136 28.1976L21.249 28.0765C21.5135 28.051 21.7752 28.1475 21.9619 28.3385C22.1486 28.5296 22.2386 28.7954 22.2086 29.0612L22.1805 29.3005L22.7367 29.3355C22.9975 29.3526 23.2367 29.485 23.3905 29.6978C23.5453 29.9107 23.5978 30.1812 23.5341 30.4375C23.2648 31.5225 23.4281 31.7562 23.429 31.758C23.4618 31.7817 23.6654 31.8413 24.1241 31.7666C24.3708 31.7259 24.6241 31.7949 24.8182 31.9539C25.0133 32.1128 25.1306 32.3483 25.1437 32.6009C25.1522 32.7863 25.1559 32.9537 25.1606 33.1088C25.1681 33.3898 25.1737 33.6111 25.2047 33.8031C25.2366 34.0027 25.3032 34.2241 25.3736 34.4587C25.4101 34.5816 25.4477 34.7055 25.4824 34.8314C25.549 35.0763 25.5086 35.3393 25.3707 35.5531C25.2535 35.7347 25.0743 35.8652 24.8698 35.9229C25.2854 36.4886 25.5837 37.1025 25.8623 37.6776C26.6061 39.2091 27.0705 40.0093 28.7224 40.0292C28.9794 40.032 29.2233 40.1484 29.3884 40.348C29.5535 40.5485 29.6229 40.8115 29.5788 41.0678C29.5019 41.5162 29.4231 41.9532 29.3452 42.3817C29.1548 43.4393 28.9738 44.4382 28.8593 45.4323C28.8321 45.6669 28.9306 46.0008 29.0056 46.086C30.1332 47.1955 31.1237 48.5331 30.7232 50.7673C30.6557 51.1419 30.3592 51.4314 29.985 51.4872C29.6126 51.542 29.2448 51.3519 29.0732 51.0123L28.2937 49.4714L27.2524 53.4935L28.0235 53.9485C28.2899 54.1045 28.455 54.3902 28.4597 54.7014C28.4644 55.0117 28.3077 55.3021 28.047 55.4667C27.8096 55.6171 27.5695 55.7353 27.3575 55.8394C27.2055 55.915 26.9823 56.0248 26.8913 56.0938C26.4195 57.246 25.9842 58.4454 25.563 59.606C25.1869 60.6447 24.7976 61.7183 24.3792 62.7673C24.1119 63.437 23.7385 64.0292 23.3427 64.6573C23.3342 64.6696 23.3267 64.6828 23.3183 64.6951L24.2085 65.0839C24.5706 65.2409 24.7835 65.6231 24.731 66.0175L24.5959 67.0344C25.6137 67.3323 26.4589 67.8886 27.2834 68.4296C28.2599 69.0719 29.1829 69.6773 30.2786 69.7255C30.8301 69.7501 31.1134 70.1862 31.2654 70.4208C31.2898 70.4596 31.3132 70.4984 31.3395 70.5305C31.5759 70.8011 32.3573 71.0839 33.3863 71.0943C34.3684 71.0886 35.2905 70.8521 35.6292 70.4794C35.949 70.1276 36.4865 70.0935 36.8477 70.4028C37.2051 70.7093 37.6928 70.9392 38.2097 71.1832C39.3288 71.7101 40.8024 72.4053 41.1355 74.2802C41.8925 74.3227 42.5575 74.6093 43.1269 74.8543C43.9787 75.2214 44.4899 75.4162 45.078 75.1504C45.2103 75.0908 45.3369 75.0672 45.4551 75.0672ZM47.0892 77.4235C46.5358 77.4235 45.9786 77.2863 45.4608 77.0091C45.4176 76.9864 45.3782 76.9619 45.3407 76.9373C44.2141 77.2532 43.2385 76.8323 42.4356 76.4861C41.7517 76.1928 41.1608 75.9374 40.5511 76.1039C40.2828 76.1777 39.9948 76.1171 39.7762 75.9431C39.5577 75.7681 39.4338 75.5004 39.4423 75.2185C39.4864 73.81 38.7941 73.4175 37.4649 72.7913C37.0756 72.6078 36.6779 72.4195 36.2999 72.1849C35.5776 72.6229 34.5692 72.8707 33.4473 72.8707C33.421 72.8707 33.3947 72.8698 33.3685 72.8698C31.8958 72.8547 30.6425 72.4176 30.0159 71.7016C29.9493 71.624 29.8921 71.5436 29.8433 71.4698C28.4372 71.3062 27.3181 70.5712 26.3228 69.9166C25.4017 69.3122 24.5321 68.7408 23.5087 68.615C23.2742 68.5876 23.0622 68.4656 22.9178 68.2773C22.7742 68.09 22.7105 67.8517 22.7423 67.6161L22.8981 66.446L21.6852 65.9163C21.4535 65.8151 21.2762 65.6193 21.1983 65.3771C21.1195 65.1359 21.1477 64.8711 21.2762 64.6525C21.4722 64.3158 21.6683 64.0036 21.8568 63.7047C22.2227 63.1239 22.5388 62.6216 22.7461 62.1042C23.1541 61.0817 23.5387 60.0222 23.9102 58.9969C24.3455 57.7965 24.7957 56.5564 25.2919 55.3484C25.4054 55.0722 25.5902 54.8651 25.806 54.6976L25.7882 54.6872C25.4477 54.4867 25.2807 54.0818 25.3811 53.6969L26.9738 47.5408C27.0433 47.275 27.2271 47.0621 27.4663 46.9543C27.1502 46.4161 27.0536 45.7293 27.1108 45.228C27.2318 44.1761 27.4175 43.1498 27.6136 42.0629C27.6352 41.9438 27.6577 41.8227 27.6793 41.6997C25.6559 41.2892 24.9027 39.7379 24.2817 38.458C23.8173 37.5017 23.3783 36.5983 22.4778 36.0989C22.1467 35.9144 21.9694 35.5389 22.0369 35.1634C22.1035 34.7878 22.4018 34.4974 22.7761 34.4426L23.5144 34.3347C23.4956 34.2534 23.4796 34.1702 23.4665 34.085C23.4384 33.9081 23.4234 33.7379 23.414 33.561C22.8765 33.5061 22.4469 33.3046 22.1317 32.9584C21.6552 32.4344 21.5717 31.7344 21.6373 31.0439L21.1439 31.0127C20.9038 30.9966 20.6796 30.8821 20.5248 30.6958C20.371 30.5094 20.2987 30.2663 20.326 30.0251L20.3353 29.9494L19.8288 29.9996C19.6008 30.0223 19.3738 29.9542 19.1956 29.8113C18.9902 29.6467 18.7866 29.4812 18.5849 29.3157C16.9659 27.9914 15.5654 26.8459 13.6668 27.1221C13.3441 27.1684 13.0205 27.0313 12.8291 26.7645L11.0262 24.2531C10.8546 24.0147 10.8123 23.7054 10.9127 23.4282C11.0131 23.1511 11.2438 22.943 11.5271 22.8711L12.0571 22.7396C11.696 22.2733 11.3517 21.7814 11.1181 21.2138C10.7964 20.4363 11.3451 19.6124 11.786 18.9512L11.878 18.8131C12.2119 18.3051 12.8038 18.2824 13.1959 18.2673C13.2569 18.2644 13.316 18.2626 13.3694 18.2578C14.2202 18.1821 15.0495 18.2559 15.8524 18.3278C17.1873 18.448 18.448 18.5605 19.6468 17.9589C20.2866 17.6373 20.9629 17.6297 21.5492 17.9381C22.2339 18.2976 22.6889 19.0316 22.8315 20.0049C22.8755 20.3039 22.9562 20.5186 23.0472 20.581C23.1026 20.6189 23.3493 20.7257 24.2038 20.5176C25.2591 20.2622 26.335 20.5101 27.3753 20.7503C27.7383 20.8345 28.0807 20.913 28.4119 20.9688C28.5169 20.9859 28.6182 21.0086 28.7177 21.036L27.7515 12.78C27.7158 12.4735 27.8406 12.1689 28.0807 11.9788C28.3218 11.7877 28.6436 11.7357 28.9315 11.8445C29.2993 11.9816 29.6266 12.1008 29.9249 12.2086C30.6088 12.4574 31.1481 12.6542 31.6847 12.8925C31.8882 12.9824 32.9051 13.4781 32.8995 14.3455C32.8929 15.2611 33.2193 15.4267 34.6189 15.7379L34.7877 15.7757C35.3749 15.9082 35.9199 16.12 36.4471 16.3244C36.6938 16.4199 36.9415 16.5164 37.191 16.6025C37.6853 16.7727 38.1759 16.7311 38.5024 16.4899C38.7453 16.3111 38.8645 16.0472 38.857 15.7048C38.8063 13.3835 40.6261 13.1423 41.3118 13.0515C41.5041 13.0259 41.6964 13.0013 41.8887 12.9777C43.6672 12.7563 45.3463 12.5463 46.5086 11.2041C46.5508 11.1549 46.6314 10.9808 46.6652 10.7245C46.7281 10.2345 46.7778 9.72559 46.8256 9.23371C46.9194 8.26981 47.017 7.27281 47.2271 6.29095C47.4166 5.40746 48.4343 4.61382 49.2186 4.49369C50.0628 4.3641 50.9211 4.38775 51.7513 4.41234C52.0861 4.4218 52.4267 4.43125 52.7737 4.43125C53.087 4.43125 53.3769 4.59963 53.5345 4.873C53.7277 5.20881 53.8628 5.57771 53.9932 5.93433C54.1611 6.39026 54.3684 6.95592 54.6085 7.05714C54.783 7.12997 55.1507 7.05146 55.5935 6.84904C56.0353 6.64661 56.5559 6.84242 56.7585 7.287C56.8955 7.5897 57.0231 7.88956 57.1478 8.18468C57.4152 8.81656 57.6675 9.41249 57.9874 9.93275C58.4048 10.6119 58.7706 10.9241 58.9742 10.9893C59.9394 11.3015 61.5285 11.817 61.687 13.8668C61.8286 13.9728 62.0622 14.0948 62.1907 14.1251C62.4158 14.0608 62.7301 13.8091 63.0359 13.566C63.2432 13.4005 63.4571 13.2302 63.6982 13.0656C64.0105 12.8528 64.4223 12.8642 64.7225 13.094C65.0236 13.3248 65.1446 13.7221 65.0255 14.0825C64.5583 15.4882 65.169 15.9507 66.5948 16.8626C67.2167 17.2608 67.8602 17.6723 68.3527 18.2493C68.5928 18.5312 69.5703 18.6088 70.2841 18.6646C70.8113 18.7062 71.3563 18.7497 71.8619 18.8585C73.1517 19.1356 73.6939 19.5168 73.7324 20.1733C73.7905 21.1807 74.2098 21.3094 75.4124 21.5317C75.919 21.6253 76.4424 21.7218 76.9255 21.9602C77.5727 22.2771 78.3776 22.3877 79.2293 22.5031C79.6458 22.5599 80.0773 22.6195 80.5022 22.7056C81.4206 22.89 82.0894 23.4916 82.247 24.2758C82.3914 24.9985 82.0669 25.7136 81.3765 26.1875C80.1476 27.0294 79.8906 28.2875 79.5942 29.7423C79.4516 30.4413 79.3034 31.164 79.0351 31.863C78.8775 32.2736 78.856 32.8014 78.8325 33.3614C78.8053 33.9914 78.7781 34.6431 78.5633 35.2873C78.2763 36.1519 76.9808 37.3333 75.9246 37.1564C75.2998 37.0524 75.2998 37.0524 75.0353 37.9756C74.7952 38.8156 74.2436 39.5439 73.6836 40.207C73.2934 40.6686 72.8722 41.0981 72.4651 41.5143C71.8347 42.1604 71.2372 42.7695 70.7841 43.4544C70.6256 43.6928 70.4849 43.9482 70.3536 44.2159C71.0196 43.8564 71.83 43.8857 72.2972 43.9018L72.3816 43.9047C73.1649 43.9311 73.3684 44.704 73.5485 45.385C73.617 45.6461 73.7033 45.9706 73.784 46.1408C73.9566 46.505 74.1808 46.8569 74.465 47.3034C74.6066 47.5257 74.7586 47.764 74.919 48.0279C75.0409 48.2294 75.0794 48.4716 75.0241 48.7014C74.9687 48.9303 74.8252 49.129 74.6254 49.251C74.3684 49.408 74.0522 49.6455 74.0053 49.8848C73.9219 50.3133 74.5382 51.158 74.9894 51.7757C75.2332 52.1096 75.9752 53.1246 75.5906 54.184C75.2229 55.1999 74.071 55.5859 73.2371 55.7883C73.0936 55.8223 72.9135 55.9236 72.8065 56.0068C72.8441 56.125 72.9229 56.2736 72.9829 56.3265C73.6526 56.7191 74.5991 57.3878 74.782 58.4549C74.9153 59.2333 74.6216 60.045 73.8862 60.9332C73.8196 61.0874 73.799 61.4884 73.8402 61.7013C74.4809 62.1619 75.2633 62.4864 76.0878 62.8297C76.2801 62.9092 76.4715 62.9887 76.6609 63.07C76.7829 63.122 77.0061 63.1391 77.2219 63.1561C77.3729 63.1684 77.5249 63.1807 77.6721 63.2024C77.9479 63.2422 78.189 63.4115 78.3222 63.6593C78.4545 63.9062 78.4629 64.2032 78.3438 64.4577C78.2903 64.5731 78.2472 64.6989 78.2031 64.8247C78.0642 65.2154 77.8917 65.6997 77.4949 66.0544C76.9001 66.586 76.2745 67.0864 75.6685 67.5698C74.6676 68.37 73.7221 69.1249 72.9088 70.0065C72.7212 70.2098 72.5401 70.4227 72.361 70.6346C71.3544 71.816 70.1022 73.2841 67.8781 72.7724C66.8218 72.5293 65.8331 72.1008 64.8763 71.6864C64.2732 71.4254 63.7028 71.1775 63.1194 70.9742C62.6147 70.7992 62.0857 70.6762 61.5257 70.5447C60.9825 70.418 60.4206 70.2865 59.8653 70.1011C59.6674 70.0349 59.4657 69.9705 59.265 69.9062C58.2144 69.5704 57.1291 69.2223 56.2004 68.5611C55.4396 68.0181 55.0869 68.1099 54.4744 68.6368C54.3421 68.7503 54.2127 68.877 54.0832 69.0028C53.6508 69.4238 53.1611 69.9005 52.5036 70.0973C50.893 70.5816 50.3742 71.5474 50.4502 73.9245C50.4887 75.1476 49.9024 76.2619 48.8827 76.9032C48.3302 77.2504 47.7121 77.4235 47.0892 77.4235Z" fill="#37B4B4"/>
<path d="M45.455 75.0675C45.8227 75.0675 46.1088 75.2964 46.2363 75.3986C46.2598 75.4175 46.2851 75.4392 46.3095 75.4553C46.8245 75.7287 47.4474 75.7135 47.9511 75.3967C48.4398 75.0892 48.709 74.5737 48.6903 73.9825C48.619 71.7331 48.9567 69.3115 52.0006 68.3968C52.2483 68.323 52.5597 68.0194 52.8608 67.7262C53.0165 67.5748 53.1722 67.4244 53.3308 67.2882C54.6065 66.1881 55.8419 66.1323 57.2161 67.1113C57.9225 67.6145 58.8324 67.9059 59.7967 68.2143C60.0059 68.2814 60.2141 68.3476 60.4195 68.4167C60.897 68.5756 61.3951 68.692 61.9232 68.8159C62.5029 68.9511 63.1023 69.0911 63.6933 69.2964C64.3377 69.5215 64.9643 69.793 65.5703 70.055C66.4962 70.4561 67.3704 70.8345 68.2709 71.0435C69.4031 71.3036 70.0251 70.6529 71.025 69.478C71.2201 69.2491 71.4162 69.0192 71.6188 68.7988C72.5231 67.8179 73.5662 66.9846 74.5755 66.1786C75.1336 65.7331 75.7096 65.2724 76.2443 64.7995C76.1542 64.7739 76.0632 64.7418 75.9723 64.703C75.7884 64.6245 75.6036 64.5479 75.4179 64.4703C74.4714 64.0777 73.4911 63.671 72.645 63.0183C72.3308 62.7761 72.1404 62.3675 72.0794 61.8047C72.0147 61.2069 72.0906 60.3271 72.5174 59.8163C72.8983 59.3623 73.0859 58.9858 73.0465 58.7569C73.0231 58.616 72.8636 58.3095 72.0681 57.8413C71.3909 57.443 70.8984 56.3476 71.0532 55.5871C71.2248 54.7481 72.2313 54.2061 72.8251 54.0623C73.8063 53.8249 73.9367 53.578 73.9376 53.5751C73.9376 53.5742 73.9639 53.3642 73.5718 52.8279C72.8551 51.8479 72.0437 50.7364 72.2792 49.5408C72.3711 49.0707 72.6066 48.6535 72.994 48.2789C72.9902 48.2732 72.9874 48.2676 72.9837 48.2628C72.6788 47.7842 72.4152 47.3708 72.1948 46.9054C72.0437 46.5867 71.9396 46.1913 71.8477 45.8422C71.8336 45.7902 71.8177 45.7297 71.8008 45.6691C71.0747 45.6767 71.0616 45.8224 71.026 46.2395C70.9594 47.0312 70.6714 47.577 70.1705 47.8637C69.4538 48.2713 68.6461 47.9734 67.9492 47.6291C67.528 47.42 67.3432 46.9149 67.5289 46.4807C67.7015 46.0787 67.861 45.6615 68.0148 45.2567C68.3741 44.3117 68.7465 43.3346 69.3197 42.4681C69.8665 41.6433 70.5504 40.9442 71.2117 40.2679C71.6151 39.8564 71.995 39.4676 72.3439 39.0552C72.7754 38.5444 73.1966 37.9996 73.3439 37.4831C73.6018 36.5807 74.0314 35.0757 76.1383 35.3945C76.369 35.3179 76.8212 34.9215 76.8953 34.7229C77.0294 34.3171 77.051 33.8167 77.0735 33.286C77.1017 32.6078 77.1317 31.9059 77.3934 31.222C77.6091 30.6611 77.7358 30.0415 77.8699 29.385C78.1963 27.7826 78.5669 25.9674 80.3867 24.7197C80.4505 24.6753 80.488 24.6374 80.5067 24.6129C80.4692 24.5693 80.3642 24.488 80.1569 24.4454C79.7854 24.3707 79.4008 24.3187 78.9927 24.2629C78.0406 24.1323 77.0557 23.998 76.1542 23.5553C75.8878 23.4238 75.5032 23.3529 75.0952 23.2782C74.0558 23.0861 72.3617 22.773 72.025 20.7383C71.8852 20.692 71.6995 20.6381 71.494 20.5946C71.1029 20.5094 70.6385 20.4735 70.147 20.4347C68.9604 20.3411 67.7325 20.2436 67.0177 19.4074C66.6969 19.03 66.1894 18.7056 65.651 18.3622C64.6989 17.7521 63.4991 16.984 63.1858 15.6209C62.9551 15.7448 62.7093 15.8404 62.4373 15.8858C61.7178 16.0097 60.8707 15.4894 60.5218 15.1981C60.1419 14.8793 59.9458 14.5303 59.9393 14.1604C59.9252 13.3289 59.6728 13.0801 58.4356 12.68C57.748 12.4577 57.0932 11.8486 56.492 10.8686C56.1008 10.2339 55.81 9.54617 55.5286 8.8812C55.5126 8.84335 55.4967 8.80552 55.4807 8.76768C54.8982 8.91147 54.387 8.88782 53.932 8.69579C52.9837 8.29755 52.6282 7.32893 52.343 6.55044C52.298 6.42936 52.2548 6.31112 52.2117 6.1995C52.04 6.19572 51.8702 6.19193 51.7023 6.1872C50.9144 6.16355 50.1714 6.14275 49.4829 6.24869C49.3319 6.28085 48.9998 6.55233 48.9388 6.69611C48.7578 7.54839 48.6706 8.45174 48.5777 9.40713C48.528 9.91319 48.4773 10.4363 48.4098 10.9547C48.3666 11.2857 48.2353 11.9081 47.8338 12.3726C46.2298 14.2247 44.0385 14.4981 42.1052 14.7393C41.9167 14.7629 41.7281 14.7866 41.5414 14.8112C40.6756 14.9256 40.6034 15.0562 40.6165 15.6663C40.6362 16.582 40.2441 17.4049 39.5415 17.9233C38.7517 18.5069 37.6589 18.6412 36.6205 18.2818C36.3503 18.1891 36.0821 18.085 35.8147 17.981C35.326 17.7918 34.8635 17.6121 34.4039 17.508L34.2388 17.4711C33.0475 17.2063 31.2718 16.8109 31.1461 14.6163C31.0935 14.5804 31.0316 14.5425 30.9754 14.517C30.5814 14.342 30.1639 14.184 29.6668 14.0024L30.633 22.2584C30.6686 22.563 30.5457 22.8638 30.3093 23.0559C30.0711 23.2469 29.7531 23.3009 29.466 23.1996C29.224 23.1126 29.0148 23.0303 28.8272 22.9556C28.5271 22.8374 28.3094 22.7503 28.1246 22.7201C27.741 22.6557 27.3555 22.5668 26.9831 22.4807C26.1013 22.2774 25.2683 22.0844 24.6154 22.2443C23.8359 22.4334 22.8416 22.5829 22.0621 22.0522C21.5321 21.6909 21.2141 21.1063 21.0903 20.2654C21.0237 19.8123 20.8576 19.5758 20.7348 19.5115C20.6597 19.4727 20.5575 19.4841 20.4318 19.5474C18.7874 20.3732 17.1449 20.2257 15.6965 20.097C14.9367 20.028 14.2201 19.9627 13.524 20.0261C13.4434 20.0336 13.3552 20.0374 13.2642 20.0412C13.2389 20.0421 13.2098 20.0431 13.1788 20.045C13.0522 20.2361 12.8777 20.5085 12.8074 20.6759C13.0212 21.1186 13.3693 21.5556 13.736 22.0153C13.9255 22.2537 14.1169 22.494 14.2998 22.7447C14.4733 22.983 14.5184 23.2933 14.418 23.5723C14.3186 23.8504 14.0878 24.0604 13.8026 24.1314L13.2164 24.278L13.9593 25.3119C16.3325 25.1851 18.0398 26.5842 19.6945 27.9378C19.7995 28.0238 19.9065 28.1109 20.0134 28.1979L21.2488 28.0768C21.5133 28.0503 21.775 28.1468 21.9617 28.3388C22.1484 28.5299 22.2384 28.7957 22.2084 29.0615L22.1803 29.3008L22.7365 29.3358C22.9973 29.3529 23.2365 29.4853 23.3913 29.6981C23.5451 29.911 23.5977 30.1815 23.5339 30.4379C23.2647 31.5228 23.4279 31.7565 23.4298 31.7584C23.4616 31.782 23.6652 31.8416 24.1239 31.7669C24.3706 31.7262 24.6239 31.7943 24.8181 31.9542C25.0132 32.1131 25.1304 32.3486 25.1436 32.6002C25.152 32.7866 25.1557 32.954 25.1604 33.1091C25.1679 33.3901 25.1736 33.6114 25.2045 33.8034C25.2364 34.003 25.303 34.2244 25.3734 34.459C25.41 34.5819 25.4475 34.7059 25.4822 34.8317C25.5488 35.0767 25.5085 35.3396 25.3706 35.5534C25.2533 35.735 25.0741 35.8656 24.8696 35.9233C25.2852 36.4889 25.5835 37.1028 25.8621 37.6779C26.606 39.2094 27.0703 40.0087 28.7222 40.0286C28.9801 40.0314 29.2231 40.1487 29.3882 40.3483C29.5533 40.5488 29.6227 40.8118 29.5786 41.0681C29.5017 41.5165 29.4229 41.9535 29.345 42.382C29.1546 43.4396 28.9736 44.4385 28.8591 45.4326C28.8319 45.6663 28.9304 46.0011 29.0055 46.0863C30.133 47.1958 31.1236 48.5334 30.723 50.7676C30.6555 51.1422 30.3591 51.4317 29.9848 51.4875C29.6124 51.5414 29.2447 51.3522 29.073 51.0126L28.2935 49.4717L27.2523 53.4938L28.0233 53.9488C28.2897 54.1049 28.4548 54.3905 28.4595 54.7017C28.4642 55.012 28.3076 55.3024 28.0468 55.467C27.8095 55.6174 27.5693 55.7356 27.3583 55.8397C27.2054 55.9144 26.9821 56.0251 26.8911 56.0932C26.4193 57.2463 25.984 58.4457 25.5629 59.6064C25.1867 60.645 24.7974 61.7186 24.379 62.7676C24.1117 63.4373 23.7384 64.0295 23.3425 64.6576C23.3341 64.6699 23.3266 64.6822 23.3181 64.6954L24.2083 65.0842C24.5704 65.2412 24.7833 65.6234 24.7308 66.0178L24.5957 67.0347C25.6135 67.3327 26.4596 67.8889 27.2832 68.4299C28.2597 69.0722 29.1828 69.6776 30.2784 69.7258C30.83 69.7495 31.1132 70.1865 31.2652 70.4211C31.2896 70.4589 31.313 70.4987 31.3393 70.5308C31.5757 70.8014 32.3571 71.0842 33.3861 71.0946C34.3682 71.088 35.2903 70.8515 35.629 70.4788C35.9488 70.1279 36.4863 70.0938 36.8475 70.4031C37.2049 70.7096 37.6927 70.9395 38.2095 71.1835C39.3286 71.7104 40.8032 72.4056 41.1362 74.2805C41.8923 74.323 42.5574 74.6097 43.1267 74.8537C43.9785 75.2217 44.4897 75.4165 45.0779 75.1507C45.2101 75.0902 45.3368 75.0675 45.455 75.0675Z" fill="white"/>
<path d="M42.1343 31.8532C46.5169 31.8532 50.0702 35.4364 50.0702 39.8558C50.0702 44.2751 50.4388 44.6469 42.1343 53.0211C33.8298 44.6469 34.1985 44.2751 34.1985 39.8558C34.1985 35.4364 37.7518 31.8532 42.1343 31.8532Z" fill="#23333C"/>
<path d="M42.134 41.8926C40.9211 41.8926 39.9343 40.8975 39.9343 39.6744C39.9343 38.4513 40.9211 37.4562 42.134 37.4562C43.3469 37.4562 44.3337 38.4513 44.3337 39.6744C44.3337 40.8975 43.3469 41.8926 42.134 41.8926ZM42.134 29.7876C36.6287 29.7876 32.1504 34.3044 32.1504 39.856L32.1486 40.3867C32.1317 45.1655 32.657 46.3857 40.6866 54.4819C41.0862 54.8848 41.6097 55.0863 42.134 55.0863C42.6584 55.0863 43.1827 54.8848 43.5824 54.4819C51.6111 46.3857 52.1373 45.1655 52.1195 40.3867L52.1185 39.856C52.1185 34.3044 47.6394 29.7876 42.134 29.7876ZM42.134 43.9575C44.4801 43.9575 46.3815 42.0401 46.3815 39.6744C46.3815 37.3086 44.4801 35.3912 42.134 35.3912C39.7889 35.3912 37.8866 37.3086 37.8866 39.6744C37.8866 42.0401 39.7889 43.9575 42.134 43.9575ZM42.134 31.8535C46.5165 31.8535 50.0698 35.4357 50.0698 39.856C50.0698 44.2753 50.4385 44.6471 42.134 53.0214C33.8295 44.6471 34.1982 44.2753 34.1982 39.856C34.1982 35.4357 37.7515 31.8535 42.134 31.8535Z" fill="#37B4B4"/>
</g>
<defs>
<clipPath id="clip0_689_545">
<rect width="250" height="80.7692" fill="white"/>
</clipPath>
</defs>
</svg>
