<svg id="Calque_1" data-name="Calque 1" xmlns="http://www.w3.org/2000/svg" viewBox="0 0 198.38 85.04"><defs><style>.cls-1{fill:#c7297e;}.cls-2{fill:#fff;}.cls-3{fill:#2c363e;}.cls-4{fill:#2b343d;}</style></defs><title>PE_LaBonneBoite-H</title><rect class="cls-1" x="100.25" y="59.74" width="66.76" height="15.31"/><path class="cls-2" d="M158.78,133.27h-.47v2.81h-1.26v-7.91h1.88c1.7,0,2.79.89,2.79,2.51A2.62,2.62,0,0,1,158.78,133.27Zm0-4h-.5v3h.55a1.39,1.39,0,0,0,1.56-1.53A1.41,1.41,0,0,0,158.81,129.26Z" transform="translate(-51.23 -65.53)"/><path class="cls-2" d="M167.14,131.06a3,3,0,0,1,.78,2.16,3.14,3.14,0,0,1-.8,2.2,2.73,2.73,0,0,1-2,.78,2.59,2.59,0,0,1-1.89-.7,3,3,0,0,1-.86-2.24,3.11,3.11,0,0,1,.82-2.21,2.62,2.62,0,0,1,1.93-.79A2.65,2.65,0,0,1,167.14,131.06Zm-1.27-1.35-.7-1-.67,1h-1.08l1.24-1.76h1l1.25,1.76Zm-2.2,3.52c0,1.18.57,2,1.49,2s1.48-.81,1.48-2-.55-2-1.5-2S163.67,132.07,163.67,133.23Z" transform="translate(-51.23 -65.53)"/><path class="cls-2" d="M170.25,136.2a1.08,1.08,0,0,1-1.19-1.19v-7.42h1.25v6.88c0,.46.1.6.41.6a1.2,1.2,0,0,0,.37,0l.16.93A2,2,0,0,1,170.25,136.2Z" transform="translate(-51.23 -65.53)"/><path class="cls-2" d="M173,133.53a1.61,1.61,0,0,0,1.7,1.64,2.94,2.94,0,0,0,1.43-.4l.32.81a3.49,3.49,0,0,1-2,.62,2.72,2.72,0,0,1-2.76-3c0-1.62,1-2.94,2.49-2.94s2.44,1.16,2.44,2.93v.34Zm1.17-2.3a1.27,1.27,0,0,0-1.19,1.38h2.37A1.27,1.27,0,0,0,174.16,131.23Z" transform="translate(-51.23 -65.53)"/><path class="cls-2" d="M181.7,133.53a1.61,1.61,0,0,0,1.7,1.64,2.88,2.88,0,0,0,1.43-.4l.32.81a3.49,3.49,0,0,1-2,.62,2.71,2.71,0,0,1-2.75-3c0-1.62.94-2.94,2.48-2.94s2.45,1.16,2.45,2.93v.34Zm1.18-2.3a1.27,1.27,0,0,0-1.19,1.38h2.36A1.26,1.26,0,0,0,182.88,131.23Z" transform="translate(-51.23 -65.53)"/><path class="cls-2" d="M193.73,136.08v-3.55c0-.67-.12-1.18-.84-1.18a2.45,2.45,0,0,0-1.51.67v4.06h-1.25v-3.53c0-.67-.13-1.2-.85-1.2a2.39,2.39,0,0,0-1.51.69v4h-1.25V130.4h1l.14.64a3.22,3.22,0,0,1,2-.78,1.49,1.49,0,0,1,1.45.89,3.29,3.29,0,0,1,2-.89,1.69,1.69,0,0,1,1.82,1.91v3.91Z" transform="translate(-51.23 -65.53)"/><path class="cls-2" d="M198.51,136.2a2.18,2.18,0,0,1-.85-.16v2.88h-1.25v-8.28a6.14,6.14,0,0,1,2.09-.38,2.68,2.68,0,0,1,3,2.89A2.9,2.9,0,0,1,198.51,136.2Zm-.08-4.87a2.61,2.61,0,0,0-.77.09V135a1.83,1.83,0,0,0,.79.17c1.08,0,1.73-.77,1.73-2A1.68,1.68,0,0,0,198.43,131.33Z" transform="translate(-51.23 -65.53)"/><path class="cls-2" d="M203.8,136.2a1.07,1.07,0,0,1-1.18-1.19v-7.42h1.24v6.88c0,.46.1.6.41.6a1.14,1.14,0,0,0,.37,0l.16.93A2,2,0,0,1,203.8,136.2Z" transform="translate(-51.23 -65.53)"/><path class="cls-2" d="M210,131.06a3,3,0,0,1,.78,2.16,3.14,3.14,0,0,1-.8,2.2,2.73,2.73,0,0,1-2,.78,2.59,2.59,0,0,1-1.89-.7,3,3,0,0,1-.86-2.24,3.11,3.11,0,0,1,.82-2.21,2.62,2.62,0,0,1,1.93-.79A2.65,2.65,0,0,1,210,131.06Zm-3.46,2.17c0,1.18.56,2,1.48,2s1.48-.81,1.48-2-.55-2-1.5-2S206.52,132.07,206.52,133.23Z" transform="translate(-51.23 -65.53)"/><path class="cls-2" d="M213.38,128.64a.8.8,0,1,1-.79-.78A.78.78,0,0,1,213.38,128.64ZM212,136.08V130.4h1.25v5.68Z" transform="translate(-51.23 -65.53)"/><path class="cls-3" d="M136.27,108.05A42.52,42.52,0,1,1,93.75,65.53a42.52,42.52,0,0,1,42.52,42.52" transform="translate(-51.23 -65.53)"/><path class="cls-4" d="M151,95.06V77.92h3.53v14.2h6v2.94Z" transform="translate(-51.23 -65.53)"/><path class="cls-4" d="M170,95.06,169.44,94A5,5,0,0,1,166,95.32a3.88,3.88,0,0,1-4.11-4c0-2.6,2.11-4,5.23-4l2.08-.08V87c0-1.3-1-1.85-2.31-1.85a6.33,6.33,0,0,0-3.1.84l-1.06-2.14a8.62,8.62,0,0,1,5-1.35c3.28,0,5.1,1.33,5.1,4.58v5.22a11,11,0,0,0,.21,2.79Zm-.86-5.57-1.53.05c-1.51.06-2.24.58-2.24,1.51s.68,1.54,1.88,1.54a3,3,0,0,0,1.89-.58Z" transform="translate(-51.23 -65.53)"/><path class="cls-4" d="M185.82,95.32a9,9,0,0,1-4.24-.91V76.65h3.53v6.11a9.16,9.16,0,0,1,2.24-.29,5.7,5.7,0,0,1,6,6C193.38,92.74,190,95.32,185.82,95.32Zm.78-9.91a3.79,3.79,0,0,0-1.49.29v6.57a4.47,4.47,0,0,0,1.38.19,3.44,3.44,0,0,0,3.36-3.7A3.26,3.26,0,0,0,186.6,85.41Z" transform="translate(-51.23 -65.53)"/><path class="cls-4" d="M206,93.47a6.35,6.35,0,0,1-4.63,1.85A6,6,0,0,1,195,89a6.7,6.7,0,0,1,1.82-4.71,6.21,6.21,0,0,1,4.53-1.82,6.3,6.3,0,0,1,4.73,1.85,6.41,6.41,0,0,1,1.64,4.52A6.48,6.48,0,0,1,206,93.47Zm-4.68-8.24c-1.85,0-2.71,1.58-2.71,3.69s1,3.72,2.78,3.72,2.73-1.61,2.73-3.72S203.05,85.23,201.29,85.23Z" transform="translate(-51.23 -65.53)"/><path class="cls-4" d="M218,95.06V87.93c0-1.17-.26-2.47-1.72-2.47a5.26,5.26,0,0,0-2.88,1.07v8.53h-3.54V82.76h3l.37,1.3a6.9,6.9,0,0,1,4.31-1.59c1.9,0,4,1.09,4,4.45v8.14Z" transform="translate(-51.23 -65.53)"/><path class="cls-4" d="M232.43,95.06V87.93c0-1.17-.26-2.47-1.71-2.47a5.27,5.27,0,0,0-2.89,1.07v8.53h-3.54V82.76h3l.37,1.3A6.94,6.94,0,0,1,232,82.47c1.9,0,4,1.09,4,4.45v8.14Z" transform="translate(-51.23 -65.53)"/><path class="cls-4" d="M241.66,89.88a3,3,0,0,0,3.28,2.65,6.58,6.58,0,0,0,3.3-.85l.81,2.23a8.37,8.37,0,0,1-4.68,1.41c-4.42,0-6.24-3.12-6.24-6.35,0-3.48,2.08-6.5,5.77-6.5,3.38,0,5.72,2.52,5.72,6.35v1.06Zm2.13-4.83a2.33,2.33,0,0,0-2.21,2.41H246A2.3,2.3,0,0,0,243.79,85.05Z" transform="translate(-51.23 -65.53)"/><path class="cls-4" d="M155,118.33a9,9,0,0,1-4.24-.91V99.66h3.53v6.11a9.16,9.16,0,0,1,2.24-.29,5.7,5.7,0,0,1,6,6C162.57,115.75,159.14,118.33,155,118.33Zm.78-9.91a3.79,3.79,0,0,0-1.49.29v6.58a4.48,4.48,0,0,0,1.38.18,3.43,3.43,0,0,0,3.36-3.69A3.26,3.26,0,0,0,155.79,108.42Z" transform="translate(-51.23 -65.53)"/><path class="cls-4" d="M175.21,116.48a6.84,6.84,0,0,1-9,.31,6.28,6.28,0,0,1-2-4.78,6.66,6.66,0,0,1,1.82-4.71,6.17,6.17,0,0,1,4.52-1.82,6.3,6.3,0,0,1,4.73,1.85,6.41,6.41,0,0,1,1.64,4.52A6.48,6.48,0,0,1,175.21,116.48Zm-4.68-8.24c-1.85,0-2.71,1.59-2.71,3.69s1,3.72,2.79,3.72,2.73-1.61,2.73-3.72S172.3,108.24,170.53,108.24Z" transform="translate(-51.23 -65.53)"/><path class="cls-4" d="M181.27,104.08a2.06,2.06,0,1,1,0-4.11,2,2,0,0,1,2.13,2A2.08,2.08,0,0,1,181.27,104.08Zm-1.77,14v-12.3H183v12.3Z" transform="translate(-51.23 -65.53)"/><path class="cls-4" d="M190.68,118.33c-2.47,0-3.36-1.3-3.36-3v-7h-2.26v-2.6h2.26v-2.86l3.51-1v3.9h3.85l-1,2.6h-2.84v5.9c0,.83.37,1.25,1.22,1.25a5.64,5.64,0,0,0,2-.49l.81,2.31A8.39,8.39,0,0,1,190.68,118.33Z" transform="translate(-51.23 -65.53)"/><path class="cls-4" d="M199.44,112.89a3,3,0,0,0,3.27,2.65,6.59,6.59,0,0,0,3.31-.85l.8,2.23a8.32,8.32,0,0,1-4.68,1.41c-4.42,0-6.24-3.12-6.24-6.35,0-3.48,2.08-6.5,5.77-6.5,3.38,0,5.73,2.52,5.73,6.35v1.06Zm2.13-4.83a2.33,2.33,0,0,0-2.21,2.41h4.45A2.3,2.3,0,0,0,201.57,108.06Z" transform="translate(-51.23 -65.53)"/><path class="cls-2" d="M100.44,89.87a20.9,20.9,0,1,0,20.9-20.67,20.78,20.78,0,0,0-20.9,20.67" transform="translate(-51.23 -65.53)"/><path class="cls-1" d="M104.13,89.87a17.21,17.21,0,1,0,17.21-17,17.14,17.14,0,0,0-17.21,17M85.32,120.53l9.54-9.45a6.79,6.79,0,0,1,7.77-1.2l2.17-2.14a24.05,24.05,0,0,1-8-17.87,24.79,24.79,0,1,1,12.1,20.83l-2.7,2.67a6.6,6.6,0,0,1-1.22,7.69L95.4,130.5a6.78,6.78,0,0,1-9.5,0l-.58-.57a6.6,6.6,0,0,1,0-9.4" transform="translate(-51.23 -65.53)"/></svg>