<svg xmlns="http://www.w3.org/2000/svg" width="130" height="104"><path fill="#7C408B" d="M2.2.5H.7c-.4 0-.7.3-.7.7v23.7c0 .4.3.7.7.7h1.5c.4 0 .7-.3.7-.7V1.2C3 .8 2.7.5 2.2.5M23 21.5v-7.6c0-4.3-2.4-6.6-6.8-6.6-2.1 0-4.3.5-5.8.9-.2.1-.4.1-.4.4l-.1.6.4 1.4c.1.2.1.4.4.4l.6.1c1.3-.4 3.3-.9 5-.9 2.7 0 4 1.3 4 4.1v.6h-2.6C14 15 9 15.7 9 20.6c0 3.4 2.2 5.5 5.9 5.5 2.2 0 3.8-.7 5.4-2.2l.2 1.2c.1.4.4.6.7.6h1.7c.4 0 .7-.3.7-.7l-.1-.3c-.2-.7-.5-2.4-.5-3.2m-3-3.3c0 3.2-1.8 5.1-5.1 5.1-1.4 0-3-.4-3-2.6 0-2 .9-2.9 5.9-3l2.2-.1v.6zM7.7 84.7c-1.4 0-2.5.3-3.5.8-.4.2-.9.5-1.2.9v-7.8c0-.4-.3-.7-.7-.7H.7c-.4 0-.7.3-.7.7v23.7c0 .4.3.7.7.7h1c.4 0 .7-.3.7-.6l.1-1.1c.4.4 1 .9 1.6 1.2 1.1.5 2.2.8 3.5.8 2.5 0 4.4-.9 5.8-2.5 1.4-1.6 2-3.9 2-6.9s-.7-5.3-2-6.9c-1.1-1.5-3.1-2.3-5.7-2.3M11.2 99c-.8 1.1-2 1.6-3.5 1.6-1.7 0-2.8-.4-3.5-1.4-.8-.9-1.2-2.6-1.2-4.9V94c0-2.4.4-4.1 1.2-5.1.7-.9 1.9-1.4 3.6-1.4 2 0 4.7.7 4.7 6.4a9.7 9.7 0 0 1-1.3 5.1M29 84.7c-2.5 0-4.5.9-6 2.5a10.3 10.3 0 0 0-2.2 6.8c0 1.8.3 3.5.9 4.8a8.3 8.3 0 0 0 2.8 3.3c1.2.8 2.7 1.2 4.3 1.2 2.5 0 4.6-.9 6-2.5A10 10 0 0 0 37 94a10 10 0 0 0-2.1-6.7c-1.4-1.8-3.4-2.6-5.9-2.6m3.6 14.2a4.5 4.5 0 0 1-3.7 1.7c-1.6 0-2.8-.5-3.7-1.7a7.7 7.7 0 0 1-1.4-4.9c0-2.1.4-3.8 1.3-4.9.9-1.1 2.1-1.6 3.7-1.6s2.8.5 3.7 1.6a7.4 7.4 0 0 1 1.4 4.8c.1 2.2-.3 3.9-1.3 5M62.5 100.4l-2.3.2c-.7 0-1.2-.2-1.5-.7-.4-.5-.5-1.3-.5-2.4v-9.8h4c.4 0 .7-.3.7-.7v-1.3c0-.4-.3-.7-.7-.7H58v-3.3c0-.4-.3-.7-.7-.7h-.8c-.4 0-.6.2-.7.6l-.7 3.4-2 .6c-.3.1-.5.4-.5.7v.9c0 .4.3.7.7.7H55v10c0 1.9.4 3.3 1.2 4.2a5 5 0 0 0 3.8 1.4c1 0 2-.1 2.7-.4.3-.1.5-.4.5-.7V101l-.3-.6c-.1-.1-.2-.1-.4 0M45.6 85h-1.5c-.4 0-.7.3-.7.7v16.6c0 .4.3.7.7.7h1.5c.4 0 .7-.3.7-.7V85.8c0-.5-.3-.8-.7-.8M44.8 78.4a2 2 0 0 0-2 2c0 1.1.9 2 2 2a2 2 0 0 0 2-2 2 2 0 0 0-2-2M82.7 94.9v-1.2c0-5.7-2.6-9-7.2-9-5 0-8 3.8-8 10.1 0 5.1 3.5 8.6 8.5 8.6a11 11 0 0 0 6.1-1.4c.3-.1.4-.6.3-.9l-.5-1.2c-.1-.2-.2-.4-.4-.4-.2-.1-.4-.1-.6.1-1.4.8-3.1 1.2-4.6 1.2s-5.1-.5-5.6-5.1H82c.5 0 .7-.4.7-.8m-11.9-2.1c.2-3.3 2.1-5.4 4.8-5.4.9 0 3.8 0 4.1 5.4h-8.9zM7.7 45.8c-1.4 0-2.5.3-3.5.8-.4.2-.9.5-1.2.9v-7.7c0-.4-.3-.7-.7-.7H.7c-.4 0-.7.3-.7.7v23.7c0 .4.3.7.7.7h1c.4 0 .7-.3.7-.6l.1-1.1a6.7 6.7 0 0 0 5.1 2c2.5 0 4.4-.9 5.8-2.5 1.4-1.6 2-3.9 2-6.9 0-3-.7-5.3-2-6.9-1.1-1.6-3.1-2.4-5.7-2.4m3.5 14.3c-.8 1.1-2 1.6-3.5 1.6-1.7 0-2.8-.4-3.5-1.4-.8-.9-1.2-2.6-1.2-4.9v-.3c0-2.4.4-4.1 1.2-5.1.7-.9 1.9-1.4 3.6-1.4 2 0 4.7.7 4.7 6.4a9.7 9.7 0 0 1-1.3 5.1M52.2 45.8c-2.3 0-4.1.6-5.4 1.7l-.1-.7c0-.5-.3-.8-.6-.8h-1.3c-.4 0-.7.3-.7.7v16.6c0 .4.3.7.7.7h1.5c.4 0 .7-.3.7-.7v-9.1c0-2 .4-3.5 1.2-4.4.8-.9 2.1-1.3 3.8-1.3 1.2 0 2.2.3 2.7.9.6.7.9 1.7.9 3.2v10.7c0 .4.3.7.7.7h1.4c.4 0 .7-.3.7-.7V52.6c.2-4.5-2-6.8-6.2-6.8M73.8 45.8c-2.3 0-4 .6-5.4 1.7l-.1-.7c0-.5-.2-.8-.6-.8h-1.3c-.4 0-.7.3-.7.7v16.6c0 .4.3.7.7.7h1.5c.4 0 .7-.3.7-.7v-9.1c0-2 .4-3.5 1.2-4.4.8-.9 2.1-1.3 3.8-1.3 1.2 0 2.2.3 2.7.9.6.7.9 1.7.9 3.2v10.7c0 .4.3.7.7.7h1.5c.4 0 .7-.3.7-.7V52.6c.2-4.5-2.1-6.8-6.3-6.8M94.3 45.8c-5 0-8 3.8-8 10.1 0 5.1 3.5 8.6 8.5 8.6a11 11 0 0 0 6.1-1.4c.3-.1.4-.6.3-.9l-.5-1.2c-.1-.2-.2-.4-.4-.4-.2-.1-.4-.1-.6.1-1.4.8-3.1 1.2-4.6 1.2s-5.1-.5-5.6-5.1h11.2c.4 0 .7-.3.7-.7v-1.3c.1-5.7-2.5-9-7.1-9m-4.8 8.1c.2-3.3 2.1-5.4 4.8-5.4.9 0 3.8 0 4 5.4h-8.8z"/><path fill="#1D1D1B" d="M37.7 62.8c-.4-.5-.9-.8-1.5-.9l-.6-.7 1.3-2.2c.4-1.1.7-2.2.7-3.5 0-1.2-.2-2.4-.7-3.5-.5-1.1-1.1-2-1.9-2.9-.8-.8-1.7-1.4-2.8-2a8 8 0 0 0-3.4-.7c-1.2 0-2.4.2-3.4.7-1.1.5-2 1.2-2.8 2a9.5 9.5 0 0 0-1.9 10 9 9 0 0 0 1.9 2.9c.8.8 1.7 1.4 2.8 1.9a8 8 0 0 0 3.4.7c1.2 0 2.4-.2 3.4-.7l.5-.7c.4-.3.8-.5 1.3-.6-.4.4-.7.9-.7 1.4-.1.7.1 1.4.6 2l3.3 3.9a2.4 2.4 0 0 0 3.5.3c1.1-.9 1.2-2.5.3-3.5l-3.3-3.9zm-3.8-5a5.7 5.7 0 0 1-3 3c-.7.3-1.4.4-2.2.4a5.4 5.4 0 0 1-4-1.6 5.4 5.4 0 0 1-1.6-4c0-.8.1-1.6.4-2.3a5.7 5.7 0 0 1 3-3c.7-.3 1.4-.4 2.2-.4a5.4 5.4 0 0 1 4 1.6 7 7 0 0 1 1.2 1.8c.3.7.4 1.4.4 2.3.1.7-.1 1.4-.4 2.2"/></svg>