<svg xmlns="http://www.w3.org/2000/svg" viewBox="0 0 260 50"><defs><style>.cls-1{fill:#1b2e57}.cls-2{fill:#fff}</style></defs><g id="Calque_1_-_copie" data-name="Calque 1 - copie"><rect class="cls-1" x="5" y="3.5" width="250" height="42" rx="21" ry="21"/><path class="cls-2" d="M71.4 21.5a.4.4 0 0 1-.1.2.4.4 0 0 1-.2 0 .5.5 0 0 1-.3 0l-.4-.3a3 3 0 0 0-.4-.2 2 2 0 0 0-.7 0 1.9 1.9 0 0 0-.6 0 1.2 1.2 0 0 0-.4.2.9.9 0 0 0-.2.4 1.1 1.1 0 0 0-.1.4.8.8 0 0 0 .1.5 1.4 1.4 0 0 0 .5.4 4.2 4.2 0 0 0 .6.3l.8.2a7.1 7.1 0 0 1 .7.3 2.5 2.5 0 0 1 .6.4 2 2 0 0 1 .5.7 2.2 2.2 0 0 1 .2.9 3 3 0 0 1-.2 1 2.5 2.5 0 0 1-.6 1 2.8 2.8 0 0 1-1 .6 3.5 3.5 0 0 1-1.2.2 4 4 0 0 1-.9 0 4.3 4.3 0 0 1-.7-.3 4 4 0 0 1-.7-.4 3.4 3.4 0 0 1-.6-.4l.5-.8a.6.6 0 0 1 .1-.2.4.4 0 0 1 .2 0 .6.6 0 0 1 .4.1l.4.3a3.1 3.1 0 0 0 .5.2 2.1 2.1 0 0 0 .8.2 1.6 1.6 0 0 0 1-.4 1.2 1.2 0 0 0 .5-1 .9.9 0 0 0-.2-.5 1.4 1.4 0 0 0-.5-.4 3.4 3.4 0 0 0-.6-.2l-.7-.2a6.4 6.4 0 0 1-.8-.3 2.4 2.4 0 0 1-.6-.5 2 2 0 0 1-.5-.6 2.6 2.6 0 0 1-.1-1 2.4 2.4 0 0 1 .7-1.8 2.7 2.7 0 0 1 1-.5 3.2 3.2 0 0 1 1.1-.2 4 4 0 0 1 1.4.2 3.2 3.2 0 0 1 1.1.7zM75.7 22.4a3 3 0 0 1 1 .1 2.3 2.3 0 0 1 .9.6 2.5 2.5 0 0 1 .5.9 3.3 3.3 0 0 1 .2 1.2 2.2 2.2 0 0 1 0 .2.4.4 0 0 1 0 .2.2.2 0 0 1-.1 0 .5.5 0 0 1-.2 0h-3.8a2.1 2.1 0 0 0 .5 1.5 1.6 1.6 0 0 0 1.2.4 2 2 0 0 0 .6 0 3 3 0 0 0 .5-.2l.3-.2a.6.6 0 0 1 .3-.1.3.3 0 0 1 .2 0l.5.6a2.4 2.4 0 0 1-.5.5 3 3 0 0 1-.7.3 3.5 3.5 0 0 1-.6.2 4.8 4.8 0 0 1-.7 0 3.3 3.3 0 0 1-1.2-.2 2.7 2.7 0 0 1-1-.7 3 3 0 0 1-.6-1 4 4 0 0 1-.3-1.4 3.4 3.4 0 0 1 .2-1.2 2.8 2.8 0 0 1 .6-1 2.8 2.8 0 0 1 1-.6 3 3 0 0 1 1.2-.1zm0 1a1.4 1.4 0 0 0-1 .4 1.8 1.8 0 0 0-.5 1H77a1.9 1.9 0 0 0 0-.6 1.3 1.3 0 0 0-.3-.4 1.1 1.1 0 0 0-.4-.3 1.4 1.4 0 0 0-.6 0zM86.2 23.7a.8.8 0 0 1-.1.2.3.3 0 0 1-.2 0 .4.4 0 0 1-.3-.1l-.2-.2a2 2 0 0 0-.4-.1 1.6 1.6 0 0 0-.5 0 1.6 1.6 0 0 0-.7 0 1.3 1.3 0 0 0-.5.4 1.8 1.8 0 0 0-.2.7 3.4 3.4 0 0 0-.1.8 3.3 3.3 0 0 0 0 1 1.8 1.8 0 0 0 .4.6 1.3 1.3 0 0 0 .4.4 1.4 1.4 0 0 0 .7 0 1.6 1.6 0 0 0 .5 0 1.8 1.8 0 0 0 .4-.2l.3-.2a.4.4 0 0 1 .2 0 .3.3 0 0 1 .3 0l.4.6a2.7 2.7 0 0 1-.5.5 3 3 0 0 1-.6.3 3 3 0 0 1-.6.2 4.5 4.5 0 0 1-.7 0 2.7 2.7 0 0 1-1-.2 2.5 2.5 0 0 1-1-.7 3 3 0 0 1-.5-1 3.9 3.9 0 0 1-.3-1.3 3.9 3.9 0 0 1 .2-1.3 2.8 2.8 0 0 1 .6-1 2.6 2.6 0 0 1 1-.6 3.2 3.2 0 0 1 1.2-.3 3 3 0 0 1 1.3.2 3 3 0 0 1 .9.7zM90.2 22.4a3.4 3.4 0 0 1 1.3.2 2.7 2.7 0 0 1 1 .6 2.8 2.8 0 0 1 .6 1 4.1 4.1 0 0 1 0 2.6 2.9 2.9 0 0 1-.6 1 2.7 2.7 0 0 1-1 .7 3.6 3.6 0 0 1-2.5 0 2.7 2.7 0 0 1-1-.7 2.9 2.9 0 0 1-.7-1 4 4 0 0 1 0-2.6 2.8 2.8 0 0 1 .7-1 2.7 2.7 0 0 1 1-.6 3.4 3.4 0 0 1 1.2-.3zm0 5.2a1.3 1.3 0 0 0 1.1-.6 2.6 2.6 0 0 0 .4-1.5 2.6 2.6 0 0 0-.4-1.5 1.3 1.3 0 0 0-1.1-.5 1.3 1.3 0 0 0-1.1.5 2.6 2.6 0 0 0-.4 1.5A2.6 2.6 0 0 0 89 27a1.3 1.3 0 0 0 1.2.6zM94.4 28.6v-6.2h1a.4.4 0 0 1 .3.3v.5a3.3 3.3 0 0 1 .5-.3 2.8 2.8 0 0 1 .4-.3 2.3 2.3 0 0 1 .5-.2 2.6 2.6 0 0 1 .6 0 2.2 2.2 0 0 1 .9.1 1.8 1.8 0 0 1 .6.5 2.1 2.1 0 0 1 .4.7 3.1 3.1 0 0 1 .2 1v3.9h-1.5v-4a1.3 1.3 0 0 0-.3-.8 1 1 0 0 0-.8-.3 1.5 1.5 0 0 0-.7.2 2.6 2.6 0 0 0-.6.4v4.5zM101.2 28.6v-6.2h1a.4.4 0 0 1 .3.3l.1.5a3.3 3.3 0 0 1 .4-.3 2.7 2.7 0 0 1 .4-.3 2.3 2.3 0 0 1 .5-.2 2.6 2.6 0 0 1 .6 0 2.2 2.2 0 0 1 1 .1 1.8 1.8 0 0 1 .6.5 2.1 2.1 0 0 1 .4.7 3.1 3.1 0 0 1 0 1v3.9h-1.4v-4a1.3 1.3 0 0 0-.3-.8 1 1 0 0 0-.7-.3 1.5 1.5 0 0 0-.8.2 2.6 2.6 0 0 0-.6.4v4.5zM110.6 22.4a3 3 0 0 1 1 .1 2.3 2.3 0 0 1 .9.6 2.5 2.5 0 0 1 .6.9 3.3 3.3 0 0 1 .2 1.2 2 2 0 0 1 0 .2.5.5 0 0 1-.1.2.2.2 0 0 1-.1 0 .4.4 0 0 1-.2 0h-3.8a2.1 2.1 0 0 0 .5 1.5 1.6 1.6 0 0 0 1.2.4 2 2 0 0 0 .6 0 3 3 0 0 0 .5-.2l.3-.2a.6.6 0 0 1 .3-.1.3.3 0 0 1 .2 0l.5.6a2.5 2.5 0 0 1-.5.5 3.1 3.1 0 0 1-.7.3 3.5 3.5 0 0 1-.6.2 4.8 4.8 0 0 1-.7 0 3.3 3.3 0 0 1-1.2-.2 2.7 2.7 0 0 1-1-.7 3 3 0 0 1-.6-1 4 4 0 0 1-.3-1.4 3.4 3.4 0 0 1 .2-1.2 2.9 2.9 0 0 1 .6-1 2.8 2.8 0 0 1 1-.6 3 3 0 0 1 1.2-.1zm0 1a1.4 1.4 0 0 0-1 .4 1.8 1.8 0 0 0-.5 1h2.8a1.8 1.8 0 0 0 0-.6 1.2 1.2 0 0 0-.3-.4 1.1 1.1 0 0 0-.4-.3 1.4 1.4 0 0 0-.6 0zM118.8 23.7a.7.7 0 0 1-.1.2.3.3 0 0 1-.2 0 .4.4 0 0 1-.3-.1l-.2-.1a2 2 0 0 0-.4-.2 1.6 1.6 0 0 0-.5 0 1.6 1.6 0 0 0-.6.1 1.3 1.3 0 0 0-.5.4 1.8 1.8 0 0 0-.3.6 3.4 3.4 0 0 0-.1.9 3.4 3.4 0 0 0 0 .9 1.8 1.8 0 0 0 .4.6 1.3 1.3 0 0 0 .4.4 1.5 1.5 0 0 0 .7.1 1.6 1.6 0 0 0 .6 0 1.8 1.8 0 0 0 .3-.2l.3-.2a.4.4 0 0 1 .2-.1.3.3 0 0 1 .3.1l.4.6a2.7 2.7 0 0 1-.5.4 3 3 0 0 1-.6.4 3 3 0 0 1-.6.1 4.5 4.5 0 0 1-.7 0 2.7 2.7 0 0 1-1-.2 2.5 2.5 0 0 1-1-.6 3 3 0 0 1-.5-1 3.9 3.9 0 0 1-.2-1.4 4 4 0 0 1 .2-1.2 2.9 2.9 0 0 1 .5-1 2.6 2.6 0 0 1 1-.7 3.2 3.2 0 0 1 1.2-.2 3 3 0 0 1 1.3.2 3 3 0 0 1 .9.6zM122.2 28.7a1.6 1.6 0 0 1-1.2-.5 1.7 1.7 0 0 1-.5-1.2v-3.4h-.6a.3.3 0 0 1-.3-.4v-.5l1-.2.3-1.7a.3.3 0 0 1 .1-.2.3.3 0 0 1 .3 0h.7v1.9h1.6v1H122V27a.7.7 0 0 0 .1.5.5.5 0 0 0 .4.1.7.7 0 0 0 .2 0h.2l.1-.1a.2.2 0 0 1 .1 0 .2.2 0 0 1 .2 0l.5.8a2.2 2.2 0 0 1-.7.4 2.8 2.8 0 0 1-.9 0zM127.4 22.4a3 3 0 0 1 1 .1 2.3 2.3 0 0 1 .9.6 2.5 2.5 0 0 1 .5.9 3.3 3.3 0 0 1 .2 1.2 2 2 0 0 1 0 .2.5.5 0 0 1 0 .2.2.2 0 0 1-.1 0 .4.4 0 0 1-.2 0h-3.8a2.1 2.1 0 0 0 .5 1.5 1.6 1.6 0 0 0 1.2.4 2 2 0 0 0 .6 0 3 3 0 0 0 .5-.2l.3-.2a.6.6 0 0 1 .3-.1.3.3 0 0 1 .2 0l.5.6a2.5 2.5 0 0 1-.5.5 3.1 3.1 0 0 1-.7.3 3.5 3.5 0 0 1-.7.2 4.8 4.8 0 0 1-.6 0 3.3 3.3 0 0 1-1.2-.2 2.7 2.7 0 0 1-1-.7 3 3 0 0 1-.7-1 4 4 0 0 1-.2-1.4 3.4 3.4 0 0 1 .2-1.2 2.9 2.9 0 0 1 .6-1 2.8 2.8 0 0 1 1-.6 3 3 0 0 1 1.2-.1zm0 1a1.4 1.4 0 0 0-1 .4 1.8 1.8 0 0 0-.5 1h2.8a1.8 1.8 0 0 0-.1-.6 1.2 1.2 0 0 0-.2-.4 1.1 1.1 0 0 0-.5-.3 1.4 1.4 0 0 0-.5 0zM131.2 28.6v-6.2h1a.5.5 0 0 1 .2.1.5.5 0 0 1 .2.3v.7a3 3 0 0 1 .8-.9 1.6 1.6 0 0 1 1-.3 1.3 1.3 0 0 1 .8.2l-.2 1.1a.2.2 0 0 1 0 .2.3.3 0 0 1-.2 0 1 1 0 0 1-.3 0 1.7 1.7 0 0 0-.4 0 1.3 1.3 0 0 0-.8.2 2 2 0 0 0-.6.8v3.8zM143.3 28.6h-.7a.7.7 0 0 1-.3 0 .4.4 0 0 1-.2-.3l-.1-.4a5.2 5.2 0 0 1-.5.3 2.8 2.8 0 0 1-.5.3 2.4 2.4 0 0 1-.5.2 3 3 0 0 1-.6 0 2.4 2.4 0 0 1-.7-.1 1.5 1.5 0 0 1-.5-.3 1.4 1.4 0 0 1-.4-.5 1.9 1.9 0 0 1-.2-.8 1.4 1.4 0 0 1 .2-.7 1.7 1.7 0 0 1 .6-.6 3.9 3.9 0 0 1 1.2-.4 7.3 7.3 0 0 1 1.7-.2v-.4a1.4 1.4 0 0 0-.2-.9 1 1 0 0 0-.8-.3 1.9 1.9 0 0 0-.6 0 2.3 2.3 0 0 0-.4.3l-.3.2a.7.7 0 0 1-.4 0 .4.4 0 0 1-.2 0 .6.6 0 0 1-.2-.2l-.3-.5a3.7 3.7 0 0 1 2.6-1 2.5 2.5 0 0 1 1 .2 2 2 0 0 1 .7.5 2.1 2.1 0 0 1 .5.7 2.9 2.9 0 0 1 .1 1zm-2.9-1a2 2 0 0 0 .4 0 1.6 1.6 0 0 0 .4 0 1.9 1.9 0 0 0 .3-.2 3 3 0 0 0 .3-.3V26a6 6 0 0 0-1 0 2.8 2.8 0 0 0-.8.3.9.9 0 0 0-.3.3.7.7 0 0 0 .1 1 1 1 0 0 0 .6 0zM147.6 28.6h-1.3l-2.5-6.2h1.2a.5.5 0 0 1 .3.1.4.4 0 0 1 .1.2l1.3 3.3.1.6.1.5.2-.5a5.3 5.3 0 0 1 .1-.6l1.3-3.3a.4.4 0 0 1 .1-.2.4.4 0 0 1 .3 0h1.1zM153.3 22.4a3 3 0 0 1 1 .1 2.4 2.4 0 0 1 .9.6 2.5 2.5 0 0 1 .5.9 3.3 3.3 0 0 1 .2 1.2 2 2 0 0 1 0 .2.5.5 0 0 1 0 .2.2.2 0 0 1-.1 0 .5.5 0 0 1-.2 0h-3.8a2.1 2.1 0 0 0 .5 1.5 1.6 1.6 0 0 0 1.2.4 2 2 0 0 0 .6 0 3 3 0 0 0 .5-.2l.3-.2a.6.6 0 0 1 .3-.1.3.3 0 0 1 .2 0l.5.6a2.5 2.5 0 0 1-.6.5 3.1 3.1 0 0 1-.6.3 3.5 3.5 0 0 1-.7.2 4.8 4.8 0 0 1-.6 0 3.3 3.3 0 0 1-1.2-.2 2.7 2.7 0 0 1-1-.7 3 3 0 0 1-.7-1 4 4 0 0 1-.2-1.4 3.4 3.4 0 0 1 .2-1.2 2.8 2.8 0 0 1 .6-1 2.8 2.8 0 0 1 1-.6 3 3 0 0 1 1.2-.1zm0 1a1.4 1.4 0 0 0-1 .4 1.8 1.8 0 0 0-.5 1h2.8a1.8 1.8 0 0 0-.1-.6 1.2 1.2 0 0 0-.2-.4 1.1 1.1 0 0 0-.5-.3 1.4 1.4 0 0 0-.5 0zM161.5 23.7a.8.8 0 0 1-.2.2.3.3 0 0 1-.1 0 .4.4 0 0 1-.3-.1l-.2-.2a2 2 0 0 0-.4-.1 1.6 1.6 0 0 0-.5 0 1.6 1.6 0 0 0-.7 0 1.3 1.3 0 0 0-.5.4 1.8 1.8 0 0 0-.3.7 3.4 3.4 0 0 0 0 .8 3.3 3.3 0 0 0 0 1 1.9 1.9 0 0 0 .4.6 1.3 1.3 0 0 0 .4.4 1.5 1.5 0 0 0 .7 0 1.6 1.6 0 0 0 .5 0 1.8 1.8 0 0 0 .4-.2l.3-.2a.4.4 0 0 1 .2 0 .3.3 0 0 1 .3 0l.4.6a2.7 2.7 0 0 1-.5.5 2.9 2.9 0 0 1-.6.3 3 3 0 0 1-.6.2 4.5 4.5 0 0 1-.7 0 2.7 2.7 0 0 1-1-.2 2.5 2.5 0 0 1-1-.7 3 3 0 0 1-.5-1 4.2 4.2 0 0 1 0-2.6 2.9 2.9 0 0 1 .5-1 2.6 2.6 0 0 1 1-.6 3.2 3.2 0 0 1 1.3-.3 3 3 0 0 1 1.2.3 3 3 0 0 1 .9.6zM165.2 30.6v-8.2h.9a.4.4 0 0 1 .2.1.3.3 0 0 1 .2.2v.6a3.1 3.1 0 0 1 1-.7 2.3 2.3 0 0 1 1-.3 2 2 0 0 1 1 .2 2 2 0 0 1 .7.6 3 3 0 0 1 .5 1 5 5 0 0 1 .2 1.4 4.2 4.2 0 0 1-.2 1.3 3.1 3.1 0 0 1-.6 1 2.5 2.5 0 0 1-.8.6 2.4 2.4 0 0 1-1 .3 2 2 0 0 1-1.6-.6v2.5zm2.9-7.1a1.5 1.5 0 0 0-.8.2 2.3 2.3 0 0 0-.6.6V27a1.4 1.4 0 0 0 .5.4 1.6 1.6 0 0 0 .7.2 1.4 1.4 0 0 0 .6-.2 1.2 1.2 0 0 0 .4-.4 1.9 1.9 0 0 0 .3-.6 3.7 3.7 0 0 0 .1-1 4.1 4.1 0 0 0 0-.9 1.8 1.8 0 0 0-.3-.6 1 1 0 0 0-.4-.3 1.2 1.2 0 0 0-.5-.1zM174.6 22.4a3.4 3.4 0 0 1 1.2.2 2.7 2.7 0 0 1 1 .6 2.8 2.8 0 0 1 .6 1 4.1 4.1 0 0 1 0 2.6 2.9 2.9 0 0 1-.6 1 2.7 2.7 0 0 1-1 .7 3.6 3.6 0 0 1-2.5 0 2.7 2.7 0 0 1-1-.7 2.9 2.9 0 0 1-.6-1 4 4 0 0 1 0-2.6 2.8 2.8 0 0 1 .6-1 2.7 2.7 0 0 1 1-.6 3.4 3.4 0 0 1 1.3-.3zm2-.8h-1a.4.4 0 0 1-.2-.1l-.7-.6v-.1h-.1l-.1.1-.6.6a.4.4 0 0 1-.2 0 .5.5 0 0 1-.1 0h-1l1.3-1.6h1.4zm-2 6a1.3 1.3 0 0 0 1.1-.5 2.6 2.6 0 0 0 .4-1.5 2.6 2.6 0 0 0-.4-1.6 1.3 1.3 0 0 0-1.1-.5 1.3 1.3 0 0 0-1.2.5 2.6 2.6 0 0 0-.3 1.6 2.6 2.6 0 0 0 .3 1.5 1.3 1.3 0 0 0 1.2.4zM180.4 19.7v8.9h-1.5v-9zM184.6 22.4a3 3 0 0 1 1 .1 2.4 2.4 0 0 1 .9.6 2.5 2.5 0 0 1 .5.9 3.3 3.3 0 0 1 .2 1.2 2.2 2.2 0 0 1 0 .3.5.5 0 0 1 0 .1.2.2 0 0 1-.2.1.5.5 0 0 1-.1 0H183a2.1 2.1 0 0 0 .5 1.4 1.6 1.6 0 0 0 1.2.5 2 2 0 0 0 .6-.1 3 3 0 0 0 .4-.2l.4-.2a.6.6 0 0 1 .3 0 .3.3 0 0 1 .1 0 .3.3 0 0 1 .1 0l.5.6a2.5 2.5 0 0 1-.6.4 3 3 0 0 1-.6.4 3.5 3.5 0 0 1-.7.1 4.8 4.8 0 0 1-.7 0 3.3 3.3 0 0 1-1.1-.2 2.7 2.7 0 0 1-1-.6 3 3 0 0 1-.7-1 4 4 0 0 1-.2-1.4 3.4 3.4 0 0 1 .2-1.2 2.8 2.8 0 0 1 .6-1 2.8 2.8 0 0 1 .9-.7 3 3 0 0 1 1.3-.1zm0 1a1.4 1.4 0 0 0-1 .4 1.8 1.8 0 0 0-.5 1h2.8a1.9 1.9 0 0 0 0-.6 1.2 1.2 0 0 0-.3-.4 1.1 1.1 0 0 0-.4-.3 1.4 1.4 0 0 0-.6 0zM193.3 22.4a3 3 0 0 1 1 .1 2.4 2.4 0 0 1 1 .6 2.5 2.5 0 0 1 .5.9 3.3 3.3 0 0 1 .2 1.2 2.2 2.2 0 0 1 0 .2.5.5 0 0 1 0 .2.2.2 0 0 1-.2 0 .5.5 0 0 1-.2 0H192a2.1 2.1 0 0 0 .5 1.5 1.6 1.6 0 0 0 1.1.4 2 2 0 0 0 .7 0 3 3 0 0 0 .4-.2l.4-.2a.6.6 0 0 1 .3-.1.3.3 0 0 1 .1 0 .3.3 0 0 1 .1 0l.5.6a2.5 2.5 0 0 1-.6.5 3 3 0 0 1-.6.3 3.5 3.5 0 0 1-.7.2 4.8 4.8 0 0 1-.7 0 3.3 3.3 0 0 1-1.2-.2 2.7 2.7 0 0 1-1-.7 3 3 0 0 1-.6-1 4 4 0 0 1-.2-1.4 3.4 3.4 0 0 1 .2-1.2 2.8 2.8 0 0 1 .5-1 2.8 2.8 0 0 1 1-.6 3 3 0 0 1 1.2-.1zm0 1a1.4 1.4 0 0 0-1 .4 1.8 1.8 0 0 0-.5 1h2.8a1.9 1.9 0 0 0 0-.6 1.2 1.2 0 0 0-.3-.4 1.1 1.1 0 0 0-.4-.3 1.4 1.4 0 0 0-.6 0zM197.2 28.6v-6.2h.9a.4.4 0 0 1 .4.3v.5a3.5 3.5 0 0 1 .4-.4 2.2 2.2 0 0 1 .4-.2 2 2 0 0 1 .4-.2 2 2 0 0 1 .5 0 1.4 1.4 0 0 1 1 .3 1.9 1.9 0 0 1 .6.8 1.9 1.9 0 0 1 .3-.5 2 2 0 0 1 .5-.4 2.2 2.2 0 0 1 .6-.2 2.6 2.6 0 0 1 .6 0 2.5 2.5 0 0 1 .9.1 1.7 1.7 0 0 1 .6.5 2 2 0 0 1 .4.7 3.2 3.2 0 0 1 .2 1v3.9h-1.5v-4a1.3 1.3 0 0 0-.3-.8 1 1 0 0 0-.7-.3 1.1 1.1 0 0 0-.4 0 1 1 0 0 0-.4.3 1 1 0 0 0-.2.4 1.4 1.4 0 0 0 0 .5v3.9h-1.6v-4a1.3 1.3 0 0 0-.2-.8 1 1 0 0 0-.8-.3 1.2 1.2 0 0 0-.6.2 2 2 0 0 0-.5.4v4.5zM207.3 30.6v-8.2h.9a.5.5 0 0 1 .3.1.3.3 0 0 1 0 .2l.2.6a3 3 0 0 1 .8-.7 2.3 2.3 0 0 1 1.2-.3 2 2 0 0 1 .9.2 2 2 0 0 1 .7.6 3 3 0 0 1 .5 1 5 5 0 0 1 .2 1.4 4.2 4.2 0 0 1-.2 1.3 3.1 3.1 0 0 1-.6 1 2.5 2.5 0 0 1-.8.6 2.4 2.4 0 0 1-1 .3 2.2 2.2 0 0 1-1-.2 2.1 2.1 0 0 1-.6-.4v2.5zm2.9-7.1a1.5 1.5 0 0 0-.8.2 2.3 2.3 0 0 0-.6.6V27a1.4 1.4 0 0 0 .5.4 1.6 1.6 0 0 0 .7.2 1.4 1.4 0 0 0 .6-.2 1.2 1.2 0 0 0 .4-.4 1.9 1.9 0 0 0 .3-.7 3.8 3.8 0 0 0 0-.9 4.1 4.1 0 0 0 0-.9 1.8 1.8 0 0 0-.3-.6 1 1 0 0 0-.3-.3 1.2 1.2 0 0 0-.5-.1zM215.7 19.7v8.9h-1.5v-9zM220 22.4a3.4 3.4 0 0 1 1.3.2 2.7 2.7 0 0 1 1 .6 2.8 2.8 0 0 1 .6 1 4.1 4.1 0 0 1 0 2.6 2.9 2.9 0 0 1-.6 1 2.7 2.7 0 0 1-1 .7 3.6 3.6 0 0 1-2.6 0 2.7 2.7 0 0 1-1-.7 2.9 2.9 0 0 1-.6-1 4 4 0 0 1 0-2.6 2.8 2.8 0 0 1 .7-1 2.7 2.7 0 0 1 1-.6 3.4 3.4 0 0 1 1.2-.3zm0 5.2a1.3 1.3 0 0 0 1.1-.6 2.6 2.6 0 0 0 .4-1.5 2.6 2.6 0 0 0-.4-1.5 1.3 1.3 0 0 0-1.1-.5 1.3 1.3 0 0 0-1.1.5 2.6 2.6 0 0 0-.4 1.5 2.6 2.6 0 0 0 .3 1.5 1.3 1.3 0 0 0 1.2.6zM226 20.6a.8.8 0 0 1-.1.4 1 1 0 0 1-.5.5 1 1 0 0 1-.4 0 .9.9 0 0 1-.4 0 1 1 0 0 1-.5-.5.9.9 0 0 1 0-.4 1 1 0 0 1 0-.3 1 1 0 0 1 .2-.3 1 1 0 0 1 .3-.2.9.9 0 0 1 .4 0 1 1 0 0 1 .4 0 1 1 0 0 1 .3.2 1 1 0 0 1 .2.3.9.9 0 0 1 0 .3zm-.3 1.8v6.2h-1.4v-6.2zM38.1 31.6a9.8 9.8 0 0 1-2.5-7.1 12 12 0 0 1 .6-4 8.7 8.7 0 0 1 1.8-3 8 8 0 0 1 3-2 10.8 10.8 0 0 1 4-.8 10 10 0 0 1 3.7.7 14.8 14.8 0 1 0-.2 18.5 11.6 11.6 0 0 1-3.2.4 9.6 9.6 0 0 1-7.2-2.6z"/><path class="cls-2" d="M40.6 23.2H49a.5.5 0 0 0 .6-.5A6.1 6.1 0 0 0 48 19a4.4 4.4 0 0 0-3.3-1.4 4.2 4.2 0 0 0-3.3 1.4 6.5 6.5 0 0 0-1.4 3.7c-.1.3.2.5.5.5zM50 25.4h-9.4a.5.5 0 0 0-.6.6 6.7 6.7 0 0 0 .7 2.8 4.8 4.8 0 0 0 4.4 2.8 6.2 6.2 0 0 0 1.7-.3 5.6 5.6 0 0 0 1.5-.6 11 11 0 0 0 1.3-1l1.4-1.3a1.2 1.2 0 0 1 .3-.2 14.7 14.7 0 0 0 .5-3 8.8 8.8 0 0 1-1.8.3zM48.8 33.8c1.9-.7 4-2.5 4.3-4.3.2-1.1-.5-1.4-.8-1.4H52a1.6 1.6 0 0 0-.7.1 14.7 14.7 0 0 1-2.8 5.7z"/><path class="cls-2" d="M51.8 25.3a4.2 4.2 0 0 0 1-.4c.6-.3 1-1 1-2.1a8 8 0 0 0-1-3.8 8.1 8.1 0 0 0-4.2-3.6 14.7 14.7 0 0 1 3.2 9.1v.8z"/><path class="cls-1" d="M49.7 29.7a11 11 0 0 1-1.3 1 5.6 5.6 0 0 1-1.5.7 6.2 6.2 0 0 1-1.7.2 4.8 4.8 0 0 1-4.5-2.7A6.7 6.7 0 0 1 40 26a.5.5 0 0 1 .6-.6H50a8.8 8.8 0 0 0 1.8-.1v-.8a14.7 14.7 0 0 0-3.1-9.1 10 10 0 0 0-3.8-.7 10.8 10.8 0 0 0-3.9.7 8 8 0 0 0-3 2 8.7 8.7 0 0 0-1.8 3.1 12 12 0 0 0-.7 4 9.8 9.8 0 0 0 2.6 7.2 9.6 9.6 0 0 0 7.2 2.6 11.6 11.6 0 0 0 3.1-.4 14.7 14.7 0 0 0 2.9-5.6 1.2 1.2 0 0 0-.3.2l-1.3 1.2zm-9.6-7a6.5 6.5 0 0 1 1.4-3.7 4.2 4.2 0 0 1 3.3-1.4A4.4 4.4 0 0 1 48 19a6.1 6.1 0 0 1 1.4 3.8.5.5 0 0 1-.5.5h-8.4c-.3 0-.6-.3-.5-.6z"/></g></svg>