<?xml version="1.0" encoding="utf-8"?>
<!-- Generator: Adobe Illustrator 16.0.0, SVG Export Plug-In . SVG Version: 6.00 Build 0)  -->
<!DOCTYPE svg PUBLIC "-//W3C//DTD SVG 1.1//EN" "http://www.w3.org/Graphics/SVG/1.1/DTD/svg11.dtd">
<svg version="1.1" id="Calque_1" xmlns="http://www.w3.org/2000/svg" xmlns:xlink="http://www.w3.org/1999/xlink" x="0px" y="0px"
	 width="130px" height="104px" viewBox="0 0 130 104" enable-background="new 0 0 130 104" xml:space="preserve">
<radialGradient id="SVGID_1_" cx="74.8818" cy="11.978" r="81.5066" gradientTransform="matrix(0.9752 0 0 0.9752 1.6092 1.2871)" gradientUnits="userSpaceOnUse">
	<stop  offset="0" style="stop-color:#E1670E"/>
	<stop  offset="8.475110e-02" style="stop-color:#E1540F"/>
	<stop  offset="0.2554" style="stop-color:#E22411"/>
	<stop  offset="0.35" style="stop-color:#E20613"/>
	<stop  offset="1" style="stop-color:#A41008"/>
</radialGradient>
<path fill="url(#SVGID_1_)" d="M101.5,45.5c0.5-2.6-1.1-3.2-1.9-3.3c-0.2,0-0.3,0-0.5,0c-1,0-1.8,0.3-2.3,0.8
	c-0.6,0.6-2.3,2.2-3.2,3c-0.9,0.8-1.9,1.5-3,2.2c-1.1,0.7-2.3,1.2-3.4,1.6c-1.2,0.3-2.5,0.5-3.9,0.5c-2.1,0-4.1-0.5-5.9-1.6
	c-1.8-1.1-3.2-2.7-4.3-4.7c-1-1.9-1.5-4.1-1.6-6.5c0-0.8,0.6-1.3,1.3-1.3h21.5c2.9,0,5.1-0.4,6.6-1.2c1.3-0.7,2.1-2.2,2.1-5
	c0-3-0.8-5.9-2.3-8.8c-1.5-2.9-3.8-5.2-6.9-7c-3.1-1.8-6.7-2.7-11.1-2.7c-3.3,0-6.4,0.5-9.1,1.6c-2.7,1.1-5,2.6-6.8,4.6
	c-1.8,2-3.3,4.4-4.2,7.1c-1,2.8-1.5,5.8-1.5,9.1c0,7,2,12.4,5.9,16.5c3.9,4,9.4,6,16.5,6c3.1,0,5.7-0.4,8.1-1.2
	C95.9,53.7,100.7,49.5,101.5,45.5z M71.5,29.7c0.4-3.7,1.5-6.5,3.4-8.5c1.9-2.1,4.5-3.1,7.4-3.1c3.1,0,5.7,1,7.6,3.1
	c1.9,2,2.9,4.9,3.3,8.6c0,0.6-0.6,1.2-1.3,1.2H72.8C72.1,31,71.4,30.4,71.5,29.7z"/>
<linearGradient id="SVGID_2_" gradientUnits="userSpaceOnUse" x1="65.001" y1="0" x2="65.001" y2="67.9116">
	<stop  offset="0" style="stop-color:#5CC3E8"/>
	<stop  offset="7.908756e-02" style="stop-color:#4EB0D9"/>
	<stop  offset="0.2393" style="stop-color:#2A7FB2"/>
	<stop  offset="0.4066" style="stop-color:#004685"/>
	<stop  offset="1" style="stop-color:#001739"/>
</linearGradient>
<circle fill="url(#SVGID_2_)" cx="65" cy="34" r="34"/>
<linearGradient id="SVGID_3_" gradientUnits="userSpaceOnUse" x1="68.1279" y1="1.7129" x2="68.1279" y2="47.1777" gradientTransform="matrix(0.9949 0.1011 -0.1011 0.9949 -0.1332 -6.1406)">
	<stop  offset="0" style="stop-color:#A0D9F7"/>
	<stop  offset="1" style="stop-color:#00386D"/>
</linearGradient>
<path fill="url(#SVGID_3_)" d="M35.4,44.9c-1.6-4.4-2.3-9.2-1.8-14.1c1.8-17.3,17.3-30,34.6-28.2c14.2,1.4,24.8,12,27.4,24
	c2.3,10.4-13.6,11-27.5,8.2C56.5,30.6,41.4,30.9,35.4,44.9z"/>
<circle fill="none" cx="65" cy="34" r="31.6"/>
<radialGradient id="SVGID_4_" cx="76.1797" cy="15.5156" r="46.7413" gradientTransform="matrix(0.9752 0 0 0.9752 1.6092 1.2871)" gradientUnits="userSpaceOnUse">
	<stop  offset="0.2527" style="stop-color:#FFFFFF"/>
	<stop  offset="0.492" style="stop-color:#F6F9FA"/>
	<stop  offset="0.8738" style="stop-color:#DFE8ED"/>
	<stop  offset="1" style="stop-color:#D6E1E8"/>
</radialGradient>
<path fill="url(#SVGID_4_)" d="M97.9,42.3c-0.5,0.1-0.8,0.3-1.1,0.6c-0.6,0.6-2.3,2.2-3.2,3c-0.9,0.8-1.9,1.5-3,2.2
	c-1.1,0.7-2.3,1.2-3.4,1.6c-1.2,0.3-2.5,0.5-3.9,0.5c-2.1,0-4.1-0.5-5.9-1.6c-1.8-1.1-3.2-2.7-4.3-4.7c-1-1.9-1.5-4.1-1.6-6.5
	c0-0.8,0.6-1.3,1.3-1.3h21.5c1.8,0,3.4-0.2,4.6-0.5c0-0.6,0-1.1,0-1.7c0-7.8-2.6-15-7-20.7c-2.6-1.2-5.7-1.7-9.2-1.7
	c-3.3,0-6.4,0.5-9.1,1.6c-2.7,1.1-5,2.6-6.8,4.6c-1.8,2-3.3,4.4-4.2,7.1c-1,2.8-1.5,5.8-1.5,9.1c0,7,2,12.4,5.9,16.5
	c3.9,4,9.4,6,16.5,6c2.9,0,5.5-0.4,7.8-1.1C94.4,51.6,96.7,47.1,97.9,42.3z M71.5,29.7c0.4-3.7,1.5-6.5,3.4-8.5
	c1.9-2.1,4.5-3.1,7.4-3.1c3.1,0,5.7,1,7.6,3.1c1.9,2,2.9,4.9,3.3,8.6c0,0.6-0.6,1.2-1.3,1.2H72.8C72.1,31,71.4,30.4,71.5,29.7z"/>
<g>
	<g>
		<path fill="#043878" d="M11.9,91.2c0,4.8-2,7.1-6,7.1H2.5v5.6H0V91.2C0,86.4,2,84,6,84C9.9,84,11.9,86.4,11.9,91.2z M9.4,91.2
			c0-1.5-0.2-2.5-0.7-3.2c-0.5-0.8-1.5-1.2-2.8-1.2c-1.3,0-2.3,0.4-2.8,1.2c-0.4,0.7-0.6,1.7-0.6,3.2v4.4H6c1.3,0,2.3-0.4,2.8-1.2
			C9.2,93.7,9.4,92.6,9.4,91.2z"/>
		<path fill="#043878" d="M25.6,91.2c0,4.8-2,7.1-5.9,7.1c-4,0-6-2.4-6-7.1c0-4.8,2-7.2,6-7.2C23.6,84,25.6,86.4,25.6,91.2z
			 M24.6,81.3l-1.1,1.5l-4-2.3l-4,2.3l-1.1-1.5l5.1-2.9L24.6,81.3z M23.1,91.2c0-1.5-0.2-2.5-0.6-3.2c-0.5-0.8-1.5-1.2-2.8-1.2
			s-2.3,0.4-2.8,1.2c-0.4,0.7-0.6,1.7-0.6,3.2c0,1.4,0.2,2.5,0.6,3.2c0.5,0.8,1.5,1.2,2.8,1.2s2.2-0.4,2.8-1.2
			C22.8,93.7,23.1,92.6,23.1,91.2z"/>
		<path fill="#043878" d="M34,98.3c-4.3,0-6.4-1.7-6.4-5.2V78.4h2.5v14.8c0,0.7,0.2,1.3,0.7,1.6c0.6,0.5,1.7,0.7,3.2,0.7V98.3z"/>
		<path fill="#DA0719" d="M90.8,98.3h-2.5v-7.2c0-1.5-0.2-2.5-0.7-3.2c-0.5-0.8-1.5-1.2-2.8-1.2c-1.3,0-2.3,0.4-2.8,1.2
			c-0.4,0.6-0.7,1.7-0.7,3.2v7.2h-2.5v-7.2c0-1.5-0.2-2.5-0.7-3.2c-0.5-0.8-1.5-1.2-2.8-1.2c-1.3,0-2.3,0.4-2.8,1.2
			c-0.4,0.6-0.6,1.7-0.6,3.2v7.2h-2.5v-7.1c0-4.8,2-7.2,5.9-7.2c2.1,0,3.7,0.7,4.7,2.2c1-1.4,2.6-2.2,4.7-2.2c4,0,6,2.4,6,7.2V98.3z
			"/>
		<path fill="#DA0719" d="M104.8,91.2c0,4.8-2,7.1-6,7.1h-3.4v5.6h-2.5V91.2c0-4.8,2-7.2,6-7.2C102.8,84,104.8,86.4,104.8,91.2z
			 M102.3,91.2c0-1.5-0.2-2.5-0.7-3.2c-0.5-0.8-1.5-1.2-2.8-1.2c-1.3,0-2.3,0.4-2.8,1.2c-0.4,0.7-0.7,1.7-0.7,3.2v4.4h3.4
			c1.3,0,2.3-0.4,2.8-1.2C102,93.7,102.3,92.6,102.3,91.2z"/>
		<path fill="#DA0719" d="M113,98.3c-4.3,0-6.4-1.7-6.4-5.2V78.4h2.5v14.8c0,0.7,0.2,1.3,0.7,1.6c0.6,0.5,1.7,0.7,3.2,0.7V98.3z"/>
		<path fill="#DA0719" d="M125.6,91.2c0,4.8-2,7.1-5.9,7.1c-4,0-6-2.4-6-7.1c0-4.8,2-7.2,6-7.2C123.7,84,125.6,86.4,125.6,91.2z
			 M123.1,91.2c0-1.5-0.2-2.5-0.7-3.2c-0.5-0.8-1.5-1.2-2.8-1.2c-1.3,0-2.3,0.4-2.8,1.2c-0.4,0.7-0.7,1.7-0.7,3.2
			c0,1.5,0.2,2.5,0.7,3.2c0.5,0.8,1.5,1.2,2.8,1.2c1.3,0,2.3-0.4,2.8-1.2C122.9,93.7,123.1,92.6,123.1,91.2z"/>
		<path fill="#DA0719" d="M130,81.1h-2.5v-2.8h2.5V81.1z M127.5,84h2.5v14.3h-2.5V84z"/>
	</g>
</g>
<path fill="#043878" d="M37.7,92.1c0,2.4,1.3,4,3.6,4c1.6,0,2.4-0.4,3.4-1.5l1.8,1.7c-1.5,1.5-2.8,2.2-5.3,2.2
	c-3.5,0-6.4-1.9-6.4-7.2c0-4.6,2.4-7.2,6-7.2c3.8,0,6,2.8,6,6.8v1.3H37.7z M43.7,88.2c-0.4-1.1-1.4-1.8-2.8-1.8s-2.4,0.7-2.8,1.8
	c-0.3,0.6-0.3,1.1-0.4,1.9H44C44,89.2,43.9,88.8,43.7,88.2z"/>
<path fill="#DA0719" d="M58.3,92.1c0,2.4,1.3,4,3.6,4c1.6,0,2.4-0.4,3.4-1.5l1.8,1.7c-1.4,1.5-2.8,2.2-5.3,2.2
	c-3.5,0-6.4-1.9-6.4-7.2c0-4.6,2.4-7.2,6-7.2c3.8,0,6,2.8,6,6.8v1.3H58.3z M64.3,88.2c-0.4-1.1-1.4-1.8-2.8-1.8
	c-1.3,0-2.4,0.7-2.8,1.8c-0.3,0.6-0.3,1.1-0.4,1.9h6.4C64.6,89.2,64.5,88.8,64.3,88.2z"/>
<g>
	<g>
		<path fill="#043878" d="M11.9,91.2c0,4.8-2,7.1-6,7.1H2.5v5.6H0V91.2C0,86.4,2,84,6,84C9.9,84,11.9,86.4,11.9,91.2z M9.4,91.2
			c0-1.5-0.2-2.5-0.7-3.2c-0.5-0.8-1.5-1.2-2.8-1.2c-1.3,0-2.3,0.4-2.8,1.2c-0.4,0.7-0.6,1.7-0.6,3.2v4.4H6c1.3,0,2.3-0.4,2.8-1.2
			C9.2,93.7,9.4,92.6,9.4,91.2z"/>
		<path fill="#043878" d="M25.6,91.2c0,4.8-2,7.1-5.9,7.1c-4,0-6-2.4-6-7.1c0-4.8,2-7.2,6-7.2C23.6,84,25.6,86.4,25.6,91.2z
			 M24.6,81.3l-1.1,1.5l-4-2.3l-4,2.3l-1.1-1.5l5.1-2.9L24.6,81.3z M23.1,91.2c0-1.5-0.2-2.5-0.6-3.2c-0.5-0.8-1.5-1.2-2.8-1.2
			s-2.3,0.4-2.8,1.2c-0.4,0.7-0.6,1.7-0.6,3.2c0,1.4,0.2,2.5,0.6,3.2c0.5,0.8,1.5,1.2,2.8,1.2s2.2-0.4,2.8-1.2
			C22.8,93.7,23.1,92.6,23.1,91.2z"/>
		<path fill="#043878" d="M34,98.3c-4.3,0-6.4-1.7-6.4-5.2V78.4h2.5v14.8c0,0.7,0.2,1.3,0.7,1.6c0.6,0.5,1.7,0.7,3.2,0.7V98.3z"/>
		<path fill="#DA0719" d="M90.8,98.3h-2.5v-7.2c0-1.5-0.2-2.5-0.7-3.2c-0.5-0.8-1.5-1.2-2.8-1.2c-1.3,0-2.3,0.4-2.8,1.2
			c-0.4,0.6-0.7,1.7-0.7,3.2v7.2h-2.5v-7.2c0-1.5-0.2-2.5-0.7-3.2c-0.5-0.8-1.5-1.2-2.8-1.2c-1.3,0-2.3,0.4-2.8,1.2
			c-0.4,0.6-0.6,1.7-0.6,3.2v7.2h-2.5v-7.1c0-4.8,2-7.2,5.9-7.2c2.1,0,3.7,0.7,4.7,2.2c1-1.4,2.6-2.2,4.7-2.2c4,0,6,2.4,6,7.2V98.3z
			"/>
		<path fill="#DA0719" d="M104.8,91.2c0,4.8-2,7.1-6,7.1h-3.4v5.6h-2.5V91.2c0-4.8,2-7.2,6-7.2C102.8,84,104.8,86.4,104.8,91.2z
			 M102.3,91.2c0-1.5-0.2-2.5-0.7-3.2c-0.5-0.8-1.5-1.2-2.8-1.2c-1.3,0-2.3,0.4-2.8,1.2c-0.4,0.7-0.7,1.7-0.7,3.2v4.4h3.4
			c1.3,0,2.3-0.4,2.8-1.2C102,93.7,102.3,92.6,102.3,91.2z"/>
		<path fill="#DA0719" d="M113,98.3c-4.3,0-6.4-1.7-6.4-5.2V78.4h2.5v14.8c0,0.7,0.2,1.3,0.7,1.6c0.6,0.5,1.7,0.7,3.2,0.7V98.3z"/>
		<path fill="#DA0719" d="M125.6,91.2c0,4.8-2,7.1-5.9,7.1c-4,0-6-2.4-6-7.1c0-4.8,2-7.2,6-7.2C123.7,84,125.6,86.4,125.6,91.2z
			 M123.1,91.2c0-1.5-0.2-2.5-0.7-3.2c-0.5-0.8-1.5-1.2-2.8-1.2c-1.3,0-2.3,0.4-2.8,1.2c-0.4,0.7-0.7,1.7-0.7,3.2
			c0,1.5,0.2,2.5,0.7,3.2c0.5,0.8,1.5,1.2,2.8,1.2c1.3,0,2.3-0.4,2.8-1.2C122.9,93.7,123.1,92.6,123.1,91.2z"/>
		<path fill="#DA0719" d="M130,81.1h-2.5v-2.8h2.5V81.1z M127.5,84h2.5v14.3h-2.5V84z"/>
	</g>
</g>
<path fill="#043878" d="M37.7,92.1c0,2.4,1.3,4,3.6,4c1.6,0,2.4-0.4,3.4-1.5l1.8,1.7c-1.5,1.5-2.8,2.2-5.3,2.2
	c-3.5,0-6.4-1.9-6.4-7.2c0-4.6,2.4-7.2,6-7.2c3.8,0,6,2.8,6,6.8v1.3H37.7z M43.7,88.2c-0.4-1.1-1.4-1.8-2.8-1.8s-2.4,0.7-2.8,1.8
	c-0.3,0.6-0.3,1.1-0.4,1.9H44C44,89.2,43.9,88.8,43.7,88.2z"/>
<path fill="#DA0719" d="M58.3,92.1c0,2.4,1.3,4,3.6,4c1.6,0,2.4-0.4,3.4-1.5l1.8,1.7c-1.4,1.5-2.8,2.2-5.3,2.2
	c-3.5,0-6.4-1.9-6.4-7.2c0-4.6,2.4-7.2,6-7.2c3.8,0,6,2.8,6,6.8v1.3H58.3z M64.3,88.2c-0.4-1.1-1.4-1.8-2.8-1.8
	c-1.3,0-2.4,0.7-2.8,1.8c-0.3,0.6-0.3,1.1-0.4,1.9h6.4C64.6,89.2,64.5,88.8,64.3,88.2z"/>
<g>
</g>
<g>
</g>
<g>
</g>
<g>
</g>
<g>
</g>
<g>
</g>
<g>
</g>
<g>
</g>
<g>
</g>
<g>
</g>
<g>
</g>
<g>
</g>
<g>
</g>
<g>
</g>
<g>
</g>
</svg>
