<svg xmlns="http://www.w3.org/2000/svg" width="130" height="104"><radialGradient id="a" cx="74.9" cy="12" r="81.5" gradientTransform="translate(1.6 1.3) scale(.9752)" gradientUnits="userSpaceOnUse"><stop offset="0" stop-color="#e1670e"/><stop offset=".1" stop-color="#e1540f"/><stop offset=".3" stop-color="#e22411"/><stop offset=".3" stop-color="#e20613"/><stop offset="1" stop-color="#a41008"/></radialGradient><path fill="url(#a)" d="M101.5 45.5c.5-2.6-1.1-3.2-1.9-3.3h-.5c-1 0-1.8.3-2.3.8l-3.2 3a17.4 17.4 0 0 1-6.4 3.8 16 16 0 0 1-3.9.5A11.1 11.1 0 0 1 73.1 44c-1-1.9-1.5-4.1-1.6-6.5 0-.8.6-1.3 1.3-1.3h21.5c2.9 0 5.1-.4 6.6-1.2 1.3-.7 2.1-2.2 2.1-5 0-3-.8-5.9-2.3-8.8a17.2 17.2 0 0 0-6.9-7 21.5 21.5 0 0 0-11.1-2.7c-3.3 0-6.4.5-9.1 1.6-2.7 1.1-5 2.6-6.8 4.6-1.8 2-3.3 4.4-4.2 7.1-1 2.8-1.5 5.8-1.5 9.1 0 7 2 12.4 5.9 16.5 3.9 4 9.4 6 16.5 6 3.1 0 5.7-.4 8.1-1.2 4.3-1.5 9.1-5.7 9.9-9.7zm-30-15.8a14 14 0 0 1 3.4-8.5 9.7 9.7 0 0 1 7.4-3.1c3.1 0 5.7 1 7.6 3.1 1.9 2 2.9 4.9 3.3 8.6 0 .6-.6 1.2-1.3 1.2H72.8c-.7 0-1.4-.6-1.3-1.3z"/><linearGradient id="b" gradientUnits="userSpaceOnUse" x1="65" x2="65" y2="67.9"><stop offset="0" stop-color="#5cc3e8"/><stop offset=".1" stop-color="#4eb0d9"/><stop offset=".2" stop-color="#2a7fb2"/><stop offset=".4" stop-color="#004685"/><stop offset="1" stop-color="#001739"/></linearGradient><circle fill="url(#b)" cx="65" cy="34" r="34"/><linearGradient id="c" gradientUnits="userSpaceOnUse" x1="68.1" y1="1.7" x2="68.1" y2="47.2" gradientTransform="rotate(5.8 60.5 -4.4)"><stop offset="0" stop-color="#a0d9f7"/><stop offset="1" stop-color="#00386d"/></linearGradient><path fill="url(#c)" d="M35.4 44.9A31.6 31.6 0 0 1 68.2 2.6a31.2 31.2 0 0 1 27.4 24c2.3 10.4-13.6 11-27.5 8.2-11.6-4.2-26.7-3.9-32.7 10.1z"/><circle fill="none" cx="65" cy="34" r="31.6"/><radialGradient id="d" cx="76.2" cy="15.5" r="46.7" gradientTransform="translate(1.6 1.3) scale(.9752)" gradientUnits="userSpaceOnUse"><stop offset=".3" stop-color="#fff"/><stop offset=".5" stop-color="#f6f9fa"/><stop offset=".9" stop-color="#dfe8ed"/><stop offset="1" stop-color="#d6e1e8"/></radialGradient><path fill="url(#d)" d="M97.9 42.3a2 2 0 0 0-1.1.6l-3.2 3a17.4 17.4 0 0 1-6.4 3.8 16 16 0 0 1-3.9.5 11.1 11.1 0 0 1-10.2-6.3c-1-1.9-1.5-4.1-1.6-6.5 0-.8.6-1.3 1.3-1.3h21.5c1.8 0 3.4-.2 4.6-.5v-1.7c0-7.8-2.6-15-7-20.7a22 22 0 0 0-9.2-1.7c-3.3 0-6.4.5-9.1 1.6-2.7 1.1-5 2.6-6.8 4.6-1.8 2-3.3 4.4-4.2 7.1-1 2.8-1.5 5.8-1.5 9.1 0 7 2 12.4 5.9 16.5 3.9 4 9.4 6 16.5 6 2.9 0 5.5-.4 7.8-1.1 3.1-3.7 5.4-8.2 6.6-13zM71.5 29.7a14 14 0 0 1 3.4-8.5 9.7 9.7 0 0 1 7.4-3.1c3.1 0 5.7 1 7.6 3.1 1.9 2 2.9 4.9 3.3 8.6 0 .6-.6 1.2-1.3 1.2H72.8c-.7 0-1.4-.6-1.3-1.3z"/><path fill="#043878" d="M11.9 91.2c0 4.8-2 7.1-6 7.1H2.5v5.6H0V91.2C0 86.4 2 84 6 84c3.9 0 5.9 2.4 5.9 7.2zm-2.5 0c0-1.5-.2-2.5-.7-3.2-.5-.8-1.5-1.2-2.8-1.2-1.3 0-2.3.4-2.8 1.2-.4.7-.6 1.7-.6 3.2v4.4H6c1.3 0 2.3-.4 2.8-1.2.4-.7.6-1.8.6-3.2zM25.6 91.2c0 4.8-2 7.1-5.9 7.1-4 0-6-2.4-6-7.1 0-4.8 2-7.2 6-7.2 3.9 0 5.9 2.4 5.9 7.2zm-1-9.9l-1.1 1.5-4-2.3-4 2.3-1.1-1.5 5.1-2.9 5.1 2.9zm-1.5 9.9c0-1.5-.2-2.5-.6-3.2-.5-.8-1.5-1.2-2.8-1.2s-2.3.4-2.8 1.2c-.4.7-.6 1.7-.6 3.2 0 1.4.2 2.5.6 3.2.5.8 1.5 1.2 2.8 1.2s2.2-.4 2.8-1.2c.3-.7.6-1.8.6-3.2zM34 98.3c-4.3 0-6.4-1.7-6.4-5.2V78.4h2.5v14.8c0 .7.2 1.3.7 1.6.6.5 1.7.7 3.2.7v2.8z"/><path fill="#DA0719" d="M90.8 98.3h-2.5v-7.2c0-1.5-.2-2.5-.7-3.2-.5-.8-1.5-1.2-2.8-1.2-1.3 0-2.3.4-2.8 1.2a6 6 0 0 0-.7 3.2v7.2h-2.5v-7.2c0-1.5-.2-2.5-.7-3.2-.5-.8-1.5-1.2-2.8-1.2-1.3 0-2.3.4-2.8 1.2-.4.6-.6 1.7-.6 3.2v7.2h-2.5v-7.1c0-4.8 2-7.2 5.9-7.2 2.1 0 3.7.7 4.7 2.2 1-1.4 2.6-2.2 4.7-2.2 4 0 6 2.4 6 7.2v7.1zM104.8 91.2c0 4.8-2 7.1-6 7.1h-3.4v5.6h-2.5V91.2c0-4.8 2-7.2 6-7.2 3.9 0 5.9 2.4 5.9 7.2zm-2.5 0c0-1.5-.2-2.5-.7-3.2-.5-.8-1.5-1.2-2.8-1.2-1.3 0-2.3.4-2.8 1.2-.4.7-.7 1.7-.7 3.2v4.4h3.4c1.3 0 2.3-.4 2.8-1.2.5-.7.8-1.8.8-3.2zM113 98.3c-4.3 0-6.4-1.7-6.4-5.2V78.4h2.5v14.8c0 .7.2 1.3.7 1.6.6.5 1.7.7 3.2.7v2.8zM125.6 91.2c0 4.8-2 7.1-5.9 7.1-4 0-6-2.4-6-7.1 0-4.8 2-7.2 6-7.2s5.9 2.4 5.9 7.2zm-2.5 0c0-1.5-.2-2.5-.7-3.2-.5-.8-1.5-1.2-2.8-1.2-1.3 0-2.3.4-2.8 1.2-.4.7-.7 1.7-.7 3.2 0 1.5.2 2.5.7 3.2.5.8 1.5 1.2 2.8 1.2 1.3 0 2.3-.4 2.8-1.2.5-.7.7-1.8.7-3.2zM130 81.1h-2.5v-2.8h2.5v2.8zm-2.5 2.9h2.5v14.3h-2.5V84z"/><path fill="#043878" d="M37.7 92.1c0 2.4 1.3 4 3.6 4a4 4 0 0 0 3.4-1.5l1.8 1.7a6.5 6.5 0 0 1-5.3 2.2c-3.5 0-6.4-1.9-6.4-7.2 0-4.6 2.4-7.2 6-7.2 3.8 0 6 2.8 6 6.8v1.3h-9.1zm6-3.9c-.4-1.1-1.4-1.8-2.8-1.8s-2.4.7-2.8 1.8c-.3.6-.3 1.1-.4 1.9H44a5 5 0 0 0-.3-1.9z"/><path fill="#DA0719" d="M58.3 92.1c0 2.4 1.3 4 3.6 4a4 4 0 0 0 3.4-1.5l1.8 1.7a6.4 6.4 0 0 1-5.3 2.2c-3.5 0-6.4-1.9-6.4-7.2 0-4.6 2.4-7.2 6-7.2 3.8 0 6 2.8 6 6.8v1.3h-9.1zm6-3.9c-.4-1.1-1.4-1.8-2.8-1.8-1.3 0-2.4.7-2.8 1.8-.3.6-.3 1.1-.4 1.9h6.4l-.4-1.9z"/><path fill="#043878" d="M11.9 91.2c0 4.8-2 7.1-6 7.1H2.5v5.6H0V91.2C0 86.4 2 84 6 84c3.9 0 5.9 2.4 5.9 7.2zm-2.5 0c0-1.5-.2-2.5-.7-3.2-.5-.8-1.5-1.2-2.8-1.2-1.3 0-2.3.4-2.8 1.2-.4.7-.6 1.7-.6 3.2v4.4H6c1.3 0 2.3-.4 2.8-1.2.4-.7.6-1.8.6-3.2zM25.6 91.2c0 4.8-2 7.1-5.9 7.1-4 0-6-2.4-6-7.1 0-4.8 2-7.2 6-7.2 3.9 0 5.9 2.4 5.9 7.2zm-1-9.9l-1.1 1.5-4-2.3-4 2.3-1.1-1.5 5.1-2.9 5.1 2.9zm-1.5 9.9c0-1.5-.2-2.5-.6-3.2-.5-.8-1.5-1.2-2.8-1.2s-2.3.4-2.8 1.2c-.4.7-.6 1.7-.6 3.2 0 1.4.2 2.5.6 3.2.5.8 1.5 1.2 2.8 1.2s2.2-.4 2.8-1.2c.3-.7.6-1.8.6-3.2zM34 98.3c-4.3 0-6.4-1.7-6.4-5.2V78.4h2.5v14.8c0 .7.2 1.3.7 1.6.6.5 1.7.7 3.2.7v2.8z"/><path fill="#DA0719" d="M90.8 98.3h-2.5v-7.2c0-1.5-.2-2.5-.7-3.2-.5-.8-1.5-1.2-2.8-1.2-1.3 0-2.3.4-2.8 1.2a6 6 0 0 0-.7 3.2v7.2h-2.5v-7.2c0-1.5-.2-2.5-.7-3.2-.5-.8-1.5-1.2-2.8-1.2-1.3 0-2.3.4-2.8 1.2-.4.6-.6 1.7-.6 3.2v7.2h-2.5v-7.1c0-4.8 2-7.2 5.9-7.2 2.1 0 3.7.7 4.7 2.2 1-1.4 2.6-2.2 4.7-2.2 4 0 6 2.4 6 7.2v7.1zM104.8 91.2c0 4.8-2 7.1-6 7.1h-3.4v5.6h-2.5V91.2c0-4.8 2-7.2 6-7.2 3.9 0 5.9 2.4 5.9 7.2zm-2.5 0c0-1.5-.2-2.5-.7-3.2-.5-.8-1.5-1.2-2.8-1.2-1.3 0-2.3.4-2.8 1.2-.4.7-.7 1.7-.7 3.2v4.4h3.4c1.3 0 2.3-.4 2.8-1.2.5-.7.8-1.8.8-3.2zM113 98.3c-4.3 0-6.4-1.7-6.4-5.2V78.4h2.5v14.8c0 .7.2 1.3.7 1.6.6.5 1.7.7 3.2.7v2.8zM125.6 91.2c0 4.8-2 7.1-5.9 7.1-4 0-6-2.4-6-7.1 0-4.8 2-7.2 6-7.2s5.9 2.4 5.9 7.2zm-2.5 0c0-1.5-.2-2.5-.7-3.2-.5-.8-1.5-1.2-2.8-1.2-1.3 0-2.3.4-2.8 1.2-.4.7-.7 1.7-.7 3.2 0 1.5.2 2.5.7 3.2.5.8 1.5 1.2 2.8 1.2 1.3 0 2.3-.4 2.8-1.2.5-.7.7-1.8.7-3.2zM130 81.1h-2.5v-2.8h2.5v2.8zm-2.5 2.9h2.5v14.3h-2.5V84z"/><path fill="#043878" d="M37.7 92.1c0 2.4 1.3 4 3.6 4a4 4 0 0 0 3.4-1.5l1.8 1.7a6.5 6.5 0 0 1-5.3 2.2c-3.5 0-6.4-1.9-6.4-7.2 0-4.6 2.4-7.2 6-7.2 3.8 0 6 2.8 6 6.8v1.3h-9.1zm6-3.9c-.4-1.1-1.4-1.8-2.8-1.8s-2.4.7-2.8 1.8c-.3.6-.3 1.1-.4 1.9H44a5 5 0 0 0-.3-1.9z"/><path fill="#DA0719" d="M58.3 92.1c0 2.4 1.3 4 3.6 4a4 4 0 0 0 3.4-1.5l1.8 1.7a6.4 6.4 0 0 1-5.3 2.2c-3.5 0-6.4-1.9-6.4-7.2 0-4.6 2.4-7.2 6-7.2 3.8 0 6 2.8 6 6.8v1.3h-9.1zm6-3.9c-.4-1.1-1.4-1.8-2.8-1.8-1.3 0-2.4.7-2.8 1.8-.3.6-.3 1.1-.4 1.9h6.4l-.4-1.9z"/></svg>