<?xml version="1.0" encoding="utf-8"?>
<!-- Generator: Adobe Illustrator 16.0.0, SVG Export Plug-In . SVG Version: 6.00 Build 0)  -->
<!DOCTYPE svg PUBLIC "-//W3C//DTD SVG 1.1//EN" "http://www.w3.org/Graphics/SVG/1.1/DTD/svg11.dtd">
<svg version="1.1" id="Calque_1" xmlns="http://www.w3.org/2000/svg" xmlns:xlink="http://www.w3.org/1999/xlink" x="0px" y="0px"
	 width="24px" height="24px" viewBox="0 0 24 24" enable-background="new 0 0 24 24" xml:space="preserve">
<path fill="#FF4F57" d="M0,12C0,5.4,5.4,0,12,0c6.6,0,12,5.4,12,12s-5.4,12-12,12C5.4,24,0,18.6,0,12z"/>
<g>
	<g>
		<path fill="#FFFFFF" d="M11.9,12c-1.2,0-2.4-0.5-3.3-1.4c-0.9-0.9-1.3-2-1.3-3.3c0-2.6,2.1-4.6,4.6-4.6c1.2,0,2.4,0.5,3.3,1.4
			c0.9,0.9,1.3,2,1.3,3.3C16.5,10,14.4,12,11.9,12z M11.9,3.8c-2,0-3.6,1.6-3.6,3.6c0,2,1.6,3.6,3.6,3.6c2,0,3.6-1.6,3.6-3.6
			C15.4,5.4,13.8,3.8,11.9,3.8z"/>
	</g>
	<polygon fill="#FFFFFF" points="18.7,19.2 5.3,19.2 5.9,13.7 8.7,12.6 9.1,13.5 6.9,14.5 6.5,18.2 17.5,18.2 17.1,14.5 14.9,13.5 
		15.3,12.6 18.1,13.7 	"/>
</g>
<g>
</g>
<g>
</g>
<g>
</g>
<g>
</g>
<g>
</g>
<g>
</g>
<g>
</g>
<g>
</g>
<g>
</g>
<g>
</g>
<g>
</g>
<g>
</g>
<g>
</g>
<g>
</g>
<g>
</g>
</svg>
