<?xml version="1.0" encoding="utf-8"?>
<!-- Generator: Adobe Illustrator 21.0.0, SVG Export Plug-In . SVG Version: 6.00 Build 0)  -->
<svg version="1.1" id="Calque_1" xmlns="http://www.w3.org/2000/svg" xmlns:xlink="http://www.w3.org/1999/xlink" x="0px" y="0px"
	 viewBox="0 0 24 24" style="enable-background:new 0 0 24 24;" xml:space="preserve">
<style type="text/css">
	.st0{fill:#1C86F2;}
	.st1{fill:#FFFFFF;}
</style>
<path class="st0" d="M0,12C0,5.4,5.4,0,12,0s12,5.4,12,12s-5.4,12-12,12S0,18.6,0,12z"/>
<g>
	<path class="st1" d="M8,10.8c0,0.7-0.2,1.2-0.6,1.6c-0.4,0.4-1,0.5-1.8,0.5H4.9v2.3H3.6V8.8h2.1c0.8,0,1.4,0.2,1.8,0.5
		C7.8,9.6,8,10.1,8,10.8z M4.9,11.8h0.4c0.4,0,0.7-0.1,0.9-0.2s0.3-0.4,0.3-0.7s-0.1-0.6-0.3-0.7c0-0.2-0.3-0.3-0.6-0.3H4.9V11.8z"
		/>
	<path class="st1" d="M10.6,12.8v2.5H9.2V8.8h1.9C12,8.8,12.6,9,13,9.3s0.6,0.8,0.6,1.4c0,0.4-0.1,0.7-0.3,1s-0.5,0.5-0.9,0.7
		c1,1.4,1.6,2.4,1.9,2.8h-1.5l-1.5-2.4H10.6z M10.6,11.6H11c0.4,0,0.7-0.1,1-0.2s0.3-0.4,0.3-0.7S12.2,10.2,12,10
		c-0.2-0.1-0.5-0.2-1-0.2h-0.4V11.6z"/>
	<path class="st1" d="M21,12c0,1.1-0.3,1.9-0.8,2.5s-1.3,0.9-2.3,0.9s-1.7-0.3-2.3-0.9c-0.5-0.6-0.8-1.4-0.8-2.5s0.3-1.9,0.8-2.4
		c0.5-0.6,1.3-0.8,2.3-0.8s1.7,0.3,2.3,0.9C20.8,10.1,21,10.9,21,12z M16.3,12c0,0.7,0.1,1.3,0.4,1.6c0.3,0.4,0.7,0.5,1.2,0.5
		c1.1,0,1.6-0.7,1.6-2.2c0-1.4-0.5-2.2-1.6-2.2c-0.5,0-1,0.2-1.2,0.5C16.5,10.7,16.3,11.3,16.3,12z"/>
</g>
</svg>
