<?xml version="1.0" encoding="utf-8"?>
<!-- Generator: Adobe Illustrator 21.0.0, SVG Export Plug-In . SVG Version: 6.00 Build 0)  -->
<svg version="1.1" id="Calque_1" xmlns="http://www.w3.org/2000/svg" xmlns:xlink="http://www.w3.org/1999/xlink" x="0px" y="0px"
	 viewBox="0 0 24 24" style="enable-background:new 0 0 24 24;" xml:space="preserve">
<style type="text/css">
	.st0{fill:#1C86F2;}
</style>
<g>
	<path class="st0" d="M7.7,10.8c0,0.7-0.2,1.2-0.6,1.6c-0.4,0.4-1,0.5-1.8,0.5H4.6v2.3H3.3V8.8h2.1c0.8,0,1.4,0.2,1.8,0.5
		C7.5,9.6,7.7,10.1,7.7,10.8z M4.6,11.8h0.4c0.4,0,0.7-0.1,0.9-0.2s0.3-0.4,0.3-0.7c0-0.3-0.1-0.6-0.3-0.7C5.9,10,5.6,9.9,5.3,9.9
		H4.6V11.8z"/>
	<path class="st0" d="M10.3,12.8v2.5H8.9V8.8h1.9c0.9,0,1.5,0.2,1.9,0.5c0.4,0.3,0.6,0.8,0.6,1.4c0,0.4-0.1,0.7-0.3,1
		c-0.2,0.3-0.5,0.5-0.9,0.7c1,1.4,1.6,2.4,1.9,2.8h-1.5L11,12.8H10.3z M10.3,11.6h0.4c0.4,0,0.7-0.1,1-0.2s0.3-0.4,0.3-0.7
		c0-0.3-0.1-0.5-0.3-0.7c-0.2-0.1-0.5-0.2-1-0.2h-0.4V11.6z"/>
	<path class="st0" d="M20.7,12c0,1.1-0.3,1.9-0.8,2.5c-0.5,0.6-1.3,0.9-2.3,0.9s-1.7-0.3-2.3-0.9c-0.5-0.6-0.8-1.4-0.8-2.5
		c0-1.1,0.3-1.9,0.8-2.4c0.5-0.6,1.3-0.8,2.3-0.8s1.7,0.3,2.3,0.9C20.5,10.1,20.7,10.9,20.7,12z M16,12c0,0.7,0.1,1.3,0.4,1.6
		c0.3,0.4,0.7,0.5,1.2,0.5c1.1,0,1.6-0.7,1.6-2.2c0-1.4-0.5-2.2-1.6-2.2c-0.5,0-1,0.2-1.2,0.5C16.2,10.7,16,11.3,16,12z"/>
</g>
</svg>
