<svg width="36" height="36" viewBox="0 0 36 36" fill="none" xmlns="http://www.w3.org/2000/svg">
<path d="M18 35C27.3891 35 35 27.3891 35 18C35 8.6109 27.3891 1 18 1C8.6109 1 1 8.6109 1 18C1 21.0957 1.8279 24.001 3.2746 26.5L1.85 34.15L9.5 32.7254C12.0832 34.2198 15.0157 35.0045 18 35V35Z" fill="white" stroke="#C7297E" stroke-width="1.5" stroke-linecap="round" stroke-linejoin="round"/>
<path d="M18.25 24H15.9844V15.5469H18.25V24ZM15.8516 13.3594C15.8516 13.0208 15.9635 12.7422 16.1875 12.5234C16.4167 12.3047 16.7266 12.1953 17.1172 12.1953C17.5026 12.1953 17.8099 12.3047 18.0391 12.5234C18.2682 12.7422 18.3828 13.0208 18.3828 13.3594C18.3828 13.7031 18.2656 13.9844 18.0312 14.2031C17.8021 14.4219 17.4974 14.5312 17.1172 14.5312C16.737 14.5312 16.4297 14.4219 16.1953 14.2031C15.9661 13.9844 15.8516 13.7031 15.8516 13.3594Z" fill="#C7297E"/>
</svg>
