<?xml version="1.0" encoding="utf-8"?>
<!DOCTYPE svg PUBLIC "-//W3C//DTD SVG 1.1//EN" "http://www.w3.org/Graphics/SVG/1.1/DTD/svg11.dtd">
<svg version="1.1" xmlns="http://www.w3.org/2000/svg" xmlns:xlink="http://www.w3.org/1999/xlink" x="0px" y="0px" viewBox="0 0 1000 1000" enable-background="new 0 0 1000 1000" xml:space="preserve" fill="#54108e">
<g><path d="M461.3,10.1c148.5,0,297,0,445.4,0c54.2-1.6,84.8,14.1,83.2,68.5c0,157,0,313.9,0,470.9c-2,7.6-2.1,32.3-14.7,34.3c-7.7,1.2-19.5-7.8-25.5-12.7c-47.6-39.5-94.5-97.2-135.1-134.1C757.9,491.6,702.6,547,647.3,602.4c-31.9,31.9-57.7,71.9-116.5,73.4c-63.1,1.6-91.2-42.3-124.3-75.4c-20.8-20.8-45.3-41.3-59.7-61.7c-9.6-13.5-18-33.1-19.6-51.9c-5.9-70.6,39.1-98.8,73.4-133.1c47.3-47.3,91.2-90.3,138-137.1c4.8-4.8,27.5-25.3,27.4-28.4c-0.1-3.2-16.3-15.3-19.6-18.6c-34.7-34.7-63.8-63.8-96.9-96.9c-10.8-10.8-33.4-31.5-30.3-47C422.1,11,444.7,13.2,461.3,10.1L461.3,10.1z"/><path d="M634.6,990c-152.4,0-304.8,0-457.2,0C79.3,974.2,22.4,917.3,10,815.8c0-147.5,0-295,0-442.5c3.3-44.3,20.5-82.7,42.1-108.7c21.2-25.6,54.6-48.7,91-58.7c41.7-11.5,91.9-6.9,142.9-6.9c49.7,0,100.5,0,149.8,0c-25.3,27.4-55.4,57.4-84.2,86.1c-7.8,7.8-21.2,25.2-30.3,27.4c-9.7,2.3-22.9,0-34.3,0c-34,0-72-3-101.8,1c-31.1,4.2-56.6,26.2-60.7,58.7c-2.2,17.2,0,36.6,0,54.8c0,97.1,0,181.4,0,278c0,37.9-4.2,78.6,0,111.6c3.7,29.3,31.4,56.4,63.6,59.7c33.6,3.5,71.5,0,108.7,0c74.1,0,145.7,0,218.3,0c37.6,0,76,3.6,109.6,0c28.9-3.1,53.1-23.9,60.7-49.9c6.6-22.4,2.9-52,2.9-82.2c0-17.5-4.1-49.6,0-64.6c2.3-8.3,20-22,27.4-29.4c20.9-20.9,37.7-37.7,56.8-56.8c9.5-9.5,18.4-19.4,29.4-26.4c0,47.8,0,97.7,0,146.8c0,50.5,4.1,99.7-6.9,141C774.6,932.4,719.3,976.1,634.6,990L634.6,990z"/></g>
</svg>
