<?xml version="1.0" encoding="utf-8"?>
<!-- Generator: Adobe Illustrator 16.0.0, SVG Export Plug-In . SVG Version: 6.00 Build 0)  -->
<!DOCTYPE svg PUBLIC "-//W3C//DTD SVG 1.1//EN" "http://www.w3.org/Graphics/SVG/1.1/DTD/svg11.dtd">
<svg version="1.1" id="Calque_1" xmlns="http://www.w3.org/2000/svg" xmlns:xlink="http://www.w3.org/1999/xlink" x="0px" y="0px"
	 width="24px" height="24.152px" viewBox="499.91 371.924 24 24.152" enable-background="new 499.91 371.924 24 24.152"
	 xml:space="preserve">
<g>
	<g>
		<path fill="#FFFFFF" d="M509.665,391.549c-2.605,0-5.058-1.02-6.9-2.876c-1.839-1.853-2.855-4.315-2.855-6.935
			s1.013-5.086,2.855-6.938s4.292-2.876,6.896-2.876c2.605,0,5.058,1.02,6.9,2.876c1.843,1.853,2.855,4.315,2.855,6.938
			c0,2.619-1.013,5.086-2.855,6.938C514.72,390.529,512.271,391.549,509.665,391.549z M509.665,373.45
			c-2.196,0-4.26,0.86-5.814,2.425c-1.554,1.564-2.411,3.646-2.411,5.863c0,2.213,0.857,4.295,2.411,5.859s3.618,2.425,5.814,2.425
			c2.196,0,4.261-0.86,5.814-2.425s2.411-3.646,2.411-5.863c0-2.213-0.857-4.295-2.411-5.863
			C513.926,374.311,511.861,373.45,509.665,373.45z"/>
	</g>
	<path fill="#FFFFFF" d="M521.651,396.076c-0.604,0-1.169-0.236-1.596-0.663l-4.181-4.079l1.064-1.093l4.194,4.094
		c0.14,0.139,0.323,0.215,0.518,0.215s0.382-0.076,0.517-0.215c0.288-0.292,0.288-0.768,0-1.059l-0.007-0.007l-4.059-4.215
		l1.1-1.059l4.056,4.208c0.87,0.882,0.87,2.317-0.004,3.202C522.827,395.84,522.258,396.076,521.651,396.076z"/>
</g>
</svg>
