<svg xmlns="http://www.w3.org/2000/svg" width="17.666" height="25.125" viewBox="0 0 17.666 25.125">
  <g id="placeholder_1_" data-name="placeholder (1)" transform="translate(-76)">
    <g id="Groupe_46" data-name="Groupe 46" transform="translate(76)">
      <g id="Groupe_45" data-name="Groupe 45">
        <path id="Tracé_68" data-name="Tracé 68" d="M84.833,0a8.834,8.834,0,0,0-7.514,13.478l7.012,11.3a.736.736,0,0,0,.625.348h.006a.736.736,0,0,0,.626-.358L92.42,13.358A8.835,8.835,0,0,0,84.833,0Zm6.324,12.6L84.944,22.975,78.57,12.7a7.366,7.366,0,1,1,12.587-.1Z" transform="translate(-76)" fill="#54108e"/>
      </g>
    </g>
    <g id="Groupe_48" data-name="Groupe 48" transform="translate(80.416 4.416)">
      <g id="Groupe_47" data-name="Groupe 47">
        <path id="Tracé_69" data-name="Tracé 69" d="M170.416,90a4.416,4.416,0,1,0,4.416,4.416A4.421,4.421,0,0,0,170.416,90Zm0,7.371a2.954,2.954,0,1,1,2.949-2.954A2.956,2.956,0,0,1,170.416,97.371Z" transform="translate(-166 -90)" fill="#54108e"/>
      </g>
    </g>
  </g>
</svg>
