<?xml version="1.0" encoding="utf-8"?>
<!-- Generator: Adobe Illustrator 16.0.0, SVG Export Plug-In . SVG Version: 6.00 Build 0)  -->
<!DOCTYPE svg PUBLIC "-//W3C//DTD SVG 1.1//EN" "http://www.w3.org/Graphics/SVG/1.1/DTD/svg11.dtd">
<svg version="1.1" id="Calque_1" xmlns="http://www.w3.org/2000/svg" xmlns:xlink="http://www.w3.org/1999/xlink" x="0px" y="0px"
	 width="12.1px" height="16.2px" viewBox="0 0 12.1 16.2" enable-background="new 0 0 12.1 16.2" xml:space="preserve">
<g>
	<g>
		<path fill="#BEBEBE" d="M6,8.7c-1.4,0-2.6-1.2-2.6-2.6c0-1.4,1.2-2.6,2.6-2.6c1.4,0,2.6,1.2,2.6,2.6C8.6,7.5,7.5,8.7,6,8.7z
			 M6,4.6c-0.8,0-1.5,0.7-1.5,1.5c0,0.8,0.7,1.5,1.5,1.5c0.8,0,1.5-0.7,1.5-1.5S6.9,4.6,6,4.6z"/>
	</g>
	<path fill="#BEBEBE" d="M6,16.2c-0.1,0-0.3,0-0.4-0.1C5.1,15.6,0,11,0,6.1C0,2.7,2.7,0,6,0s6,2.7,6,6.1c0,5.1-5.5,9.8-5.7,10
		C6.3,16.2,6.2,16.2,6,16.2z M6,1.1c-2.7,0-5,2.2-5,5c0,3.7,3.4,7.4,4.9,8.8L6,15l0.1-0.1C7.6,13.5,11,9.8,11,6.1
		C11,3.3,8.8,1.1,6,1.1z"/>
</g>
<g>
</g>
<g>
</g>
<g>
</g>
<g>
</g>
<g>
</g>
<g>
</g>
<g>
</g>
<g>
</g>
<g>
</g>
<g>
</g>
<g>
</g>
<g>
</g>
<g>
</g>
<g>
</g>
<g>
</g>
</svg>
