<svg xmlns="http://www.w3.org/2000/svg" width="14.3" height="13.7"><path fill="#BEBEBE" d="M1 13.7a1 1 0 0 1-1-1V3.5c0-.6.5-1 1-1h3.1l.2-.2v-.7C4.3.7 5 0 5.9 0h2.5c.9 0 1.6.7 1.6 1.6v.6l.2.2h3.1c.6 0 1 .5 1 1v9.2c0 .6-.5 1-1 1H1zm0-6.1l-.2.2v4.9l.2.2h12.3l.2-.2V7.8l-.1-.1-.1-.1H9l-.2.2c0 .9-.7 1.6-1.6 1.6-.5 0-.9-.2-1.2-.5-.3-.3-.5-.7-.5-1.1l-.2-.2H1zm6.2-1.9c-.4 0-.8.4-.8.8v1.2l.2.6c.2.2.4.2.6.2.4.1.8-.3.8-.7V6.5c0-.2-.1-.4-.3-.5a.5.5 0 0 0-.5-.3zm0-.8c.4 0 .8.2 1.2.5.3.3.5.7.5 1.2l.2.2h4.3l.1-.1.1-.1V3.5l-.2-.2H1l-.1.1-.1.1v3.1l.2.2h4.3l.2-.2c0-1 .7-1.7 1.7-1.7zM5.1 2.3l.2.2H9l.2-.2v-.7c0-.4-.4-.8-.8-.8H5.9c-.4 0-.8.4-.8.8v.7z"/></svg>