<?xml version="1.0" encoding="UTF-8"?>
<svg width="37px" height="37px" viewBox="0 0 37 37" version="1.1" xmlns="http://www.w3.org/2000/svg" xmlns:xlink="http://www.w3.org/1999/xlink">
    <!-- Generator: Sketch 48.2 (47327) - http://www.bohemiancoding.com/sketch -->
    <title>voiture</title>
    <desc>Created with Sketch.</desc>
    <defs></defs>
    <g id="Desktop" stroke="none" stroke-width="1" fill="none" fill-rule="evenodd" transform="translate(-35.000000, -1530.000000)">
        <g id="voiture" transform="translate(36.000000, 1531.000000)">
            <circle id="Oval" stroke="#D8D8D8" stroke-width="0.5" fill-opacity="0" fill="#D8D8D8" cx="17.5" cy="17.5" r="17.5"></circle>
            <g id="noun_72" transform="translate(6.000000, 7.000000)" fill="#7D3D8D">
                <path d="M20.9127503,6.86110607 L19.0274405,1.80015569 C18.6748506,0.831337671 17.9043507,0.00693379133 16.4461509,0 L13.7873512,0 L9.24324179,0 L6.53821214,0 C5.08668233,0.00693379133 4.31618243,0.831337671 3.95715248,1.80015569 L2.07138272,6.86110607 C1.32273282,6.96152649 -0.00229700938,7.87606966 2.99032222e-06,9.60856111 L2.99032222e-06,16.0524442 L1.83977275,16.0524442 L1.83977275,18.1093893 C1.83517275,20.6452441 5.2872423,20.615118 5.2863223,18.1093893 L5.2863223,16.0524442 L11.5000015,16.0524442 L17.6980407,16.0524442 L17.6980407,18.1093893 C17.7056307,20.615118 21.1577002,20.6452441 21.1600002,18.1093893 L21.1600002,16.0524442 L23,16.0524442 L23,9.60856111 C22.99425,7.87606966 21.6683002,6.96152649 20.9127503,6.86110607 Z M3.61721252,12.1637828 C2.73539263,12.1664128 2.02147273,11.401783 2.02515273,10.4614174 C2.02147273,9.51459628 2.73539263,8.74924918 3.61721252,8.75713935 C4.49627241,8.74924918 5.21019231,9.51459628 5.20904231,10.4614174 C5.21019231,11.401783 4.49604241,12.1661737 3.61721252,12.1637828 Z M11.5000015,6.81352591 L11.4845915,6.81352591 L4.03443247,6.81352591 L5.45629228,2.82826957 C5.62787226,2.26256784 5.89421222,1.85777788 6.52326214,1.84797494 L11.4845915,1.84797494 L11.5000015,1.84797494 L16.4772008,1.84797494 C17.0965908,1.85777788 17.3636207,2.26232874 17.5434807,2.82826957 L18.9655705,6.81352591 L11.5000015,6.81352591 Z M19.3830205,12.1637828 C18.4949906,12.1664128 17.7806107,11.401783 17.7757807,10.4614174 C17.7806107,9.51459628 18.4949906,8.74924918 19.3830205,8.75713935 C20.2558704,8.74924918 20.9695603,9.51459628 20.9750803,10.4614174 C20.9695603,11.401783 20.2558704,12.1661737 19.3830205,12.1637828 Z" id="Shape" fill-rule="nonzero"></path>
                <rect id="Rectangle" x="1" y="4" width="2" height="2" rx="1"></rect>
                <rect id="Rectangle-Copy" x="20" y="4" width="2" height="2" rx="1"></rect>
            </g>
        </g>
    </g>
</svg>