<?xml version="1.0" encoding="UTF-8"?>
<svg width="34px" height="34px" viewBox="0 0 34 34" version="1.1" xmlns="http://www.w3.org/2000/svg" xmlns:xlink="http://www.w3.org/1999/xlink">
    <!-- Generator: Sketch 51.3 (57544) - http://www.bohemiancoding.com/sketch -->
    <title>Group 9</title>
    <desc>Created with Sketch.</desc>
    <defs></defs>
    <g id="Page-de-resultats" stroke="none" stroke-width="1" fill="none" fill-rule="evenodd">
        <g id="Group-9" transform="translate(1.000000, 1.000000)">
            <circle id="Oval-Copy-3" stroke="#5d5d5d" fill="#FFFFFF" cx="16" cy="16" r="16"></circle>
            <path d="M25.0845624,13.4462414 L23.2909704,8.63149946 C22.9555335,7.70981314 22.2225174,6.92551539 20.835257,6.91891892 L18.3058044,6.91891892 L13.9827598,6.91891892 L11.4093261,6.91891892 C10.0284113,6.92551539 9.29539518,7.70981314 8.95383154,8.63149946 L7.15980194,13.4462414 C6.44757284,13.5417766 5.18700393,14.4118284 5.18919203,16.0600365 L5.18919203,22.1904334 L6.93945948,22.1904334 L6.93945948,24.1473109 C6.93508327,26.5597998 10.2192143,26.5311393 10.2183391,24.1473109 L10.2183391,22.1904334 L16.1297312,22.1904334 L22.0262441,22.1904334 L22.0262441,24.1473109 C22.0334649,26.5311393 25.3175959,26.5597998 25.319784,24.1473109 L25.319784,22.1904334 L27.0702703,22.1904334 L27.0702703,16.0600365 C27.0648,14.4118284 25.8033558,13.5417766 25.0845624,13.4462414 Z M8.63042921,18.4909501 C7.79150867,18.4934522 7.11232,17.7660206 7.11582097,16.8714025 C7.11232,15.9706429 7.79150867,15.2425289 8.63042921,15.2500353 C9.46672402,15.2425289 10.1459127,15.9706429 10.1448186,16.8714025 C10.1459127,17.7660206 9.46650521,18.4932247 8.63042921,18.4909501 Z M16.1297312,13.400976 L16.1150708,13.400976 L9.02735197,13.400976 L10.3800402,9.609597 C10.5432731,9.07141589 10.796656,8.68631842 11.3951034,8.67699237 L16.1150708,8.67699237 L16.1297312,8.67699237 L20.8647965,8.67699237 C21.4540539,8.68631842 21.7080932,9.07118843 21.8792033,9.609597 L23.2321103,13.400976 L16.1297312,13.400976 Z M23.6292519,18.4909501 C22.7844235,18.4934522 22.1047972,17.7660206 22.1002022,16.8714025 C22.1047972,15.9706429 22.7844235,15.2425289 23.6292519,15.2500353 C24.4596388,15.2425289 25.1386087,15.9706429 25.1438601,16.8714025 C25.1386087,17.7660206 24.4596388,18.4932247 23.6292519,18.4909501 Z" id="Shape" fill="#5d5d5d" fill-rule="nonzero"></path>
            <rect id="Rectangle" fill="#5d5d5d" x="6.14054054" y="10.7243243" width="1.9027027" height="1.9027027" rx="0.951351351"></rect>
            <rect id="Rectangle-Copy" fill="#5d5d5d" x="24.2162162" y="10.7243243" width="1.9027027" height="1.9027027" rx="0.951351351"></rect>
        </g>
    </g>
</svg>