<?xml version="1.0" encoding="UTF-8"?>
<svg width="32px" height="32px" viewBox="0 0 32 32" version="1.1" xmlns="http://www.w3.org/2000/svg" xmlns:xlink="http://www.w3.org/1999/xlink">
    <!-- Generator: Sketch 51.3 (57544) - http://www.bohemiancoding.com/sketch -->
    <title>Group 5</title>
    <desc>Created with Sketch.</desc>
    <defs></defs>
    <g id="Page-de-resultats" stroke="none" stroke-width="1" fill="none" fill-rule="evenodd">
        <g id="Group-5">
            <circle id="Oval-Copy-2" fill="#54108E" cx="16" cy="16" r="16"></circle>
            <g id="noun_72-copy" transform="translate(5.189189, 6.918919)">
                <path d="M19.8953732,6.52732253 L18.1017812,1.71258055 C17.7663443,0.790894217 17.0333282,0.00659647175 15.6460678,0 L13.1166152,0 L8.79357057,0 L6.22013696,0 C4.83922211,0.00659647175 4.10620599,0.790894217 3.76464236,1.71258055 L1.97061275,6.52732253 C1.25838365,6.62285764 -0.00218526298,7.49290952 2.84484708e-06,9.1411176 L2.84484708e-06,15.2715145 L1.75027029,15.2715145 L1.75027029,17.228392 C1.74589408,19.6408809 5.03002511,19.6122204 5.02914987,17.228392 L5.02914987,15.2715145 L10.940542,15.2715145 L16.8370549,15.2715145 L16.8370549,17.228392 C16.8442757,19.6122204 20.1284067,19.6408809 20.1305948,17.228392 L20.1305948,15.2715145 L21.8810811,15.2715145 L21.8810811,9.1411176 C21.8756108,7.49290952 20.6141667,6.62285764 19.8953732,6.52732253 Z M3.44124002,11.5720312 C2.60231948,11.5745333 1.92313081,10.8471017 1.92663178,9.95248362 C1.92313081,9.05172403 2.60231948,8.32361003 3.44124002,8.33111636 C4.27753483,8.32361003 4.9567235,9.05172403 4.95562944,9.95248362 C4.9567235,10.8471017 4.27731602,11.5743058 3.44124002,11.5720312 Z M10.940542,6.48205709 L10.9258816,6.48205709 L3.83816278,6.48205709 L5.19085103,2.69067808 C5.35408388,2.15249697 5.60746676,1.7673995 6.20591425,1.75807345 L10.9258816,1.75807345 L10.940542,1.75807345 L15.6756073,1.75807345 C16.2648647,1.7673995 16.518904,2.15226951 16.6900141,2.69067808 L18.0429211,6.48205709 L10.940542,6.48205709 Z M18.4400627,11.5720312 C17.5952343,11.5745333 16.915608,10.8471017 16.911013,9.95248362 C16.915608,9.05172403 17.5952343,8.32361003 18.4400627,8.33111636 C19.2704496,8.32361003 19.9494195,9.05172403 19.954671,9.95248362 C19.9494195,10.8471017 19.2704496,11.5743058 18.4400627,11.5720312 Z" id="Shape" fill="#FFFFFF" fill-rule="nonzero"></path>
                <rect id="Rectangle" fill="#7D3D8D" x="0.951351351" y="3.80540541" width="1.9027027" height="1.9027027" rx="0.951351351"></rect>
                <rect id="Rectangle-Copy" fill="#7D3D8D" x="19.027027" y="3.80540541" width="1.9027027" height="1.9027027" rx="0.951351351"></rect>
            </g>
        </g>
    </g>
</svg>