<?xml version="1.0" encoding="UTF-8"?>
<svg width="26px" height="26px" viewBox="0 0 26 26" version="1.1" xmlns="http://www.w3.org/2000/svg" xmlns:xlink="http://www.w3.org/1999/xlink">
    <!-- Generator: Sketch 51.3 (57544) - http://www.bohemiancoding.com/sketch -->
    <title>Group 3</title>
    <desc>Created with Sketch.</desc>
    <defs></defs>
    <g id="Symbols" stroke="none" stroke-width="1" fill="none" fill-rule="evenodd">
        <g id="liste-résultat" transform="translate(-10.000000, -127.000000)">
            <g id="Group-3" transform="translate(11.000000, 128.000000)">
                <circle id="Oval-Copy-4" stroke="#5d5d5d" fill="#FFFFFF" cx="12" cy="12" r="12"></circle>
                <path d="M6.70166016,13.03125 L7.35107422,12.2011719 L8.87939453,10.5410156 L10.559082,10.5410156 L8.39111328,12.9091797 L10.690918,16 L8.97216797,16 L7.39990234,13.7880859 L6.76025391,14.3007812 L6.76025391,16 L5.27099609,16 L5.27099609,8.40234375 L6.76025391,8.40234375 L6.76025391,11.7910156 L6.68212891,13.03125 L6.70166016,13.03125 Z M16.3598633,16 L14.8706055,16 L14.8706055,12.8115234 C14.8706055,12.4176413 14.8046882,12.1222341 14.6728516,11.925293 C14.541015,11.7283519 14.3334975,11.6298828 14.050293,11.6298828 C13.6694317,11.6298828 13.3927417,11.7698554 13.2202148,12.0498047 C13.0476879,12.329754 12.9614258,12.7903614 12.9614258,13.4316406 L12.9614258,16 L11.472168,16 L11.472168,10.5410156 L12.6098633,10.5410156 L12.8100586,11.2392578 L12.8930664,11.2392578 C13.0395515,10.9886055 13.2511379,10.7924812 13.527832,10.6508789 C13.8045261,10.5092766 14.1219058,10.4384766 14.4799805,10.4384766 C15.2970418,10.4384766 15.8504217,10.705401 16.1401367,11.2392578 L16.2719727,11.2392578 C16.4184578,10.9853503 16.6341132,10.7884122 16.9189453,10.6484375 C17.2037775,10.5084628 17.5252261,10.4384766 17.8833008,10.4384766 C18.5017935,10.4384766 18.969725,10.5971664 19.2871094,10.9145508 C19.6044938,11.2319352 19.7631836,11.7405564 19.7631836,12.4404297 L19.7631836,16 L18.269043,16 L18.269043,12.8115234 C18.269043,12.4176413 18.2031257,12.1222341 18.0712891,11.925293 C17.9394525,11.7283519 17.731935,11.6298828 17.4487305,11.6298828 C17.0841453,11.6298828 16.8115243,11.7600898 16.6308594,12.0205078 C16.4501944,12.2809258 16.3598633,12.6943331 16.3598633,13.2607422 L16.3598633,16 Z" id="km" fill="#5d5d5d"></path>
            </g>
        </g>
    </g>
</svg>