<?xml version="1.0" encoding="UTF-8"?>
<svg width="35px" height="35px" viewBox="0 0 35 35" version="1.1" xmlns="http://www.w3.org/2000/svg" xmlns:xlink="http://www.w3.org/1999/xlink">
    <!-- Generator: Sketch 48.2 (47327) - http://www.bohemiancoding.com/sketch -->
    <title>Group 4</title>
    <desc>Created with Sketch.</desc>
    <defs>
        <polygon id="path-1" points="1.00610352 23.0008545 2.93391083 23.0008545 3.92358398 21.8894043 15.1932373 21.8894043 16.1878662 23.0008545 18.0632935 23.0008545 16.7516479 19.9981689 19.2283936 16.8413086 19.2283936 4.62890625 15.5809326 0.315551758 3.70849609 0.315551758 0.248046875 3.98864746 0.248046875 19.1148682 2.44555664 20.3631592"></polygon>
    </defs>
    <g id="Desktop" stroke="none" stroke-width="1" fill="none" fill-rule="evenodd" transform="translate(-100.000000, -1488.000000)">
        <g id="Group-4" transform="translate(100.000000, 1488.000000)">
            <circle id="Oval-Copy" fill="#D8D8D8" cx="17.5" cy="17.5" r="17.5"></circle>
            <g id="noun_1175692_cc" transform="translate(8.000000, 5.000000)">
                <mask id="mask-2" fill="white">
                    <use xlink:href="#path-1"></use>
                </mask>
                <g id="Mask"></g>
                <g mask="url(#mask-2)" fill="#7D3D8D" id="Shape">
                    <g transform="translate(-3.000000, 1.000000)">
                        <path d="M18.2608421,18.837644 L24.7720808,26.2942114 C25.3223264,26.9810005 24.7720808,28.4526914 24.2218353,27.8640151 L22.6628063,25.9998732 L12.483264,25.9998732 C9.18179084,25.9998732 5.78861007,25.9998732 2.39542931,25.9998732 L0.836400308,27.8640151 C0.19444719,28.4526914 -0.355798339,26.9810005 0.286154779,26.2942114 L6.79739354,18.837644 C5.05494937,18.3470803 3.77104313,16.679164 3.77104313,14.6187966 L3.77104313,4.21884735 C3.77104313,1.96225458 5.51348731,0 7.71446943,0 L17.3437662,0 C19.5447483,0 21.2871925,1.96225458 21.2871925,4.21884735 L21.2871925,14.6187966 C21.2871925,16.679164 20.0032863,18.3470803 18.2608421,18.837644 Z M15.2344917,1.86414185 C15.9681524,1.86414185 15.9681524,3.13960733 15.2344917,3.13960733 L9.82374396,3.13960733 C9.09008325,3.13960733 9.09008325,1.86414185 9.82374396,1.86414185 L15.2344917,1.86414185 Z M18.1691345,4.21884735 C19.177918,4.21884735 19.9115787,5.00374919 19.9115787,6.08298921 L19.9115787,10.3018366 C19.9115787,11.3810766 19.177918,12.1659784 18.1691345,12.1659784 L6.88910113,12.1659784 C5.88031766,12.1659784 5.14665696,11.3810766 5.14665696,10.3018366 L5.14665696,6.08298921 C5.14665696,5.00374919 5.88031766,4.21884735 6.88910113,4.21884735 L18.1691345,4.21884735 Z M7.1642239,13.7357821 C7.8978846,13.7357821 8.53983772,14.4225712 8.53983772,15.207473 C8.53983772,15.9923748 7.8978846,16.5810512 7.1642239,16.5810512 C6.43056319,16.5810512 5.78861007,15.9923748 5.78861007,15.207473 C5.78861007,14.4225712 6.43056319,13.7357821 7.1642239,13.7357821 Z M17.8940117,13.7357821 C17.160351,13.7357821 16.5183979,14.4225712 16.5183979,15.207473 C16.5183979,15.9923748 17.160351,16.5810512 17.8940117,16.5810512 C18.6276724,16.5810512 19.2696255,15.9923748 19.2696255,15.207473 C19.2696255,14.4225712 18.6276724,13.7357821 17.8940117,13.7357821 Z M8.44813013,18.9357567 C8.35642254,19.2300949 8.08129978,19.4263204 7.8978846,19.7206586 L12.483264,19.7206586 L17.160351,19.7206586 C16.9769358,19.4263204 16.6101055,19.2300949 16.6101055,18.9357567 L8.44813013,18.9357567 Z M12.483264,20.8980113 L6.88910113,20.8980113 L5.69690248,22.1734768 L5.69690248,22.2715895 L12.483264,22.2715895 L19.3613331,22.2715895 L19.3613331,22.1734768 L18.1691345,20.8980113 L12.483264,20.8980113 Z M12.483264,23.4489423 L4.59641143,23.4489423 L3.49592037,24.7244077 L3.40421278,24.8225205 C6.43056319,24.8225205 9.4569136,24.8225205 12.483264,24.8225205 L21.6540228,24.8225205 L21.5623153,24.7244077 L20.4618242,23.4489423 L12.483264,23.4489423 Z"></path>
                    </g>
                </g>
            </g>
        </g>
    </g>
</svg>