<?xml version="1.0" encoding="UTF-8"?>
<svg width="34px" height="34px" viewBox="0 0 34 34" version="1.1" xmlns="http://www.w3.org/2000/svg" xmlns:xlink="http://www.w3.org/1999/xlink">
    <!-- Generator: Sketch 51.3 (57544) - http://www.bohemiancoding.com/sketch -->
    <title>Group 11 Copy 2</title>
    <desc>Created with Sketch.</desc>
    <defs>
        <rect id="path-1" x="0" y="0" width="19.027027" height="20.7567568"></rect>
    </defs>
    <g id="Page-de-resultats" stroke="none" stroke-width="1" fill="none" fill-rule="evenodd">
        <g id="Group-11-Copy-2" transform="translate(1.000000, 1.000000)">
            <circle id="Oval-Copy-4" stroke="#5d5d5d" fill="#FFFFFF" cx="16" cy="16" r="16"></circle>
            <g id="Group-2-Copy-3" transform="translate(6.054054, 4.324324)">
                <mask id="mask-2" fill="white">
                    <use xlink:href="#path-1"></use>
                </mask>
                <g id="Mask" fill-rule="nonzero"></g>
                <g mask="url(#mask-2)" id="noun_1175692_cc">
                    <g transform="translate(-0.864865, 1.729730)">
                        <g>
                            <path d="M15.7931607,16.2920164 L21.4245023,22.7409396 C21.9003904,23.3349194 21.4245023,24.6077331 20.9486143,24.0986076 L19.6002649,22.4863768 L10.7963364,22.4863768 C7.94100829,22.4863768 5.00636547,22.4863768 2.07172264,22.4863768 L0.723373239,24.0986076 C0.168170543,24.6077331 -0.307717482,23.3349194 0.247485214,22.7409396 L5.87882685,16.2920164 C4.3718481,15.8677452 3.26144271,14.4252229 3.26144271,12.6432836 L3.26144271,3.64873285 C3.26144271,1.69708504 4.76842146,0 6.67197356,0 L15.000014,0 C16.9035661,0 18.4105449,1.69708504 18.4105449,3.64873285 L18.4105449,12.6432836 C18.4105449,14.4252229 17.3001395,15.8677452 15.7931607,16.2920164 Z M13.1757766,1.61223079 C13.8102939,1.61223079 13.8102939,2.71533607 13.1757766,2.71533607 L8.49621099,2.71533607 C7.86169362,2.71533607 7.86169362,1.61223079 8.49621099,1.61223079 L13.1757766,1.61223079 Z M15.713846,3.64873285 C16.5863074,3.64873285 17.2208248,4.32756686 17.2208248,5.26096364 L17.2208248,8.90969648 C17.2208248,9.84309326 16.5863074,10.5219273 15.713846,10.5219273 L5.95814152,10.5219273 C5.08568014,10.5219273 4.45116277,9.84309326 4.45116277,8.90969648 L4.45116277,5.26096364 C4.45116277,4.32756686 5.08568014,3.64873285 5.95814152,3.64873285 L15.713846,3.64873285 Z M6.19608553,11.8795953 C6.8306029,11.8795953 7.3858056,12.4735751 7.3858056,13.1524091 C7.3858056,13.8312431 6.8306029,14.3403686 6.19608553,14.3403686 C5.56156816,14.3403686 5.00636547,13.8312431 5.00636547,13.1524091 C5.00636547,12.4735751 5.56156816,11.8795953 6.19608553,11.8795953 Z M15.475902,11.8795953 C14.8413847,11.8795953 14.286182,12.4735751 14.286182,13.1524091 C14.286182,13.8312431 14.8413847,14.3403686 15.475902,14.3403686 C16.1104194,14.3403686 16.6656221,13.8312431 16.6656221,13.1524091 C16.6656221,12.4735751 16.1104194,11.8795953 15.475902,11.8795953 Z M7.30649093,16.3768707 C7.22717625,16.6314334 6.98923224,16.8011419 6.8306029,17.0557047 L10.7963364,17.0557047 L14.8413847,17.0557047 C14.6827553,16.8011419 14.3654966,16.6314334 14.3654966,16.3768707 L7.30649093,16.3768707 Z M10.7963364,18.0739557 L5.95814152,18.0739557 L4.9270508,19.177061 L4.9270508,19.2619153 L10.7963364,19.2619153 L16.7449368,19.2619153 L16.7449368,19.177061 L15.713846,18.0739557 L10.7963364,18.0739557 Z M10.7963364,20.2801663 L3.97527475,20.2801663 L3.0234987,21.3832716 L2.94418402,21.4681258 C5.56156816,21.4681258 8.17895231,21.4681258 10.7963364,21.4681258 L18.7278035,21.4681258 L18.6484889,21.3832716 L17.6967128,20.2801663 L10.7963364,20.2801663 Z" id="Shape" fill="#5d5d5d"></path>
                        </g>
                    </g>
                </g>
            </g>
        </g>
    </g>
</svg>