<svg width="50" height="50" viewBox="0 0 50 50" fill="none" xmlns="http://www.w3.org/2000/svg">
<path d="M25 0C20.0555 0 15.222 1.46622 11.1108 4.21326C6.99953 6.96029 3.79521 10.8648 1.90302 15.4329C0.0108321 20.0011 -0.484251 25.0277 0.480379 29.8773C1.44501 34.7268 3.82603 39.1813 7.32234 42.6777C10.8187 46.174 15.2732 48.555 20.1227 49.5196C24.9723 50.4843 29.9989 49.9892 34.5671 48.097C39.1352 46.2048 43.0397 43.0005 45.7867 38.8892C48.5338 34.778 50 29.9445 50 25C49.9925 18.3719 47.3561 12.0174 42.6693 7.33065C37.9826 2.64388 31.6281 0.00753586 25 0V0ZM25 45.4548C20.9544 45.4548 16.9997 44.2552 13.6359 42.0076C10.2721 39.76 7.65038 36.5654 6.1022 32.8277C4.55403 29.0901 4.14895 24.9773 4.93821 21.0095C5.72746 17.0416 7.6756 13.3969 10.5363 10.5362C13.3969 7.67558 17.0416 5.72745 21.0095 4.9382C24.9773 4.14894 29.0901 4.55402 32.8277 6.10219C36.5654 7.65037 39.76 10.2721 42.0076 13.6359C44.2552 16.9997 45.4548 20.9544 45.4548 25C45.4488 30.4231 43.2918 35.6223 39.4571 39.4571C35.6224 43.2918 30.4231 45.4488 25 45.4548V45.4548Z" fill="black"/>
<path d="M34.3745 16.1615L21.5178 29.0182L15.6268 23.1268C15.4158 22.9158 15.1652 22.7484 14.8895 22.6342C14.6138 22.5199 14.3183 22.4611 14.0198 22.4611C13.7214 22.4611 13.4259 22.5198 13.1501 22.634C12.8744 22.7482 12.6239 22.9156 12.4128 23.1266C12.2018 23.3377 12.0343 23.5882 11.9201 23.8639C11.8059 24.1396 11.7471 24.4351 11.7471 24.7336C11.7471 25.032 11.8058 25.3276 11.92 25.6033C12.0342 25.879 12.2016 26.1296 12.4126 26.3406L19.9117 33.8397C20.3378 34.2659 20.9159 34.5053 21.5186 34.5054V34.5054C22.1213 34.5053 22.6993 34.2659 23.1255 33.8397L37.5894 19.3761C38.0157 18.9499 38.2551 18.3718 38.2551 17.769C38.2551 17.1662 38.0157 16.5881 37.5894 16.1619C37.1632 15.7357 36.5851 15.4962 35.9824 15.4962C35.3796 15.4962 34.8015 15.7357 34.3753 16.1619L34.3745 16.1615Z" fill="#54108E"/>
</svg>
