<svg width="58" height="56" viewBox="0 0 58 56" fill="none" xmlns="http://www.w3.org/2000/svg">
<path d="M7.03185 7.9991C7.5357 7.9991 8.02823 7.8497 8.44716 7.56978C8.86609 7.28985 9.1926 6.89199 9.38542 6.4265C9.57823 5.96101 9.62868 5.4488 9.53038 4.95464C9.43209 4.46047 9.18946 4.00656 8.83319 3.65028C8.47692 3.29401 8.023 3.05139 7.52884 2.95309C7.03468 2.8548 6.52247 2.90525 6.05698 3.09806C5.59148 3.29087 5.19362 3.61739 4.9137 4.03632C4.63378 4.45525 4.48438 4.94778 4.48438 5.45162C4.48515 6.12702 4.75379 6.77453 5.23137 7.25211C5.70895 7.72968 6.35646 7.99833 7.03185 7.9991V7.9991ZM7.03185 4.601C7.20009 4.601 7.36455 4.65089 7.50443 4.74436C7.64432 4.83782 7.75335 4.97067 7.81773 5.1261C7.88211 5.28154 7.89895 5.45257 7.86613 5.61757C7.83331 5.78258 7.7523 5.93415 7.63334 6.05311C7.51437 6.17207 7.36281 6.25308 7.1978 6.2859C7.0328 6.31873 6.86176 6.30188 6.70633 6.2375C6.5509 6.17312 6.41805 6.06409 6.32458 5.92421C6.23112 5.78432 6.18123 5.61986 6.18123 5.45162C6.18142 5.22605 6.27109 5.00977 6.43056 4.85023C6.59003 4.69069 6.80628 4.60093 7.03185 4.60063V4.601Z" fill="#54108E"/>
<path d="M12.4327 7.9991C12.9366 7.9991 13.4291 7.8497 13.848 7.56978C14.267 7.28985 14.5935 6.89199 14.7863 6.4265C14.9791 5.96101 15.0296 5.4488 14.9313 4.95464C14.833 4.46047 14.5903 4.00656 14.2341 3.65028C13.8778 3.29401 13.4239 3.05139 12.9297 2.95309C12.4356 2.8548 11.9233 2.90525 11.4579 3.09806C10.9924 3.29087 10.5945 3.61739 10.3146 4.03632C10.0347 4.45525 9.88525 4.94778 9.88525 5.45162C9.88603 6.12702 10.1547 6.77453 10.6322 7.25211C11.1098 7.72968 11.7573 7.99833 12.4327 7.9991V7.9991ZM12.4327 4.601C12.601 4.601 12.7654 4.65089 12.9053 4.74436C13.0452 4.83782 13.1542 4.97067 13.2186 5.1261C13.283 5.28154 13.2998 5.45257 13.267 5.61757C13.2342 5.78258 13.1532 5.93415 13.0342 6.05311C12.9153 6.17207 12.7637 6.25308 12.5987 6.2859C12.4337 6.31873 12.2626 6.30188 12.1072 6.2375C11.9518 6.17312 11.8189 6.06409 11.7255 5.92421C11.632 5.78432 11.5821 5.61986 11.5821 5.45162C11.5823 5.22605 11.672 5.00977 11.8314 4.85023C11.9909 4.69069 12.2072 4.60093 12.4327 4.60063V4.601Z" fill="#54108E"/>
<path d="M9.8739 22.1298C10.2462 21.9206 10.5559 21.6157 10.7708 21.2467C10.9857 20.8777 11.098 20.4579 11.0962 20.0308V13.9267C11.0962 13.7017 11.0068 13.4859 10.8477 13.3268C10.6886 13.1677 10.4728 13.0783 10.2478 13.0783C10.0228 13.0783 9.80695 13.1677 9.64784 13.3268C9.48873 13.4859 9.39934 13.7017 9.39934 13.9267V20.0308C9.40125 20.1552 9.3699 20.2777 9.30855 20.3859C9.2472 20.4941 9.15807 20.5839 9.05038 20.646C8.64282 20.8723 8.18401 20.4468 8.15361 20.4179C7.99425 20.259 7.77829 20.1699 7.55326 20.1703C7.32822 20.1706 7.11254 20.2603 6.95366 20.4197C6.79478 20.5791 6.70571 20.795 6.70606 21.0201C6.7064 21.2451 6.79612 21.4608 6.95549 21.6197C7.44499 22.109 8.10228 22.3939 8.79405 22.4165C9.1727 22.4155 9.54467 22.3168 9.8739 22.1298V22.1298Z" fill="#54108E"/>
<path d="M23.4934 22.4128H23.4971C23.4971 22.4128 25.5371 22.4037 26.0991 22.4037C26.7084 22.4039 27.3023 22.2125 27.7967 21.8566C28.2911 21.5006 28.661 20.9981 28.854 20.4203C29.047 19.8424 29.0533 19.2185 28.872 18.6368C28.6908 18.0552 28.3311 17.5453 27.844 17.1794C28.1182 16.7893 28.28 16.3313 28.3118 15.8554C28.3435 15.3796 28.2439 14.9041 28.0239 14.481C27.8039 14.0579 27.472 13.7033 27.0642 13.4559C26.6565 13.2086 26.1886 13.0779 25.7117 13.0783H23.4934C23.2684 13.0783 23.0526 13.1677 22.8935 13.3268C22.7344 13.4859 22.645 13.7017 22.645 13.9267V21.564C22.645 21.789 22.7344 22.0048 22.8935 22.1639C23.0526 22.3231 23.2684 22.4124 23.4934 22.4124V22.4128ZM26.0991 20.7068C25.7773 20.7068 24.9732 20.7097 24.3415 20.7123V18.2955L24.9131 18.2933H26.0991C26.4104 18.3066 26.7045 18.4396 26.9201 18.6646C27.1357 18.8895 27.256 19.1891 27.256 19.5006C27.256 19.8122 27.1357 20.1117 26.9201 20.3367C26.7045 20.5616 26.4104 20.6946 26.0991 20.7079V20.7068ZM25.7117 14.7748C25.9528 14.7748 26.1839 14.8705 26.3544 15.041C26.5248 15.2114 26.6206 15.4426 26.6206 15.6836C26.6206 15.9247 26.5248 16.1558 26.3544 16.3263C26.1839 16.4967 25.9528 16.5925 25.7117 16.5925C25.5499 16.5925 25.2463 16.5925 24.9146 16.5947H24.3419V14.7748H25.7117Z" fill="#54108E"/>
<path d="M12.2036 17.7456C12.2036 18.6686 12.4773 19.5709 12.9901 20.3383C13.5029 21.1058 14.2317 21.704 15.0845 22.0572C15.9372 22.4104 16.8756 22.5029 17.7808 22.3228C18.6861 22.1428 19.5177 21.6983 20.1704 21.0457C20.8231 20.3931 21.2676 19.5615 21.4477 18.6563C21.6278 17.751 21.5354 16.8127 21.1823 15.9599C20.8291 15.1071 20.231 14.3782 19.4636 13.8654C18.6961 13.3525 17.7939 13.0787 16.8709 13.0787C15.6335 13.08 14.4472 13.5721 13.5723 14.4471C12.6973 15.322 12.2051 16.5082 12.2036 17.7456ZM16.8709 14.7755C17.4583 14.7756 18.0325 14.9499 18.5208 15.2762C19.0092 15.6026 19.3898 16.0665 19.6146 16.6092C19.8393 17.1519 19.8981 17.7491 19.7834 18.3252C19.6688 18.9013 19.3859 19.4305 18.9705 19.8458C18.5551 20.2612 18.0259 20.544 17.4498 20.6586C16.8737 20.7731 16.2765 20.7143 15.7338 20.4895C15.1912 20.2647 14.7273 19.884 14.401 19.3956C14.0746 18.9072 13.9005 18.333 13.9005 17.7456C13.9013 16.9581 14.2146 16.2031 14.7715 15.6463C15.3283 15.0895 16.0834 14.7763 16.8709 14.7755V14.7755Z" fill="#54108E"/>
<path d="M56.7937 48.4991L53.6849 45.3903L53.9445 45.1307C54.356 44.7197 54.6347 44.1947 54.7446 43.6236C54.8546 43.0526 54.7907 42.4616 54.5613 41.9272C54.3319 41.3928 53.9475 40.9395 53.4578 40.6259C52.968 40.3123 52.3955 40.1527 51.8141 40.1679C52.4075 38.0204 52.4206 35.7539 51.8522 33.5996C51.2838 31.4453 50.1542 29.4803 48.5786 27.9051C48.3491 27.6756 48.1124 27.4559 47.8686 27.246V6.03639C47.8671 4.43582 47.2306 2.90123 46.0988 1.7695C44.967 0.637757 43.4324 0.0013574 41.8318 0H6.03639C4.43589 0.00145434 2.90135 0.637897 1.76962 1.76962C0.637897 2.90135 0.00145434 4.43589 0 6.03639L0 38.809C0.00145434 40.4095 0.637897 41.9441 1.76962 43.0758C2.90135 44.2075 4.43589 44.844 6.03639 44.8454H29.9707C30.2207 45.1462 30.4854 45.4368 30.7649 45.7173C32.5987 47.5592 34.9605 48.7845 37.5223 49.2231C38.2364 49.3465 38.9598 49.4086 39.6846 49.4087C40.8142 49.4088 41.9387 49.2561 43.0274 48.9546C43.0125 49.5359 43.1723 50.1083 43.4861 50.5978C43.7998 51.0873 44.2532 51.4715 44.7875 51.7008C45.3219 51.93 45.9127 51.9938 46.4837 51.8839C47.0546 51.7739 47.5795 51.4953 47.9905 51.084L48.2494 50.8251L51.359 53.9346C51.7119 54.3087 52.1364 54.6081 52.6071 54.8151C53.0779 55.0222 53.5854 55.1327 54.0997 55.1401C54.6139 55.1476 55.1244 55.0517 55.601 54.8583C56.0775 54.6649 56.5104 54.3779 56.8741 54.0142C57.2377 53.6505 57.5247 53.2176 57.718 52.741C57.9113 52.2645 58.0071 51.7539 57.9996 51.2397C57.9921 50.7255 57.8815 50.2179 57.6744 49.7472C57.4673 49.2765 57.1678 48.8521 56.7937 48.4991V48.4991ZM6.03639 43.1486C4.88586 43.1473 3.78282 42.6897 2.96927 41.8762C2.15572 41.0626 1.69811 39.9596 1.69685 38.809V6.03639C1.69811 4.88586 2.15572 3.78282 2.96927 2.96927C3.78282 2.15572 4.88586 1.69811 6.03639 1.69685H41.8318C42.9823 1.69821 44.0852 2.15586 44.8987 2.9694C45.7122 3.78293 46.1697 4.88593 46.171 6.03639V26.016C45.5584 25.6456 44.9149 25.3288 44.2478 25.0691V11.3913C44.247 10.7839 44.0052 10.2015 43.5755 9.77208C43.1459 9.34263 42.5634 9.10112 41.9559 9.10054H15.7616C15.5366 9.10054 15.3208 9.18993 15.1617 9.34904C15.0026 9.50815 14.9132 9.72395 14.9132 9.94897C14.9132 10.174 15.0026 10.3898 15.1617 10.5489C15.3208 10.708 15.5366 10.7974 15.7616 10.7974H41.9559C42.1136 10.7974 42.2648 10.8599 42.3763 10.9713C42.4879 11.0826 42.5507 11.2337 42.551 11.3913V24.5447C41.607 24.3253 40.6409 24.2147 39.6718 24.2151C36.331 24.2151 33.127 25.5423 30.7647 27.9045C28.4025 30.2668 27.0753 33.4708 27.0753 36.8116C27.075 37.725 27.1733 38.6358 27.3683 39.5282H5.91043C5.75268 39.528 5.60144 39.4653 5.48989 39.3537C5.37834 39.2422 5.31559 39.0909 5.31539 38.9332V11.3913C5.31568 11.2337 5.3785 11.0826 5.49006 10.9713C5.60162 10.8599 5.75281 10.7974 5.91043 10.7974H12.3679C12.5929 10.7974 12.8087 10.708 12.9679 10.5489C13.127 10.3898 13.2163 10.174 13.2163 9.94897C13.2163 9.72395 13.127 9.50815 12.9679 9.34904C12.8087 9.18993 12.5929 9.10054 12.3679 9.10054H5.91189C5.30442 9.10112 4.72197 9.34263 4.29231 9.77208C3.86266 10.2015 3.62088 10.7839 3.62 11.3913V38.9328C3.62068 39.5404 3.86237 40.123 4.29203 40.5527C4.7217 40.9823 5.30425 41.224 5.91189 41.2247H27.8688C28.1175 41.8909 28.423 42.5346 28.7817 43.1486H6.03639ZM31.9649 44.5173C29.9301 42.4715 28.7896 39.7022 28.7935 36.8168C28.7974 33.9313 29.9454 31.1651 31.9858 29.1248C34.0261 27.0845 36.7923 25.9366 39.6778 25.9328C42.5632 25.9289 45.3325 27.0695 47.3783 29.1043C48.9247 30.6605 49.968 32.6454 50.3728 34.8017C50.7776 36.958 50.5253 39.1861 49.6486 41.1972L44.0571 46.7891C42.046 47.6657 39.818 47.9179 37.6619 47.5131C35.5058 47.1083 33.521 46.0651 31.9649 44.5188V44.5173ZM45.9337 50.2388C45.6939 50.2389 45.4595 50.1678 45.2601 50.0347C45.0608 49.9015 44.9054 49.7122 44.8136 49.4907C44.7218 49.2691 44.6978 49.0254 44.7446 48.7902C44.7914 48.5551 44.9069 48.3391 45.0765 48.1696L51.0301 42.2159C51.1427 42.1034 51.2763 42.0141 51.4234 41.9532C51.5705 41.8923 51.7281 41.861 51.8873 41.861C52.0465 41.861 52.2041 41.8924 52.3512 41.9533C52.4982 42.0142 52.6318 42.1035 52.7444 42.2161C52.8569 42.3287 52.9462 42.4623 53.0071 42.6094C53.068 42.7565 53.0993 42.9141 53.0993 43.0733C53.0993 43.2325 53.0679 43.3901 53.007 43.5371C52.9461 43.6842 52.8568 43.8178 52.7442 43.9304L46.7906 49.884C46.6783 49.997 46.5447 50.0865 46.3975 50.1475C46.2504 50.2085 46.0926 50.2396 45.9333 50.2392L45.9337 50.2388ZM55.5945 52.7347C55.1917 53.1366 54.6459 53.3623 54.0769 53.3623C53.5079 53.3623 52.9621 53.1366 52.5593 52.7347L49.4497 49.6251L52.4849 46.5899L55.5945 49.6994C55.9963 50.1022 56.2219 50.648 56.2219 51.2169C56.2219 51.7858 55.9963 52.3315 55.5945 52.7343V52.7347Z" fill="black"/>
<path d="M47.1703 40.7963C47.2226 40.6979 47.2551 40.5902 47.2658 40.4793C47.2765 40.3684 47.2653 40.2565 47.2327 40.1499C47.2002 40.0433 47.147 39.9442 47.0761 39.8582C47.0053 39.7722 46.9182 39.701 46.8198 39.6487C46.7215 39.5963 46.6138 39.5639 46.5029 39.5532C46.392 39.5424 46.28 39.5537 46.1735 39.5862C46.0669 39.6188 45.9678 39.672 45.8818 39.7428C45.7958 39.8137 45.7246 39.9007 45.6723 39.9991C44.8886 41.4772 43.5878 42.6147 42.0183 43.194C40.4488 43.7733 38.7209 43.7538 37.1649 43.1393C35.6088 42.5248 34.3339 41.3583 33.5838 39.8629C32.8337 38.3676 32.661 36.6482 33.0988 35.0335C33.5367 33.4188 34.5542 32.0222 35.957 31.1106C37.3598 30.1989 39.0494 29.8363 40.7027 30.092C42.356 30.3477 43.8571 31.2038 44.9189 32.4966C45.9808 33.7894 46.5289 35.4282 46.4584 37.0997C46.4536 37.2111 46.4708 37.3222 46.5089 37.4269C46.5471 37.5316 46.6055 37.6278 46.6808 37.7099C46.7561 37.792 46.8469 37.8585 46.9479 37.9055C47.0489 37.9525 47.1582 37.9792 47.2695 37.984C47.3808 37.9888 47.492 37.9717 47.5967 37.9335C47.7014 37.8954 47.7975 37.837 47.8796 37.7617C47.9618 37.6863 48.0282 37.5956 48.0753 37.4946C48.1223 37.3936 48.149 37.2843 48.1538 37.173C48.2392 35.0942 47.5556 33.0568 46.2338 31.4501C44.912 29.8434 43.0446 28.78 40.9884 28.4631C38.9322 28.1462 36.8312 28.5979 35.087 29.732C33.3427 30.8661 32.0774 32.603 31.5328 34.611C30.9882 36.619 31.2025 38.7573 32.1347 40.6173C33.067 42.4773 34.6518 43.9286 36.5864 44.694C38.521 45.4595 40.6698 45.4853 42.6222 44.7666C44.5747 44.0479 46.194 42.6351 47.1706 40.7981L47.1703 40.7963Z" fill="#54108E"/>
<path d="M19.7082 26.4053H8.42264C8.19763 26.4053 7.98183 26.4947 7.82271 26.6538C7.6636 26.8129 7.57422 27.0287 7.57422 27.2537C7.57422 27.4787 7.6636 27.6945 7.82271 27.8536C7.98183 28.0127 8.19763 28.1021 8.42264 28.1021H19.7082C19.9332 28.1021 20.149 28.0127 20.3081 27.8536C20.4672 27.6945 20.5566 27.4787 20.5566 27.2537C20.5566 27.0287 20.4672 26.8129 20.3081 26.6538C20.149 26.4947 19.9332 26.4053 19.7082 26.4053V26.4053Z" fill="#54108E"/>
<path d="M19.7082 30.0168H8.42264C8.19763 30.0168 7.98183 30.1062 7.82271 30.2653C7.6636 30.4244 7.57422 30.6402 7.57422 30.8652C7.57422 31.0903 7.6636 31.3061 7.82271 31.4652C7.98183 31.6243 8.19763 31.7137 8.42264 31.7137H19.7082C19.9332 31.7137 20.149 31.6243 20.3081 31.4652C20.4672 31.3061 20.5566 31.0903 20.5566 30.8652C20.5566 30.6402 20.4672 30.4244 20.3081 30.2653C20.149 30.1062 19.9332 30.0168 19.7082 30.0168V30.0168Z" fill="#54108E"/>
<path d="M19.7082 33.6281H8.42264C8.19763 33.6281 7.98183 33.7174 7.82271 33.8766C7.6636 34.0357 7.57422 34.2515 7.57422 34.4765C7.57422 34.7015 7.6636 34.9173 7.82271 35.0764C7.98183 35.2355 8.19763 35.3249 8.42264 35.3249H19.7082C19.9332 35.3249 20.149 35.2355 20.3081 35.0764C20.4672 34.9173 20.5566 34.7015 20.5566 34.4765C20.5566 34.2515 20.4672 34.0357 20.3081 33.8766C20.149 33.7174 19.9332 33.6281 19.7082 33.6281V33.6281Z" fill="#54108E"/>
</svg>
