<svg width="51" height="51" viewBox="0 0 51 51" fill="none" xmlns="http://www.w3.org/2000/svg">
<path d="M10.5695 17.3537C10.386 17.3409 10.2029 17.3829 10.0433 17.4741C9.88361 17.5654 9.75461 17.702 9.67259 17.8666C9.59057 18.0313 9.5592 18.2165 9.58246 18.3989C9.60571 18.5814 9.68254 18.7528 9.80323 18.8916C9.92392 19.0304 10.0831 19.1302 10.2605 19.1786C10.4379 19.2269 10.6257 19.2215 10.8001 19.1631C10.9745 19.1047 11.1277 18.9959 11.2403 18.8505C11.3528 18.705 11.4197 18.5295 11.4325 18.346C11.4495 18.1 11.3682 17.8573 11.2064 17.6712C11.0446 17.4852 10.8155 17.371 10.5695 17.3537V17.3537Z" fill="#54108E"/>
<path d="M35.7858 30.262C35.7057 30.1698 35.6083 30.0943 35.499 30.0398C35.3898 29.9852 35.2708 29.9528 35.149 29.9443C34.9031 29.9281 34.6608 30.0092 34.4741 30.17L33.7727 30.7795L31.7902 28.4988C34.4553 25.2563 35.8051 21.1308 35.572 16.9401C35.3389 12.7493 33.5399 8.79901 30.5316 5.87205C27.5233 2.94508 23.5252 1.25505 19.3297 1.13686C15.1341 1.01867 11.0472 2.48096 7.87889 5.23393C4.7106 7.9869 2.69213 11.8297 2.22348 16.0007C1.75483 20.1717 2.87021 24.3665 5.34857 27.7539C7.82694 31.1414 11.4874 33.4741 15.6046 34.29C19.7218 35.1058 23.9953 34.3451 27.5781 32.1587L29.5601 34.4398L28.8587 35.0493C28.6726 35.2111 28.5583 35.4402 28.541 35.6863C28.5238 35.9323 28.6049 36.1752 28.7667 36.3614L39.6729 48.912C40.4816 49.8427 41.6269 50.4141 42.8569 50.5003C44.0869 50.5866 45.3007 50.1807 46.2315 49.372C47.1622 48.5633 47.7336 47.418 47.8198 46.188C47.9061 44.958 47.5002 43.7441 46.6915 42.8134L35.7858 30.262ZM30.9639 33.2201L29.1169 31.0926C29.3624 30.9021 29.6029 30.7053 29.8363 30.5021C30.0697 30.2989 30.2986 30.0883 30.5215 29.8725L32.3686 31.9983L30.9639 33.2201ZM7.62599 27.6278C5.69585 25.4064 4.46776 22.6626 4.09702 19.7433C3.72628 16.824 4.22955 13.8603 5.54317 11.227C6.85679 8.5937 8.92177 6.40907 11.477 4.94937C14.0322 3.48968 16.9629 2.82046 19.8984 3.02636C22.834 3.23226 25.6425 4.30403 27.969 6.10613C30.2954 7.90823 32.0352 10.3597 32.9684 13.1506C33.9015 15.9415 33.9862 18.9464 33.2115 21.7854C32.4369 24.6244 30.8378 27.1699 28.6165 29.1001C27.1421 30.3827 25.4293 31.3621 23.5761 31.9824C21.7228 32.6026 19.7655 32.8514 17.8161 32.7147C15.8666 32.578 13.9632 32.0583 12.2147 31.1855C10.4662 30.3126 8.90694 29.1037 7.62599 27.6278V27.6278ZM34.9932 32.1841L37.4326 34.992L33.2214 38.6511L30.7798 35.8448L34.9932 32.1841ZM45.0113 47.9683C44.7351 48.209 44.414 48.3928 44.0666 48.5092C43.7192 48.6256 43.3522 48.6723 42.9867 48.6467C42.6212 48.6211 42.2643 48.5236 41.9366 48.3598C41.6088 48.196 41.3165 47.9692 41.0766 47.6923L34.4411 40.0548L38.6509 36.3969L45.2873 44.0339C45.528 44.3102 45.7118 44.6312 45.8282 44.9785C45.9446 45.3259 45.9914 45.6929 45.9657 46.0584C45.9401 46.4238 45.8426 46.7807 45.6788 47.1084C45.5151 47.4361 45.2882 47.7283 45.0113 47.9683V47.9683Z" fill="black"/>
<path d="M28.6849 9.32969C26.996 7.38596 24.7686 5.98671 22.2843 5.30889C19.8001 4.63107 17.1707 4.70512 14.7286 5.52167C12.2865 6.33823 10.1414 7.86062 8.56446 9.89633C6.98756 11.932 6.04973 14.3896 5.86956 16.9583C5.68939 19.527 6.27497 22.0915 7.55226 24.3274C8.82954 26.5633 10.7412 28.3702 13.0454 29.5197C15.3496 30.6691 17.9429 31.1095 20.4974 30.7851C23.0519 30.4607 25.4529 29.3861 27.3966 27.6972C28.6877 26.576 29.7452 25.2115 30.5087 23.6815C31.2722 22.1515 31.7268 20.4861 31.8464 18.7804C31.9661 17.0746 31.7484 15.3621 31.206 13.7405C30.6635 12.1189 29.8069 10.6201 28.6849 9.32969V9.32969ZM26.1762 26.2921C24.5101 27.74 22.4521 28.6612 20.2625 28.9394C18.0728 29.2176 15.8498 28.8402 13.8747 27.8549C11.8995 26.8697 10.2609 25.3209 9.16596 23.4043C8.07107 21.4878 7.5691 19.2896 7.72354 17.0877C7.87798 14.8859 8.68188 12.7793 10.0336 11.0343C11.3853 9.2894 13.2241 7.98448 15.3175 7.28461C17.4108 6.58474 19.6647 6.52136 21.7941 7.10248C23.9235 7.6836 25.8327 8.88312 27.2804 10.5493C28.2424 11.6552 28.9771 12.9398 29.4423 14.3297C29.9075 15.7197 30.0942 17.1877 29.9916 18.6498C29.889 20.112 29.4993 21.5396 28.8446 22.851C28.1899 24.1624 27.2831 25.3318 26.1761 26.2925L26.1762 26.2921Z" fill="#54108E"/>
<path d="M19.5076 8.59286C17.5719 8.45668 15.6421 8.92964 13.9888 9.94545C12.3354 10.9613 11.0414 12.469 10.2881 14.2573C10.1925 14.4847 10.1913 14.7408 10.2845 14.9692C10.3778 15.1976 10.558 15.3795 10.7855 15.4751C11.0129 15.5706 11.269 15.5718 11.4974 15.4786C11.7257 15.3853 11.9077 15.2051 12.0032 14.9777C12.6059 13.5475 13.641 12.3418 14.9635 11.5296C16.2859 10.7174 17.8294 10.3393 19.3775 10.4485C19.6235 10.4657 19.8664 10.3845 20.0526 10.2227C20.2388 10.061 20.3531 9.83182 20.3704 9.58575C20.3876 9.33968 20.3064 9.09683 20.1446 8.91063C19.9828 8.72442 19.7537 8.61012 19.5076 8.59286V8.59286Z" fill="#54108E"/>
</svg>
